<ttFont>
    <TTGlyph name=".notdef" xMin="80" yMin="0" xMax="468" yMax="683">
      <contour>
        <pt x="80" y="683" on="1"/>
        <pt x="468" y="683" on="1"/>
        <pt x="468" y="0" on="1"/>
        <pt x="80" y="0" on="1"/>
      </contour>
      <contour>
        <pt x="400" y="68" on="1"/>
        <pt x="400" y="615" on="1"/>
        <pt x="148" y="615" on="1"/>
        <pt x="148" y="68" on="1"/>
      </contour>
    </TTGlyph>
    <TTGlyph name="A" xMin="15" yMin="0" xMax="521" yMax="655">
      <contour>
        <pt x="386" y="152" on="1"/>
        <pt x="145" y="152" on="1"/>
        <pt x="102" y="0" on="1"/>
        <pt x="15" y="0" on="1"/>
        <pt x="215" y="655" on="1"/>
        <pt x="320" y="655" on="1"/>
        <pt x="521" y="0" on="1"/>
        <pt x="429" y="0" on="1"/>
      </contour>
      <contour>
        <pt x="166" y="228" on="1"/>
        <pt x="364" y="228" on="1"/>
        <pt x="266" y="577" on="1"/>
      </contour>
    </TTGlyph>
    <TTGlyph name="AE" xMin="15" yMin="0" xMax="709" yMax="655">
      <contour>
        <pt x="364" y="0" on="1"/>
        <pt x="364" y="152" on="1"/>
        <pt x="170" y="152" on="1"/>
        <pt x="104" y="0" on="1"/>
        <pt x="15" y="0" on="1"/>
        <pt x="308" y="655" on="1"/>
        <pt x="709" y="655" on="1"/>
        <pt x="709" y="578" on="1"/>
        <pt x="449" y="578" on="1"/>
        <pt x="449" y="371" on="1"/>
        <pt x="689" y="371" on="1"/>
        <pt x="689" y="295" on="1"/>
        <pt x="449" y="295" on="1"/>
        <pt x="449" y="77" on="1"/>
        <pt x="709" y="77" on="1"/>
        <pt x="709" y="0" on="1"/>
      </contour>
      <contour>
        <pt x="364" y="228" on="1"/>
        <pt x="364" y="597" on="1"/>
        <pt x="203" y="228" on="1"/>
      </contour>
    </TTGlyph>
    <TTGlyph name="Aacute" xMin="15" yMin="0" xMax="521" yMax="829">
      <component glyphName="A" x="0" y="0" flags="0x204"/>
      <component glyphName="acute.cap" x="90" y="0" flags="0x4"/>
    </TTGlyph>
    <TTGlyph name="Acircumflex" xMin="15" yMin="0" xMax="521" yMax="840">
      <component glyphName="A" x="0" y="0" flags="0x204"/>
      <component glyphName="circumflex.cap" x="40" y="0" flags="0x4"/>
    </TTGlyph>
    <TTGlyph name="Adieresis" xMin="15" yMin="0" xMax="521" yMax="828">
      <component glyphName="A" x="0" y="0" flags="0x204"/>
      <component glyphName="dieresis.cap" x="51" y="0" flags="0x4"/>
    </TTGlyph>
    <TTGlyph name="Agrave" xMin="15" yMin="0" xMax="521" yMax="829">
      <component glyphName="A" x="0" y="0" flags="0x204"/>
      <component glyphName="grave.cap" x="51" y="0" flags="0x4"/>
    </TTGlyph>
    <TTGlyph name="Aring" xMin="15" yMin="0" xMax="521" yMax="800">
      <contour>
        <pt x="383" y="700" on="1"/>
        <pt x="383" y="667" on="0"/>
        <pt x="356" y="623" on="0"/>
        <pt x="333" y="612" on="1"/>
        <pt x="521" y="0" on="1"/>
        <pt x="429" y="0" on="1"/>
        <pt x="386" y="152" on="1"/>
        <pt x="145" y="152" on="1"/>
        <pt x="102" y="0" on="1"/>
        <pt x="15" y="0" on="1"/>
        <pt x="202" y="613" on="1"/>
        <pt x="179" y="624" on="0"/>
        <pt x="153" y="668" on="0"/>
        <pt x="153" y="700" on="1"/>
        <pt x="153" y="751" on="0"/>
        <pt x="215" y="800" on="0"/>
        <pt x="268" y="800" on="1"/>
        <pt x="320" y="800" on="0"/>
        <pt x="383" y="751" on="0"/>
      </contour>
      <contour>
        <pt x="166" y="228" on="1"/>
        <pt x="364" y="228" on="1"/>
        <pt x="266" y="577" on="1"/>
      </contour>
      <contour>
        <pt x="318" y="700" on="1"/>
        <pt x="318" y="720" on="0"/>
        <pt x="296" y="745" on="0"/>
        <pt x="268" y="745" on="1"/>
        <pt x="240" y="745" on="0"/>
        <pt x="218" y="720" on="0"/>
        <pt x="218" y="700" on="1"/>
        <pt x="218" y="680" on="0"/>
        <pt x="240" y="655" on="0"/>
        <pt x="268" y="655" on="1"/>
        <pt x="296" y="655" on="0"/>
        <pt x="318" y="680" on="0"/>
      </contour>
    </TTGlyph>
    <TTGlyph name="Atilde" xMin="15" yMin="0" xMax="521" yMax="810">
      <component glyphName="A" x="0" y="0" flags="0x204"/>
      <component glyphName="tilde.cap" x="40" y="0" flags="0x4"/>
    </TTGlyph>
    <TTGlyph name="B" xMin="75" yMin="-12" xMax="493" yMax="667">
      <contour>
        <pt x="75" y="663" on="1"/>
        <pt x="110" y="665" on="0"/>
        <pt x="197" y="667" on="0"/>
        <pt x="251" y="667" on="1"/>
        <pt x="359" y="667" on="0"/>
        <pt x="466" y="578" on="0"/>
        <pt x="466" y="507" on="1"/>
        <pt x="466" y="485" on="1"/>
        <pt x="466" y="435" on="0"/>
        <pt x="422" y="361" on="0"/>
        <pt x="374" y="340" on="1"/>
        <pt x="430" y="328" on="0"/>
        <pt x="493" y="250" on="0"/>
        <pt x="493" y="191" on="1"/>
        <pt x="493" y="169" on="1"/>
        <pt x="493" y="130" on="0"/>
        <pt x="465" y="63" on="0"/>
        <pt x="408" y="15" on="0"/>
        <pt x="319" y="-12" on="0"/>
        <pt x="258" y="-12" on="1"/>
        <pt x="217" y="-12" on="1"/>
        <pt x="199" y="-12" on="0"/>
        <pt x="160" y="-10" on="0"/>
        <pt x="111" y="-8" on="0"/>
        <pt x="75" y="-6" on="1"/>
      </contour>
      <contour>
        <pt x="160" y="68" on="1"/>
        <pt x="180" y="66" on="0"/>
        <pt x="206" y="64" on="0"/>
        <pt x="227" y="62" on="0"/>
        <pt x="236" y="62" on="1"/>
        <pt x="258" y="62" on="1"/>
        <pt x="338" y="62" on="0"/>
        <pt x="408" y="123" on="0"/>
        <pt x="408" y="174" on="1"/>
        <pt x="408" y="195" on="1"/>
        <pt x="408" y="245" on="0"/>
        <pt x="340" y="298" on="0"/>
        <pt x="264" y="298" on="1"/>
        <pt x="160" y="298" on="1"/>
      </contour>
      <contour>
        <pt x="160" y="367" on="1"/>
        <pt x="258" y="367" on="1"/>
        <pt x="319" y="367" on="0"/>
        <pt x="381" y="425" on="0"/>
        <pt x="381" y="477" on="1"/>
        <pt x="381" y="494" on="1"/>
        <pt x="381" y="542" on="0"/>
        <pt x="316" y="594" on="0"/>
        <pt x="238" y="594" on="1"/>
        <pt x="202" y="594" on="0"/>
        <pt x="160" y="591" on="1"/>
      </contour>
    </TTGlyph>
    <TTGlyph name="C" xMin="70" yMin="-12" xMax="421" yMax="667">
      <contour>
        <pt x="283" y="667" on="1"/>
        <pt x="317" y="667" on="0"/>
        <pt x="388" y="656" on="0"/>
        <pt x="421" y="651" on="1"/>
        <pt x="419" y="576" on="1"/>
        <pt x="394" y="581" on="0"/>
        <pt x="320" y="592" on="0"/>
        <pt x="283" y="592" on="1"/>
        <pt x="214" y="592" on="0"/>
        <pt x="155" y="537" on="0"/>
        <pt x="155" y="471" on="1"/>
        <pt x="155" y="185" on="1"/>
        <pt x="155" y="120" on="0"/>
        <pt x="214" y="65" on="0"/>
        <pt x="283" y="65" on="1"/>
        <pt x="320" y="65" on="0"/>
        <pt x="394" y="76" on="0"/>
        <pt x="419" y="81" on="1"/>
        <pt x="421" y="4" on="1"/>
        <pt x="388" y="-1" on="0"/>
        <pt x="317" y="-12" on="0"/>
        <pt x="283" y="-12" on="1"/>
        <pt x="224" y="-12" on="0"/>
        <pt x="142" y="13" on="0"/>
        <pt x="92" y="64" on="0"/>
        <pt x="70" y="140" on="0"/>
        <pt x="70" y="190" on="1"/>
        <pt x="70" y="465" on="1"/>
        <pt x="70" y="567" on="0"/>
        <pt x="166" y="667" on="0"/>
      </contour>
    </TTGlyph>
    <TTGlyph name="Ccedilla" xMin="70" yMin="-197" xMax="421" yMax="667">
      <contour>
        <pt x="349" y="-120" on="1"/>
        <pt x="349" y="-197" on="0"/>
        <pt x="254" y="-197" on="1"/>
        <pt x="242" y="-197" on="0"/>
        <pt x="219" y="-194" on="0"/>
        <pt x="205" y="-192" on="1"/>
        <pt x="205" y="-139" on="1"/>
        <pt x="216" y="-141" on="0"/>
        <pt x="233" y="-143" on="0"/>
        <pt x="241" y="-143" on="1"/>
        <pt x="263" y="-143" on="0"/>
        <pt x="282" y="-130" on="0"/>
        <pt x="282" y="-119" on="1"/>
        <pt x="282" y="-106" on="1"/>
        <pt x="281" y="-91" on="0"/>
        <pt x="265" y="-80" on="0"/>
        <pt x="248" y="-80" on="1"/>
        <pt x="218" y="-80" on="1"/>
        <pt x="218" y="-59" on="1"/>
        <pt x="233" y="-9" on="1"/>
        <pt x="143" y="1" on="0"/>
        <pt x="70" y="101" on="0"/>
        <pt x="70" y="190" on="1"/>
        <pt x="70" y="465" on="1"/>
        <pt x="70" y="567" on="0"/>
        <pt x="166" y="667" on="0"/>
        <pt x="283" y="667" on="1"/>
        <pt x="317" y="667" on="0"/>
        <pt x="388" y="656" on="0"/>
        <pt x="421" y="651" on="1"/>
        <pt x="419" y="576" on="1"/>
        <pt x="394" y="581" on="0"/>
        <pt x="320" y="592" on="0"/>
        <pt x="283" y="592" on="1"/>
        <pt x="214" y="592" on="0"/>
        <pt x="155" y="537" on="0"/>
        <pt x="155" y="471" on="1"/>
        <pt x="155" y="185" on="1"/>
        <pt x="155" y="120" on="0"/>
        <pt x="214" y="65" on="0"/>
        <pt x="283" y="65" on="1"/>
        <pt x="320" y="65" on="0"/>
        <pt x="394" y="76" on="0"/>
        <pt x="419" y="81" on="1"/>
        <pt x="421" y="4" on="1"/>
        <pt x="391" y="-1" on="0"/>
        <pt x="327" y="-10" on="0"/>
        <pt x="296" y="-12" on="1"/>
        <pt x="287" y="-41" on="1"/>
        <pt x="297" y="-41" on="1"/>
        <pt x="318" y="-41" on="0"/>
        <pt x="349" y="-76" on="0"/>
        <pt x="349" y="-105" on="1"/>
      </contour>
    </TTGlyph>
    <TTGlyph name="D" xMin="75" yMin="-12" xMax="506" yMax="667">
      <contour>
        <pt x="160" y="67" on="1"/>
        <pt x="218" y="61" on="0"/>
        <pt x="253" y="61" on="1"/>
        <pt x="328" y="61" on="0"/>
        <pt x="421" y="148" on="0"/>
        <pt x="421" y="234" on="1"/>
        <pt x="421" y="411" on="1"/>
        <pt x="421" y="504" on="0"/>
        <pt x="331" y="595" on="0"/>
        <pt x="253" y="595" on="1"/>
        <pt x="229" y="595" on="0"/>
        <pt x="183" y="594" on="0"/>
        <pt x="160" y="593" on="1"/>
      </contour>
      <contour>
        <pt x="75" y="663" on="1"/>
        <pt x="109" y="665" on="0"/>
        <pt x="200" y="667" on="0"/>
        <pt x="258" y="667" on="1"/>
        <pt x="377" y="667" on="0"/>
        <pt x="506" y="533" on="0"/>
        <pt x="506" y="405" on="1"/>
        <pt x="506" y="241" on="1"/>
        <pt x="506" y="119" on="0"/>
        <pt x="379" y="-12" on="0"/>
        <pt x="253" y="-12" on="1"/>
        <pt x="202" y="-12" on="0"/>
        <pt x="122" y="-9" on="0"/>
        <pt x="75" y="-6" on="1"/>
      </contour>
    </TTGlyph>
    <TTGlyph name="E" xMin="75" yMin="0" xMax="420" yMax="655">
      <contour>
        <pt x="75" y="0" on="1"/>
        <pt x="75" y="655" on="1"/>
        <pt x="420" y="655" on="1"/>
        <pt x="420" y="578" on="1"/>
        <pt x="160" y="578" on="1"/>
        <pt x="160" y="371" on="1"/>
        <pt x="400" y="371" on="1"/>
        <pt x="400" y="295" on="1"/>
        <pt x="160" y="295" on="1"/>
        <pt x="160" y="77" on="1"/>
        <pt x="420" y="77" on="1"/>
        <pt x="420" y="0" on="1"/>
      </contour>
    </TTGlyph>
    <TTGlyph name="Eacute" xMin="75" yMin="0" xMax="420" yMax="829">
      <component glyphName="E" x="0" y="0" flags="0x204"/>
      <component glyphName="acute.cap" x="80" y="0" flags="0x4"/>
    </TTGlyph>
    <TTGlyph name="Ecircumflex" xMin="75" yMin="0" xMax="420" yMax="840">
      <component glyphName="E" x="0" y="0" flags="0x204"/>
      <component glyphName="circumflex.cap" x="34" y="0" flags="0x4"/>
    </TTGlyph>
    <TTGlyph name="Edieresis" xMin="75" yMin="0" xMax="420" yMax="828">
      <component glyphName="E" x="0" y="0" flags="0x204"/>
      <component glyphName="dieresis.cap" x="28" y="0" flags="0x4"/>
    </TTGlyph>
    <TTGlyph name="Egrave" xMin="75" yMin="0" xMax="420" yMax="829">
      <component glyphName="E" x="0" y="0" flags="0x204"/>
      <component glyphName="grave.cap" x="45" y="0" flags="0x4"/>
    </TTGlyph>
    <TTGlyph name="Eth" xMin="5" yMin="-12" xMax="506" yMax="667">
      <contour>
        <pt x="75" y="303" on="1"/>
        <pt x="5" y="303" on="1"/>
        <pt x="5" y="373" on="1"/>
        <pt x="75" y="373" on="1"/>
        <pt x="75" y="663" on="1"/>
        <pt x="109" y="665" on="0"/>
        <pt x="200" y="667" on="0"/>
        <pt x="258" y="667" on="1"/>
        <pt x="377" y="667" on="0"/>
        <pt x="506" y="533" on="0"/>
        <pt x="506" y="405" on="1"/>
        <pt x="506" y="241" on="1"/>
        <pt x="506" y="119" on="0"/>
        <pt x="379" y="-12" on="0"/>
        <pt x="253" y="-12" on="1"/>
        <pt x="202" y="-12" on="0"/>
        <pt x="122" y="-9" on="0"/>
        <pt x="75" y="-6" on="1"/>
      </contour>
      <contour>
        <pt x="160" y="373" on="1"/>
        <pt x="295" y="373" on="1"/>
        <pt x="295" y="303" on="1"/>
        <pt x="160" y="303" on="1"/>
        <pt x="160" y="67" on="1"/>
        <pt x="218" y="61" on="0"/>
        <pt x="253" y="61" on="1"/>
        <pt x="328" y="61" on="0"/>
        <pt x="421" y="148" on="0"/>
        <pt x="421" y="234" on="1"/>
        <pt x="421" y="411" on="1"/>
        <pt x="421" y="504" on="0"/>
        <pt x="331" y="595" on="0"/>
        <pt x="253" y="595" on="1"/>
        <pt x="229" y="595" on="0"/>
        <pt x="183" y="594" on="0"/>
        <pt x="160" y="593" on="1"/>
      </contour>
    </TTGlyph>
    <TTGlyph name="Euro" xMin="47" yMin="-12" xMax="466" yMax="613">
      <contour>
        <pt x="215" y="326" on="1"/>
        <pt x="215" y="264" on="1"/>
        <pt x="397" y="264" on="1"/>
        <pt x="382" y="194" on="1"/>
        <pt x="215" y="194" on="1"/>
        <pt x="215" y="183" on="1"/>
        <pt x="215" y="119" on="0"/>
        <pt x="268" y="63" on="0"/>
        <pt x="328" y="63" on="1"/>
        <pt x="365" y="63" on="0"/>
        <pt x="438" y="74" on="0"/>
        <pt x="464" y="79" on="1"/>
        <pt x="466" y="4" on="1"/>
        <pt x="433" y="-2" on="0"/>
        <pt x="362" y="-12" on="0"/>
        <pt x="328" y="-12" on="1"/>
        <pt x="274" y="-12" on="0"/>
        <pt x="198" y="13" on="0"/>
        <pt x="151" y="64" on="0"/>
        <pt x="130" y="140" on="0"/>
        <pt x="130" y="190" on="1"/>
        <pt x="130" y="194" on="1"/>
        <pt x="47" y="194" on="1"/>
        <pt x="62" y="264" on="1"/>
        <pt x="130" y="264" on="1"/>
        <pt x="130" y="326" on="1"/>
        <pt x="53" y="326" on="1"/>
        <pt x="68" y="396" on="1"/>
        <pt x="130" y="396" on="1"/>
        <pt x="130" y="411" on="1"/>
        <pt x="130" y="513" on="0"/>
        <pt x="221" y="613" on="0"/>
        <pt x="328" y="613" on="1"/>
        <pt x="362" y="613" on="0"/>
        <pt x="433" y="603" on="0"/>
        <pt x="466" y="597" on="1"/>
        <pt x="464" y="524" on="1"/>
        <pt x="438" y="529" on="0"/>
        <pt x="365" y="540" on="0"/>
        <pt x="328" y="540" on="1"/>
        <pt x="268" y="540" on="0"/>
        <pt x="215" y="484" on="0"/>
        <pt x="215" y="419" on="1"/>
        <pt x="215" y="396" on="1"/>
        <pt x="424" y="396" on="1"/>
        <pt x="409" y="326" on="1"/>
      </contour>
    </TTGlyph>
    <TTGlyph name="F" xMin="75" yMin="0" xMax="420" yMax="655">
      <contour>
        <pt x="160" y="578" on="1"/>
        <pt x="160" y="371" on="1"/>
        <pt x="356" y="371" on="1"/>
        <pt x="356" y="295" on="1"/>
        <pt x="160" y="295" on="1"/>
        <pt x="160" y="0" on="1"/>
        <pt x="75" y="0" on="1"/>
        <pt x="75" y="655" on="1"/>
        <pt x="420" y="655" on="1"/>
        <pt x="420" y="578" on="1"/>
      </contour>
    </TTGlyph>
    <TTGlyph name="G" xMin="70" yMin="-12" xMax="485" yMax="667">
      <contour>
        <pt x="283" y="-12" on="1"/>
        <pt x="224" y="-12" on="0"/>
        <pt x="142" y="13" on="0"/>
        <pt x="92" y="64" on="0"/>
        <pt x="70" y="140" on="0"/>
        <pt x="70" y="190" on="1"/>
        <pt x="70" y="465" on="1"/>
        <pt x="70" y="571" on="0"/>
        <pt x="170" y="667" on="0"/>
        <pt x="283" y="667" on="1"/>
        <pt x="303" y="667" on="0"/>
        <pt x="350" y="663" on="0"/>
        <pt x="396" y="656" on="0"/>
        <pt x="439" y="648" on="0"/>
        <pt x="456" y="645" on="1"/>
        <pt x="454" y="572" on="1"/>
        <pt x="440" y="575" on="0"/>
        <pt x="400" y="582" on="0"/>
        <pt x="354" y="589" on="0"/>
        <pt x="305" y="594" on="0"/>
        <pt x="283" y="594" on="1"/>
        <pt x="213" y="594" on="0"/>
        <pt x="155" y="538" on="0"/>
        <pt x="155" y="474" on="1"/>
        <pt x="155" y="184" on="1"/>
        <pt x="155" y="120" on="0"/>
        <pt x="213" y="63" on="0"/>
        <pt x="283" y="63" on="1"/>
        <pt x="308" y="63" on="0"/>
        <pt x="369" y="71" on="0"/>
        <pt x="400" y="77" on="1"/>
        <pt x="400" y="298" on="1"/>
        <pt x="275" y="298" on="1"/>
        <pt x="275" y="378" on="1"/>
        <pt x="485" y="378" on="1"/>
        <pt x="485" y="25" on="1"/>
        <pt x="443" y="12" on="0"/>
        <pt x="336" y="-12" on="0"/>
      </contour>
    </TTGlyph>
    <TTGlyph name="H" xMin="75" yMin="0" xMax="505" yMax="655">
      <contour>
        <pt x="420" y="0" on="1"/>
        <pt x="420" y="300" on="1"/>
        <pt x="160" y="300" on="1"/>
        <pt x="160" y="0" on="1"/>
        <pt x="75" y="0" on="1"/>
        <pt x="75" y="655" on="1"/>
        <pt x="160" y="655" on="1"/>
        <pt x="160" y="376" on="1"/>
        <pt x="420" y="376" on="1"/>
        <pt x="420" y="655" on="1"/>
        <pt x="505" y="655" on="1"/>
        <pt x="505" y="0" on="1"/>
      </contour>
    </TTGlyph>
    <TTGlyph name="I" xMin="75" yMin="0" xMax="160" yMax="655">
      <contour>
        <pt x="75" y="0" on="1"/>
        <pt x="75" y="655" on="1"/>
        <pt x="160" y="655" on="1"/>
        <pt x="160" y="0" on="1"/>
      </contour>
    </TTGlyph>
    <TTGlyph name="IJ" xMin="75" yMin="-12" xMax="472" yMax="655">
      <component glyphName="I" x="0" y="0" flags="0x4"/>
      <component glyphName="J" x="235" y="0" flags="0x4"/>
    </TTGlyph>
    <TTGlyph name="Iacute" xMin="56" yMin="0" xMax="211" yMax="829">
      <component glyphName="I" x="0" y="0" flags="0x204"/>
      <component glyphName="acute.cap" x="-59" y="0" flags="0x4"/>
    </TTGlyph>
    <TTGlyph name="Icircumflex" xMin="-23" yMin="0" xMax="257" yMax="840">
      <component glyphName="I" x="0" y="0" flags="0x204"/>
      <component glyphName="circumflex.cap" x="-113" y="0" flags="0x4"/>
    </TTGlyph>
    <TTGlyph name="Idieresis" xMin="-25" yMin="0" xMax="256" yMax="828">
      <component glyphName="I" x="0" y="0" flags="0x204"/>
      <component glyphName="dieresis.cap" x="-100" y="0" flags="0x4"/>
    </TTGlyph>
    <TTGlyph name="Igrave" xMin="18" yMin="0" xMax="173" yMax="829">
      <component glyphName="I" x="0" y="0" flags="0x204"/>
      <component glyphName="grave.cap" x="-97" y="0" flags="0x4"/>
    </TTGlyph>
    <TTGlyph name="Itilde" xMin="-23" yMin="0" xMax="257" yMax="810">
      <component glyphName="I" x="0" y="0" flags="0x204"/>
      <component glyphName="tilde.cap" x="-113" y="0" flags="0x4"/>
    </TTGlyph>
    <TTGlyph name="J" xMin="20" yMin="-12" xMax="237" yMax="655">
      <contour>
        <pt x="237" y="139" on="1"/>
        <pt x="237" y="62" on="0"/>
        <pt x="165" y="-12" on="0"/>
        <pt x="84" y="-12" on="1"/>
        <pt x="67" y="-12" on="0"/>
        <pt x="27" y="-7" on="0"/>
        <pt x="20" y="-5" on="1"/>
        <pt x="20" y="66" on="1"/>
        <pt x="28" y="64" on="0"/>
        <pt x="69" y="61" on="0"/>
        <pt x="88" y="61" on="1"/>
        <pt x="119" y="61" on="0"/>
        <pt x="152" y="90" on="0"/>
        <pt x="152" y="124" on="1"/>
        <pt x="152" y="655" on="1"/>
        <pt x="237" y="655" on="1"/>
      </contour>
    </TTGlyph>
    <TTGlyph name="Jcircumflex" xMin="31" yMin="-12" xMax="339" yMax="840">
      <component glyphName="J" x="11" y="0" flags="0x4"/>
      <component glyphName="circumflex.cap" x="-31" y="0" flags="0x4"/>
    </TTGlyph>
    <TTGlyph name="K" xMin="75" yMin="0" xMax="525" yMax="655">
      <contour>
        <pt x="75" y="0" on="1"/>
        <pt x="75" y="655" on="1"/>
        <pt x="160" y="655" on="1"/>
        <pt x="160" y="339" on="1"/>
        <pt x="404" y="655" on="1"/>
        <pt x="499" y="655" on="1"/>
        <pt x="248" y="338" on="1"/>
        <pt x="525" y="0" on="1"/>
        <pt x="416" y="0" on="1"/>
        <pt x="160" y="324" on="1"/>
        <pt x="160" y="0" on="1"/>
      </contour>
    </TTGlyph>
    <TTGlyph name="L" xMin="75" yMin="0" xMax="420" yMax="655">
      <contour>
        <pt x="75" y="0" on="1"/>
        <pt x="75" y="655" on="1"/>
        <pt x="160" y="655" on="1"/>
        <pt x="160" y="75" on="1"/>
        <pt x="420" y="75" on="1"/>
        <pt x="420" y="0" on="1"/>
      </contour>
    </TTGlyph>
    <TTGlyph name="Ldotaccent" xMin="75" yMin="0" xMax="420" yMax="655">
      <component glyphName="L" x="0" y="0" flags="0x204"/>
      <component glyphName="period" x="153" y="415" flags="0x4"/>
    </TTGlyph>
    <TTGlyph name="Lslash" xMin="5" yMin="0" xMax="420" yMax="655">
      <contour>
        <pt x="5" y="344" on="1"/>
        <pt x="75" y="363" on="1"/>
        <pt x="75" y="655" on="1"/>
        <pt x="160" y="655" on="1"/>
        <pt x="160" y="387" on="1"/>
        <pt x="290" y="424" on="1"/>
        <pt x="290" y="348" on="1"/>
        <pt x="160" y="311" on="1"/>
        <pt x="160" y="75" on="1"/>
        <pt x="420" y="75" on="1"/>
        <pt x="420" y="0" on="1"/>
        <pt x="75" y="0" on="1"/>
        <pt x="75" y="287" on="1"/>
        <pt x="5" y="268" on="1"/>
      </contour>
    </TTGlyph>
    <TTGlyph name="M" xMin="70" yMin="0" xMax="629" yMax="655">
      <contour>
        <pt x="546" y="0" on="1"/>
        <pt x="541" y="538" on="1"/>
        <pt x="402" y="68" on="1"/>
        <pt x="297" y="68" on="1"/>
        <pt x="158" y="538" on="1"/>
        <pt x="153" y="0" on="1"/>
        <pt x="70" y="0" on="1"/>
        <pt x="76" y="655" on="1"/>
        <pt x="202" y="655" on="1"/>
        <pt x="350" y="144" on="1"/>
        <pt x="497" y="655" on="1"/>
        <pt x="623" y="655" on="1"/>
        <pt x="629" y="0" on="1"/>
      </contour>
    </TTGlyph>
    <TTGlyph name="N" xMin="75" yMin="0" xMax="507" yMax="655">
      <contour>
        <pt x="375" y="0" on="1"/>
        <pt x="159" y="553" on="1"/>
        <pt x="159" y="0" on="1"/>
        <pt x="75" y="0" on="1"/>
        <pt x="75" y="655" on="1"/>
        <pt x="211" y="655" on="1"/>
        <pt x="423" y="102" on="1"/>
        <pt x="423" y="655" on="1"/>
        <pt x="507" y="655" on="1"/>
        <pt x="507" y="0" on="1"/>
      </contour>
    </TTGlyph>
    <TTGlyph name="Nacute" xMin="75" yMin="0" xMax="507" yMax="829">
      <component glyphName="N" x="0" y="0" flags="0x204"/>
      <component glyphName="acute.cap" x="146" y="0" flags="0x4"/>
    </TTGlyph>
    <TTGlyph name="Ntilde" xMin="75" yMin="0" xMax="507" yMax="810">
      <component glyphName="N" x="0" y="0" flags="0x204"/>
      <component glyphName="tilde.cap" x="84" y="0" flags="0x4"/>
    </TTGlyph>
    <TTGlyph name="O" xMin="70" yMin="-12" xMax="506" yMax="667">
      <contour>
        <pt x="155" y="194" on="1"/>
        <pt x="155" y="130" on="0"/>
        <pt x="222" y="63" on="0"/>
        <pt x="288" y="63" on="1"/>
        <pt x="354" y="63" on="0"/>
        <pt x="421" y="130" on="0"/>
        <pt x="421" y="194" on="1"/>
        <pt x="421" y="461" on="1"/>
        <pt x="421" y="524" on="0"/>
        <pt x="355" y="592" on="0"/>
        <pt x="288" y="592" on="1"/>
        <pt x="221" y="592" on="0"/>
        <pt x="155" y="525" on="0"/>
        <pt x="155" y="462" on="1"/>
      </contour>
      <contour>
        <pt x="70" y="452" on="1"/>
        <pt x="70" y="501" on="0"/>
        <pt x="95" y="581" on="0"/>
        <pt x="147" y="637" on="0"/>
        <pt x="230" y="667" on="0"/>
        <pt x="288" y="667" on="1"/>
        <pt x="346" y="667" on="0"/>
        <pt x="429" y="637" on="0"/>
        <pt x="481" y="581" on="0"/>
        <pt x="506" y="501" on="0"/>
        <pt x="506" y="452" on="1"/>
        <pt x="506" y="203" on="1"/>
        <pt x="506" y="153" on="0"/>
        <pt x="481" y="74" on="0"/>
        <pt x="429" y="18" on="0"/>
        <pt x="346" y="-12" on="0"/>
        <pt x="288" y="-12" on="1"/>
        <pt x="230" y="-12" on="0"/>
        <pt x="147" y="18" on="0"/>
        <pt x="95" y="74" on="0"/>
        <pt x="70" y="153" on="0"/>
        <pt x="70" y="203" on="1"/>
      </contour>
    </TTGlyph>
    <TTGlyph name="OE" xMin="70" yMin="-12" xMax="706" yMax="667">
      <contour>
        <pt x="370" y="0" on="1"/>
        <pt x="329" y="-12" on="0"/>
        <pt x="278" y="-12" on="1"/>
        <pt x="172" y="-12" on="0"/>
        <pt x="70" y="100" on="0"/>
        <pt x="70" y="203" on="1"/>
        <pt x="70" y="452" on="1"/>
        <pt x="70" y="557" on="0"/>
        <pt x="174" y="667" on="0"/>
        <pt x="274" y="667" on="1"/>
        <pt x="328" y="667" on="0"/>
        <pt x="370" y="655" on="1"/>
        <pt x="706" y="655" on="1"/>
        <pt x="706" y="578" on="1"/>
        <pt x="446" y="578" on="1"/>
        <pt x="446" y="371" on="1"/>
        <pt x="686" y="371" on="1"/>
        <pt x="686" y="295" on="1"/>
        <pt x="446" y="295" on="1"/>
        <pt x="446" y="77" on="1"/>
        <pt x="706" y="77" on="1"/>
        <pt x="706" y="0" on="1"/>
      </contour>
      <contour>
        <pt x="283" y="63" on="1"/>
        <pt x="309" y="63" on="0"/>
        <pt x="346" y="66" on="0"/>
        <pt x="361" y="71" on="1"/>
        <pt x="361" y="579" on="1"/>
        <pt x="331" y="592" on="0"/>
        <pt x="283" y="592" on="1"/>
        <pt x="221" y="592" on="0"/>
        <pt x="155" y="526" on="0"/>
        <pt x="155" y="462" on="1"/>
        <pt x="155" y="194" on="1"/>
        <pt x="155" y="131" on="0"/>
        <pt x="220" y="63" on="0"/>
      </contour>
    </TTGlyph>
    <TTGlyph name="Oacute" xMin="70" yMin="-12" xMax="506" yMax="829">
      <component glyphName="O" x="0" y="0" flags="0x204"/>
      <component glyphName="acute.cap" x="110" y="0" flags="0x4"/>
    </TTGlyph>
    <TTGlyph name="Ocircumflex" xMin="70" yMin="-12" xMax="506" yMax="840">
      <component glyphName="O" x="0" y="0" flags="0x204"/>
      <component glyphName="circumflex.cap" x="58" y="0" flags="0x4"/>
    </TTGlyph>
    <TTGlyph name="Odieresis" xMin="70" yMin="-12" xMax="506" yMax="828">
      <component glyphName="O" x="0" y="0" flags="0x204"/>
      <component glyphName="dieresis.cap" x="73" y="0" flags="0x4"/>
    </TTGlyph>
    <TTGlyph name="Ograve" xMin="70" yMin="-12" xMax="506" yMax="829">
      <component glyphName="O" x="0" y="0" flags="0x204"/>
      <component glyphName="grave.cap" x="71" y="0" flags="0x4"/>
    </TTGlyph>
    <TTGlyph name="Oslash" xMin="35" yMin="-50" xMax="541" yMax="705">
      <contour>
        <pt x="35" y="-50" on="1"/>
        <pt x="103" y="68" on="1"/>
        <pt x="86" y="94" on="0"/>
        <pt x="70" y="162" on="0"/>
        <pt x="70" y="203" on="1"/>
        <pt x="70" y="452" on="1"/>
        <pt x="70" y="501" on="0"/>
        <pt x="95" y="581" on="0"/>
        <pt x="147" y="637" on="0"/>
        <pt x="230" y="667" on="0"/>
        <pt x="288" y="667" on="1"/>
        <pt x="368" y="667" on="0"/>
        <pt x="418" y="638" on="1"/>
        <pt x="456" y="705" on="1"/>
        <pt x="541" y="705" on="1"/>
        <pt x="474" y="585" on="1"/>
        <pt x="506" y="534" on="0"/>
        <pt x="506" y="452" on="1"/>
        <pt x="506" y="203" on="1"/>
        <pt x="506" y="153" on="0"/>
        <pt x="481" y="74" on="0"/>
        <pt x="429" y="18" on="0"/>
        <pt x="346" y="-12" on="0"/>
        <pt x="288" y="-12" on="1"/>
        <pt x="247" y="-12" on="0"/>
        <pt x="184" y="2" on="0"/>
        <pt x="159" y="16" on="1"/>
        <pt x="120" y="-50" on="1"/>
      </contour>
      <contour>
        <pt x="155" y="194" on="1"/>
        <pt x="155" y="173" on="0"/>
        <pt x="158" y="155" on="1"/>
        <pt x="383" y="562" on="1"/>
        <pt x="350" y="592" on="0"/>
        <pt x="288" y="592" on="1"/>
        <pt x="221" y="592" on="0"/>
        <pt x="155" y="525" on="0"/>
        <pt x="155" y="462" on="1"/>
      </contour>
      <contour>
        <pt x="421" y="461" on="1"/>
        <pt x="421" y="480" on="0"/>
        <pt x="418" y="497" on="1"/>
        <pt x="194" y="91" on="1"/>
        <pt x="226" y="63" on="0"/>
        <pt x="288" y="63" on="1"/>
        <pt x="354" y="63" on="0"/>
        <pt x="421" y="130" on="0"/>
        <pt x="421" y="194" on="1"/>
      </contour>
    </TTGlyph>
    <TTGlyph name="Otilde" xMin="70" yMin="-12" xMax="506" yMax="810">
      <component glyphName="O" x="0" y="0" flags="0x204"/>
      <component glyphName="tilde.cap" x="58" y="0" flags="0x4"/>
    </TTGlyph>
    <TTGlyph name="P" xMin="75" yMin="0" xMax="479" yMax="667">
      <contour>
        <pt x="75" y="0" on="1"/>
        <pt x="75" y="662" on="1"/>
        <pt x="113" y="664" on="0"/>
        <pt x="194" y="667" on="0"/>
        <pt x="248" y="667" on="1"/>
        <pt x="368" y="667" on="0"/>
        <pt x="479" y="571" on="0"/>
        <pt x="479" y="485" on="1"/>
        <pt x="479" y="461" on="1"/>
        <pt x="479" y="370" on="0"/>
        <pt x="371" y="266" on="0"/>
        <pt x="256" y="266" on="1"/>
        <pt x="234" y="266" on="0"/>
        <pt x="189" y="269" on="0"/>
        <pt x="160" y="274" on="1"/>
        <pt x="160" y="0" on="1"/>
      </contour>
      <contour>
        <pt x="160" y="347" on="1"/>
        <pt x="194" y="342" on="0"/>
        <pt x="234" y="339" on="0"/>
        <pt x="252" y="339" on="1"/>
        <pt x="394" y="339" on="0"/>
        <pt x="394" y="465" on="1"/>
        <pt x="394" y="482" on="1"/>
        <pt x="394" y="538" on="0"/>
        <pt x="324" y="596" on="0"/>
        <pt x="246" y="596" on="1"/>
        <pt x="213" y="596" on="0"/>
        <pt x="176" y="595" on="0"/>
        <pt x="160" y="594" on="1"/>
      </contour>
    </TTGlyph>
    <TTGlyph name="Q" xMin="70" yMin="-85" xMax="528" yMax="667">
      <contour>
        <pt x="70" y="452" on="1"/>
        <pt x="70" y="501" on="0"/>
        <pt x="95" y="581" on="0"/>
        <pt x="147" y="637" on="0"/>
        <pt x="230" y="667" on="0"/>
        <pt x="288" y="667" on="1"/>
        <pt x="346" y="667" on="0"/>
        <pt x="429" y="637" on="0"/>
        <pt x="481" y="581" on="0"/>
        <pt x="506" y="501" on="0"/>
        <pt x="506" y="452" on="1"/>
        <pt x="506" y="205" on="1"/>
        <pt x="506" y="136" on="0"/>
        <pt x="464" y="48" on="0"/>
        <pt x="419" y="23" on="1"/>
        <pt x="526" y="-6" on="1"/>
        <pt x="528" y="-85" on="1"/>
        <pt x="509" y="-85" on="1"/>
        <pt x="313" y="-11" on="1"/>
        <pt x="307" y="-12" on="0"/>
        <pt x="301" y="-12" on="1"/>
        <pt x="289" y="-12" on="1"/>
        <pt x="230" y="-12" on="0"/>
        <pt x="147" y="18" on="0"/>
        <pt x="95" y="74" on="0"/>
        <pt x="70" y="153" on="0"/>
        <pt x="70" y="203" on="1"/>
      </contour>
      <contour>
        <pt x="155" y="194" on="1"/>
        <pt x="155" y="130" on="0"/>
        <pt x="222" y="63" on="0"/>
        <pt x="288" y="63" on="1"/>
        <pt x="421" y="63" on="0"/>
        <pt x="421" y="199" on="1"/>
        <pt x="421" y="461" on="1"/>
        <pt x="421" y="524" on="0"/>
        <pt x="355" y="592" on="0"/>
        <pt x="288" y="592" on="1"/>
        <pt x="221" y="592" on="0"/>
        <pt x="155" y="525" on="0"/>
        <pt x="155" y="462" on="1"/>
      </contour>
    </TTGlyph>
    <TTGlyph name="R" xMin="75" yMin="0" xMax="523" yMax="667">
      <contour>
        <pt x="248" y="667" on="1"/>
        <pt x="309" y="667" on="0"/>
        <pt x="396" y="642" on="0"/>
        <pt x="451" y="597" on="0"/>
        <pt x="477" y="533" on="0"/>
        <pt x="477" y="493" on="1"/>
        <pt x="477" y="467" on="1"/>
        <pt x="477" y="440" on="0"/>
        <pt x="460" y="388" on="0"/>
        <pt x="429" y="342" on="0"/>
        <pt x="384" y="306" on="0"/>
        <pt x="356" y="296" on="1"/>
        <pt x="523" y="0" on="1"/>
        <pt x="428" y="0" on="1"/>
        <pt x="270" y="280" on="1"/>
        <pt x="208" y="280" on="1"/>
        <pt x="187" y="280" on="0"/>
        <pt x="160" y="282" on="1"/>
        <pt x="160" y="0" on="1"/>
        <pt x="75" y="0" on="1"/>
        <pt x="75" y="663" on="1"/>
        <pt x="117" y="665" on="0"/>
        <pt x="205" y="667" on="0"/>
      </contour>
      <contour>
        <pt x="246" y="596" on="1"/>
        <pt x="229" y="596" on="0"/>
        <pt x="180" y="595" on="0"/>
        <pt x="160" y="594" on="1"/>
        <pt x="160" y="358" on="1"/>
        <pt x="194" y="356" on="0"/>
        <pt x="232" y="354" on="0"/>
        <pt x="249" y="354" on="1"/>
        <pt x="326" y="354" on="0"/>
        <pt x="392" y="415" on="0"/>
        <pt x="392" y="469" on="1"/>
        <pt x="392" y="488" on="1"/>
        <pt x="392" y="542" on="0"/>
        <pt x="325" y="596" on="0"/>
      </contour>
    </TTGlyph>
    <TTGlyph name="Racute" xMin="75" yMin="0" xMax="523" yMax="829">
      <component glyphName="R" x="0" y="0" flags="0x204"/>
      <component glyphName="acute.cap" x="83" y="0" flags="0x4"/>
    </TTGlyph>
    <TTGlyph name="Rcaron" xMin="75" yMin="0" xMax="523" yMax="841">
      <component glyphName="R" x="0" y="0" flags="0x204"/>
      <component glyphName="caron.cap" x="31" y="0" flags="0x4"/>
    </TTGlyph>
    <TTGlyph name="Rcommaaccent" xMin="75" yMin="-231" xMax="523" yMax="667">
      <contour>
        <pt x="319" y="-118" on="1"/>
        <pt x="319" y="-132" on="0"/>
        <pt x="315" y="-153" on="0"/>
        <pt x="311" y="-165" on="1"/>
        <pt x="289" y="-231" on="1"/>
        <pt x="238" y="-231" on="1"/>
        <pt x="255" y="-155" on="1"/>
        <pt x="239" y="-150" on="0"/>
        <pt x="226" y="-133" on="0"/>
        <pt x="226" y="-117" on="1"/>
        <pt x="226" y="-92" on="1"/>
        <pt x="226" y="-76" on="0"/>
        <pt x="250" y="-56" on="0"/>
        <pt x="270" y="-56" on="1"/>
        <pt x="296" y="-56" on="0"/>
        <pt x="319" y="-76" on="0"/>
        <pt x="319" y="-92" on="1"/>
      </contour>
      <contour>
        <pt x="248" y="667" on="1"/>
        <pt x="309" y="667" on="0"/>
        <pt x="396" y="642" on="0"/>
        <pt x="451" y="597" on="0"/>
        <pt x="477" y="533" on="0"/>
        <pt x="477" y="493" on="1"/>
        <pt x="477" y="467" on="1"/>
        <pt x="477" y="440" on="0"/>
        <pt x="460" y="388" on="0"/>
        <pt x="429" y="342" on="0"/>
        <pt x="384" y="306" on="0"/>
        <pt x="356" y="296" on="1"/>
        <pt x="523" y="0" on="1"/>
        <pt x="428" y="0" on="1"/>
        <pt x="270" y="280" on="1"/>
        <pt x="208" y="280" on="1"/>
        <pt x="187" y="280" on="0"/>
        <pt x="160" y="282" on="1"/>
        <pt x="160" y="0" on="1"/>
        <pt x="75" y="0" on="1"/>
        <pt x="75" y="663" on="1"/>
        <pt x="117" y="665" on="0"/>
        <pt x="205" y="667" on="0"/>
      </contour>
      <contour>
        <pt x="246" y="596" on="1"/>
        <pt x="229" y="596" on="0"/>
        <pt x="180" y="595" on="0"/>
        <pt x="160" y="594" on="1"/>
        <pt x="160" y="358" on="1"/>
        <pt x="194" y="356" on="0"/>
        <pt x="232" y="354" on="0"/>
        <pt x="249" y="354" on="1"/>
        <pt x="326" y="354" on="0"/>
        <pt x="392" y="415" on="0"/>
        <pt x="392" y="469" on="1"/>
        <pt x="392" y="488" on="1"/>
        <pt x="392" y="542" on="0"/>
        <pt x="325" y="596" on="0"/>
      </contour>
    </TTGlyph>
    <TTGlyph name="S" xMin="45" yMin="-12" xMax="426" yMax="667">
      <contour>
        <pt x="304" y="356" on="1"/>
        <pt x="337" y="345" on="0"/>
        <pt x="384" y="316" on="0"/>
        <pt x="413" y="275" on="0"/>
        <pt x="426" y="221" on="0"/>
        <pt x="426" y="184" on="1"/>
        <pt x="426" y="165" on="1"/>
        <pt x="426" y="122" on="0"/>
        <pt x="403" y="56" on="0"/>
        <pt x="350" y="11" on="0"/>
        <pt x="266" y="-12" on="0"/>
        <pt x="206" y="-12" on="1"/>
        <pt x="182" y="-12" on="0"/>
        <pt x="104" y="-2" on="0"/>
        <pt x="60" y="8" on="1"/>
        <pt x="62" y="85" on="1"/>
        <pt x="103" y="75" on="0"/>
        <pt x="178" y="65" on="0"/>
        <pt x="204" y="65" on="1"/>
        <pt x="281" y="65" on="0"/>
        <pt x="341" y="112" on="0"/>
        <pt x="341" y="158" on="1"/>
        <pt x="341" y="191" on="1"/>
        <pt x="341" y="226" on="0"/>
        <pt x="311" y="263" on="0"/>
        <pt x="271" y="276" on="1"/>
        <pt x="168" y="310" on="1"/>
        <pt x="133" y="321" on="0"/>
        <pt x="86" y="349" on="0"/>
        <pt x="58" y="389" on="0"/>
        <pt x="45" y="443" on="0"/>
        <pt x="45" y="480" on="1"/>
        <pt x="45" y="491" on="1"/>
        <pt x="45" y="576" on="0"/>
        <pt x="136" y="667" on="0"/>
        <pt x="240" y="667" on="1"/>
        <pt x="266" y="667" on="0"/>
        <pt x="343" y="658" on="0"/>
        <pt x="380" y="651" on="1"/>
        <pt x="378" y="576" on="1"/>
        <pt x="343" y="583" on="0"/>
        <pt x="270" y="592" on="0"/>
        <pt x="240" y="592" on="1"/>
        <pt x="180" y="592" on="0"/>
        <pt x="130" y="545" on="0"/>
        <pt x="130" y="499" on="1"/>
        <pt x="130" y="473" on="1"/>
        <pt x="130" y="455" on="0"/>
        <pt x="136" y="430" on="0"/>
        <pt x="154" y="410" on="0"/>
        <pt x="186" y="395" on="0"/>
        <pt x="211" y="387" on="1"/>
      </contour>
    </TTGlyph>
    <TTGlyph name="T" xMin="25" yMin="0" xMax="490" yMax="655">
      <contour>
        <pt x="25" y="578" on="1"/>
        <pt x="25" y="655" on="1"/>
        <pt x="490" y="655" on="1"/>
        <pt x="490" y="578" on="1"/>
        <pt x="300" y="578" on="1"/>
        <pt x="300" y="0" on="1"/>
        <pt x="215" y="0" on="1"/>
        <pt x="215" y="578" on="1"/>
      </contour>
    </TTGlyph>
    <TTGlyph name="Thorn" xMin="75" yMin="0" xMax="479" yMax="655">
      <contour>
        <pt x="75" y="0" on="1"/>
        <pt x="75" y="655" on="1"/>
        <pt x="160" y="655" on="1"/>
        <pt x="160" y="533" on="1"/>
        <pt x="184" y="536" on="0"/>
        <pt x="230" y="539" on="0"/>
        <pt x="248" y="539" on="1"/>
        <pt x="368" y="539" on="0"/>
        <pt x="479" y="443" on="0"/>
        <pt x="479" y="357" on="1"/>
        <pt x="479" y="333" on="1"/>
        <pt x="479" y="242" on="0"/>
        <pt x="371" y="138" on="0"/>
        <pt x="256" y="138" on="1"/>
        <pt x="234" y="138" on="0"/>
        <pt x="189" y="141" on="0"/>
        <pt x="160" y="146" on="1"/>
        <pt x="160" y="0" on="1"/>
      </contour>
      <contour>
        <pt x="160" y="219" on="1"/>
        <pt x="194" y="214" on="0"/>
        <pt x="234" y="211" on="0"/>
        <pt x="252" y="211" on="1"/>
        <pt x="394" y="211" on="0"/>
        <pt x="394" y="337" on="1"/>
        <pt x="394" y="354" on="1"/>
        <pt x="394" y="410" on="0"/>
        <pt x="324" y="468" on="0"/>
        <pt x="246" y="468" on="1"/>
        <pt x="213" y="468" on="0"/>
        <pt x="176" y="465" on="0"/>
        <pt x="160" y="463" on="1"/>
      </contour>
    </TTGlyph>
    <TTGlyph name="U" xMin="75" yMin="-12" xMax="501" yMax="655">
      <contour>
        <pt x="501" y="655" on="1"/>
        <pt x="501" y="207" on="1"/>
        <pt x="501" y="101" on="0"/>
        <pt x="395" y="-12" on="0"/>
        <pt x="288" y="-12" on="1"/>
        <pt x="184" y="-12" on="0"/>
        <pt x="75" y="96" on="0"/>
        <pt x="75" y="205" on="1"/>
        <pt x="75" y="655" on="1"/>
        <pt x="160" y="655" on="1"/>
        <pt x="160" y="194" on="1"/>
        <pt x="160" y="128" on="0"/>
        <pt x="227" y="63" on="0"/>
        <pt x="288" y="63" on="1"/>
        <pt x="349" y="63" on="0"/>
        <pt x="416" y="128" on="0"/>
        <pt x="416" y="194" on="1"/>
        <pt x="416" y="655" on="1"/>
      </contour>
    </TTGlyph>
    <TTGlyph name="Uacute" xMin="75" yMin="-12" xMax="501" yMax="829">
      <component glyphName="U" x="0" y="0" flags="0x204"/>
      <component glyphName="acute.cap" x="125" y="0" flags="0x4"/>
    </TTGlyph>
    <TTGlyph name="Ucircumflex" xMin="75" yMin="-12" xMax="501" yMax="840">
      <component glyphName="U" x="0" y="0" flags="0x204"/>
      <component glyphName="circumflex.cap" x="68" y="0" flags="0x4"/>
    </TTGlyph>
    <TTGlyph name="Udieresis" xMin="75" yMin="-12" xMax="501" yMax="828">
      <component glyphName="U" x="0" y="0" flags="0x204"/>
      <component glyphName="dieresis.cap" x="81" y="0" flags="0x4"/>
    </TTGlyph>
    <TTGlyph name="Ugrave" xMin="75" yMin="-12" xMax="501" yMax="829">
      <component glyphName="U" x="0" y="0" flags="0x204"/>
      <component glyphName="grave.cap" x="83" y="0" flags="0x4"/>
    </TTGlyph>
    <TTGlyph name="V" xMin="15" yMin="0" xMax="515" yMax="655">
      <contour>
        <pt x="321" y="0" on="1"/>
        <pt x="209" y="0" on="1"/>
        <pt x="15" y="655" on="1"/>
        <pt x="105" y="655" on="1"/>
        <pt x="265" y="82" on="1"/>
        <pt x="425" y="655" on="1"/>
        <pt x="515" y="655" on="1"/>
      </contour>
    </TTGlyph>
    <TTGlyph name="W" xMin="25" yMin="0" xMax="823" yMax="655">
      <contour>
        <pt x="674" y="0" on="1"/>
        <pt x="560" y="0" on="1"/>
        <pt x="424" y="558" on="1"/>
        <pt x="289" y="0" on="1"/>
        <pt x="175" y="0" on="1"/>
        <pt x="25" y="655" on="1"/>
        <pt x="115" y="655" on="1"/>
        <pt x="235" y="93" on="1"/>
        <pt x="366" y="655" on="1"/>
        <pt x="482" y="655" on="1"/>
        <pt x="614" y="93" on="1"/>
        <pt x="733" y="655" on="1"/>
        <pt x="823" y="655" on="1"/>
      </contour>
    </TTGlyph>
    <TTGlyph name="X" xMin="15" yMin="0" xMax="508" yMax="655">
      <contour>
        <pt x="113" y="0" on="1"/>
        <pt x="15" y="0" on="1"/>
        <pt x="207" y="338" on="1"/>
        <pt x="27" y="655" on="1"/>
        <pt x="129" y="655" on="1"/>
        <pt x="266" y="405" on="1"/>
        <pt x="403" y="655" on="1"/>
        <pt x="497" y="655" on="1"/>
        <pt x="319" y="336" on="1"/>
        <pt x="508" y="0" on="1"/>
        <pt x="405" y="0" on="1"/>
        <pt x="259" y="268" on="1"/>
      </contour>
    </TTGlyph>
    <TTGlyph name="Y" xMin="15" yMin="0" xMax="480" yMax="655">
      <contour>
        <pt x="290" y="225" on="1"/>
        <pt x="290" y="0" on="1"/>
        <pt x="205" y="0" on="1"/>
        <pt x="205" y="225" on="1"/>
        <pt x="15" y="655" on="1"/>
        <pt x="112" y="655" on="1"/>
        <pt x="248" y="315" on="1"/>
        <pt x="385" y="655" on="1"/>
        <pt x="480" y="655" on="1"/>
      </contour>
    </TTGlyph>
    <TTGlyph name="Yacute" xMin="15" yMin="0" xMax="480" yMax="829">
      <component glyphName="Y" x="0" y="0" flags="0x204"/>
      <component glyphName="acute.cap" x="77" y="0" flags="0x4"/>
    </TTGlyph>
    <TTGlyph name="Z" xMin="45" yMin="0" xMax="440" yMax="655">
      <contour>
        <pt x="45" y="0" on="1"/>
        <pt x="45" y="67" on="1"/>
        <pt x="341" y="578" on="1"/>
        <pt x="51" y="578" on="1"/>
        <pt x="51" y="655" on="1"/>
        <pt x="440" y="655" on="1"/>
        <pt x="440" y="588" on="1"/>
        <pt x="144" y="77" on="1"/>
        <pt x="440" y="77" on="1"/>
        <pt x="440" y="0" on="1"/>
      </contour>
    </TTGlyph>
    <TTGlyph name="a" xMin="55" yMin="-12" xMax="394" yMax="500">
      <contour>
        <pt x="394" y="0" on="1"/>
        <pt x="313" y="0" on="1"/>
        <pt x="313" y="78" on="1"/>
        <pt x="254" y="-12" on="0"/>
        <pt x="182" y="-12" on="1"/>
        <pt x="125" y="-12" on="0"/>
        <pt x="55" y="67" on="0"/>
        <pt x="55" y="137" on="1"/>
        <pt x="55" y="165" on="1"/>
        <pt x="55" y="195" on="0"/>
        <pt x="76" y="247" on="0"/>
        <pt x="115" y="284" on="0"/>
        <pt x="171" y="306" on="0"/>
        <pt x="206" y="306" on="1"/>
        <pt x="228" y="306" on="0"/>
        <pt x="286" y="298" on="0"/>
        <pt x="309" y="293" on="1"/>
        <pt x="309" y="346" on="1"/>
        <pt x="309" y="391" on="0"/>
        <pt x="270" y="427" on="0"/>
        <pt x="229" y="427" on="1"/>
        <pt x="214" y="427" on="0"/>
        <pt x="178" y="424" on="0"/>
        <pt x="142" y="419" on="0"/>
        <pt x="107" y="414" on="0"/>
        <pt x="94" y="412" on="1"/>
        <pt x="94" y="485" on="1"/>
        <pt x="127" y="490" on="0"/>
        <pt x="203" y="500" on="0"/>
        <pt x="229" y="500" on="1"/>
        <pt x="315" y="500" on="0"/>
        <pt x="394" y="424" on="0"/>
        <pt x="394" y="339" on="1"/>
      </contour>
      <contour>
        <pt x="201" y="64" on="1"/>
        <pt x="227" y="64" on="0"/>
        <pt x="285" y="110" on="0"/>
        <pt x="309" y="154" on="1"/>
        <pt x="309" y="231" on="1"/>
        <pt x="289" y="235" on="0"/>
        <pt x="243" y="238" on="0"/>
        <pt x="227" y="238" on="1"/>
        <pt x="185" y="238" on="0"/>
        <pt x="141" y="193" on="0"/>
        <pt x="141" y="154" on="1"/>
        <pt x="141" y="143" on="1"/>
        <pt x="141" y="105" on="0"/>
        <pt x="175" y="64" on="0"/>
      </contour>
    </TTGlyph>
    <TTGlyph name="aacute" xMin="55" yMin="-12" xMax="394" yMax="685">
      <component glyphName="a" x="0" y="0" flags="0x204"/>
      <component glyphName="acute" x="109" y="0" flags="0x4"/>
    </TTGlyph>
    <TTGlyph name="acircumflex" xMin="55" yMin="-12" xMax="394" yMax="690">
      <component glyphName="a" x="0" y="0" flags="0x204"/>
      <component glyphName="circumflex" x="8" y="0" flags="0x4"/>
    </TTGlyph>
    <TTGlyph name="acute" xMin="75" yMin="546" xMax="236" yMax="685">
      <contour>
        <pt x="141" y="546" on="1"/>
        <pt x="75" y="546" on="1"/>
        <pt x="151" y="685" on="1"/>
        <pt x="236" y="685" on="1"/>
      </contour>
    </TTGlyph>
    <TTGlyph name="acute.cap" xMin="115" yMin="710" xMax="270" yMax="829">
      <contour>
        <pt x="185" y="710" on="1"/>
        <pt x="115" y="710" on="1"/>
        <pt x="181" y="829" on="1"/>
        <pt x="270" y="829" on="1"/>
      </contour>
    </TTGlyph>
    <TTGlyph name="adieresis" xMin="55" yMin="-12" xMax="394" yMax="695">
      <component glyphName="a" x="0" y="0" flags="0x204"/>
      <component glyphName="dieresis" x="17" y="0" flags="0x4"/>
    </TTGlyph>
    <TTGlyph name="ae" xMin="55" yMin="-12" xMax="655" yMax="500">
      <contour>
        <pt x="394" y="218" on="1"/>
        <pt x="394" y="159" on="1"/>
        <pt x="394" y="108" on="0"/>
        <pt x="445" y="63" on="0"/>
        <pt x="498" y="63" on="1"/>
        <pt x="514" y="63" on="0"/>
        <pt x="553" y="67" on="0"/>
        <pt x="591" y="72" on="0"/>
        <pt x="627" y="78" on="0"/>
        <pt x="640" y="81" on="1"/>
        <pt x="636" y="6" on="1"/>
        <pt x="603" y="0" on="0"/>
        <pt x="527" y="-12" on="0"/>
        <pt x="498" y="-12" on="1"/>
        <pt x="422" y="-12" on="0"/>
        <pt x="344" y="40" on="0"/>
        <pt x="330" y="90" on="1"/>
        <pt x="299" y="41" on="0"/>
        <pt x="227" y="-12" on="0"/>
        <pt x="182" y="-12" on="1"/>
        <pt x="124" y="-12" on="0"/>
        <pt x="55" y="68" on="0"/>
        <pt x="55" y="137" on="1"/>
        <pt x="55" y="165" on="1"/>
        <pt x="55" y="195" on="0"/>
        <pt x="75" y="246" on="0"/>
        <pt x="114" y="284" on="0"/>
        <pt x="170" y="306" on="0"/>
        <pt x="206" y="306" on="1"/>
        <pt x="228" y="306" on="0"/>
        <pt x="286" y="298" on="0"/>
        <pt x="309" y="293" on="1"/>
        <pt x="309" y="351" on="1"/>
        <pt x="309" y="393" on="0"/>
        <pt x="271" y="430" on="0"/>
        <pt x="229" y="430" on="1"/>
        <pt x="214" y="430" on="0"/>
        <pt x="178" y="427" on="0"/>
        <pt x="142" y="422" on="0"/>
        <pt x="107" y="417" on="0"/>
        <pt x="94" y="415" on="1"/>
        <pt x="94" y="485" on="1"/>
        <pt x="127" y="490" on="0"/>
        <pt x="203" y="500" on="0"/>
        <pt x="229" y="500" on="1"/>
        <pt x="324" y="500" on="0"/>
        <pt x="360" y="443" on="1"/>
        <pt x="397" y="500" on="0"/>
        <pt x="482" y="500" on="1"/>
        <pt x="566" y="500" on="0"/>
        <pt x="655" y="409" on="0"/>
        <pt x="655" y="321" on="1"/>
        <pt x="655" y="218" on="1"/>
      </contour>
      <contour>
        <pt x="309" y="231" on="1"/>
        <pt x="289" y="235" on="0"/>
        <pt x="243" y="238" on="0"/>
        <pt x="227" y="238" on="1"/>
        <pt x="185" y="238" on="0"/>
        <pt x="141" y="193" on="0"/>
        <pt x="141" y="154" on="1"/>
        <pt x="141" y="143" on="1"/>
        <pt x="141" y="105" on="0"/>
        <pt x="175" y="64" on="0"/>
        <pt x="201" y="64" on="1"/>
        <pt x="227" y="64" on="0"/>
        <pt x="285" y="110" on="0"/>
        <pt x="309" y="154" on="1"/>
      </contour>
      <contour>
        <pt x="394" y="288" on="1"/>
        <pt x="570" y="288" on="1"/>
        <pt x="570" y="331" on="1"/>
        <pt x="570" y="379" on="0"/>
        <pt x="523" y="429" on="0"/>
        <pt x="482" y="429" on="1"/>
        <pt x="443" y="429" on="0"/>
        <pt x="396" y="384" on="0"/>
        <pt x="394" y="339" on="1"/>
      </contour>
    </TTGlyph>
    <TTGlyph name="agrave" xMin="55" yMin="-12" xMax="394" yMax="685">
      <component glyphName="a" x="0" y="0" flags="0x204"/>
      <component glyphName="grave" x="47" y="0" flags="0x4"/>
    </TTGlyph>
    <TTGlyph name="ampersand" xMin="35" yMin="-12" xMax="525" yMax="667">
      <contour>
        <pt x="245" y="596" on="1"/>
        <pt x="191" y="596" on="0"/>
        <pt x="143" y="546" on="0"/>
        <pt x="143" y="500" on="1"/>
        <pt x="143" y="478" on="1"/>
        <pt x="143" y="427" on="0"/>
        <pt x="206" y="367" on="0"/>
        <pt x="268" y="367" on="1"/>
        <pt x="369" y="367" on="1"/>
        <pt x="369" y="440" on="1"/>
        <pt x="451" y="440" on="1"/>
        <pt x="451" y="367" on="1"/>
        <pt x="525" y="367" on="1"/>
        <pt x="525" y="298" on="1"/>
        <pt x="451" y="298" on="1"/>
        <pt x="451" y="13" on="1"/>
        <pt x="419" y="6" on="0"/>
        <pt x="371" y="-3" on="0"/>
        <pt x="330" y="-9" on="0"/>
        <pt x="291" y="-12" on="0"/>
        <pt x="268" y="-12" on="1"/>
        <pt x="202" y="-12" on="0"/>
        <pt x="113" y="13" on="0"/>
        <pt x="58" y="59" on="0"/>
        <pt x="35" y="123" on="0"/>
        <pt x="35" y="162" on="1"/>
        <pt x="35" y="184" on="1"/>
        <pt x="35" y="240" on="0"/>
        <pt x="95" y="323" on="0"/>
        <pt x="152" y="340" on="1"/>
        <pt x="102" y="362" on="0"/>
        <pt x="60" y="437" on="0"/>
        <pt x="60" y="485" on="1"/>
        <pt x="60" y="507" on="1"/>
        <pt x="60" y="540" on="0"/>
        <pt x="84" y="599" on="0"/>
        <pt x="130" y="642" on="0"/>
        <pt x="200" y="667" on="0"/>
        <pt x="245" y="667" on="1"/>
        <pt x="273" y="667" on="0"/>
        <pt x="329" y="661" on="0"/>
        <pt x="363" y="656" on="1"/>
        <pt x="361" y="585" on="1"/>
        <pt x="335" y="590" on="0"/>
        <pt x="277" y="596" on="0"/>
      </contour>
      <contour>
        <pt x="369" y="298" on="1"/>
        <pt x="262" y="298" on="1"/>
        <pt x="189" y="298" on="0"/>
        <pt x="120" y="239" on="0"/>
        <pt x="120" y="188" on="1"/>
        <pt x="120" y="161" on="1"/>
        <pt x="120" y="113" on="0"/>
        <pt x="191" y="60" on="0"/>
        <pt x="268" y="60" on="1"/>
        <pt x="294" y="60" on="0"/>
        <pt x="339" y="66" on="0"/>
        <pt x="369" y="73" on="1"/>
      </contour>
    </TTGlyph>
    <TTGlyph name="aring" xMin="55" yMin="-12" xMax="394" yMax="725">
      <component glyphName="a" x="0" y="0" flags="0x204"/>
      <component glyphName="ring" x="51" y="0" flags="0x4"/>
    </TTGlyph>
    <TTGlyph name="asciicircum" xMin="65" yMin="403" xMax="430" yMax="683">
      <contour>
        <pt x="347" y="403" on="1"/>
        <pt x="247" y="604" on="1"/>
        <pt x="148" y="403" on="1"/>
        <pt x="65" y="403" on="1"/>
        <pt x="210" y="683" on="1"/>
        <pt x="285" y="683" on="1"/>
        <pt x="430" y="403" on="1"/>
      </contour>
    </TTGlyph>
    <TTGlyph name="asciitilde" xMin="83" yMin="251" xMax="437" yMax="352">
      <contour>
        <pt x="437" y="279" on="1"/>
        <pt x="425" y="271" on="0"/>
        <pt x="409" y="265" on="1"/>
        <pt x="395" y="260" on="0"/>
        <pt x="359" y="251" on="0"/>
        <pt x="337" y="251" on="1"/>
        <pt x="310" y="251" on="0"/>
        <pt x="274" y="260" on="0"/>
        <pt x="242" y="270" on="0"/>
        <pt x="206" y="279" on="0"/>
        <pt x="181" y="279" on="1"/>
        <pt x="167" y="279" on="0"/>
        <pt x="133" y="271" on="0"/>
        <pt x="118" y="266" on="1"/>
        <pt x="100" y="261" on="0"/>
        <pt x="83" y="254" on="1"/>
        <pt x="83" y="324" on="1"/>
        <pt x="95" y="332" on="0"/>
        <pt x="111" y="338" on="1"/>
        <pt x="125" y="343" on="0"/>
        <pt x="161" y="352" on="0"/>
        <pt x="183" y="352" on="1"/>
        <pt x="210" y="352" on="0"/>
        <pt x="246" y="343" on="0"/>
        <pt x="279" y="333" on="0"/>
        <pt x="314" y="324" on="0"/>
        <pt x="339" y="324" on="1"/>
        <pt x="353" y="324" on="0"/>
        <pt x="387" y="331" on="0"/>
        <pt x="402" y="336" on="1"/>
        <pt x="420" y="341" on="0"/>
        <pt x="437" y="349" on="1"/>
      </contour>
    </TTGlyph>
    <TTGlyph name="asterisk" xMin="55" yMin="410" xMax="355" yMax="695">
      <contour>
        <pt x="229" y="583" on="1"/>
        <pt x="332" y="627" on="1"/>
        <pt x="355" y="561" on="1"/>
        <pt x="244" y="536" on="1"/>
        <pt x="318" y="452" on="1"/>
        <pt x="261" y="411" on="1"/>
        <pt x="204" y="507" on="1"/>
        <pt x="147" y="410" on="1"/>
        <pt x="91" y="452" on="1"/>
        <pt x="165" y="537" on="1"/>
        <pt x="55" y="561" on="1"/>
        <pt x="78" y="627" on="1"/>
        <pt x="180" y="584" on="1"/>
        <pt x="170" y="695" on="1"/>
        <pt x="239" y="695" on="1"/>
      </contour>
    </TTGlyph>
    <TTGlyph name="at" xMin="75" yMin="-185" xMax="885" yMax="695">
      <contour>
        <pt x="299" y="320" on="1"/>
        <pt x="310" y="402" on="0"/>
        <pt x="395" y="488" on="0"/>
        <pt x="462" y="488" on="1"/>
        <pt x="478" y="488" on="0"/>
        <pt x="512" y="478" on="0"/>
        <pt x="542" y="462" on="0"/>
        <pt x="569" y="443" on="0"/>
        <pt x="579" y="434" on="1"/>
        <pt x="584" y="475" on="1"/>
        <pt x="664" y="475" on="1"/>
        <pt x="624" y="158" on="1"/>
        <pt x="623" y="153" on="0"/>
        <pt x="622" y="140" on="0"/>
        <pt x="622" y="138" on="1"/>
        <pt x="622" y="116" on="0"/>
        <pt x="645" y="90" on="0"/>
        <pt x="673" y="90" on="1"/>
        <pt x="699" y="90" on="0"/>
        <pt x="745" y="116" on="0"/>
        <pt x="780" y="164" on="0"/>
        <pt x="800" y="229" on="0"/>
        <pt x="800" y="268" on="1"/>
        <pt x="800" y="318" on="1"/>
        <pt x="800" y="467" on="0"/>
        <pt x="636" y="619" on="0"/>
        <pt x="470" y="619" on="1"/>
        <pt x="323" y="619" on="0"/>
        <pt x="160" y="449" on="0"/>
        <pt x="160" y="288" on="1"/>
        <pt x="160" y="188" on="1"/>
        <pt x="160" y="42" on="0"/>
        <pt x="315" y="-109" on="0"/>
        <pt x="470" y="-109" on="1"/>
        <pt x="605" y="-109" on="1"/>
        <pt x="605" y="-185" on="1"/>
        <pt x="470" y="-185" on="1"/>
        <pt x="267" y="-185" on="0"/>
        <pt x="75" y="6" on="0"/>
        <pt x="75" y="188" on="1"/>
        <pt x="75" y="288" on="1"/>
        <pt x="75" y="378" on="0"/>
        <pt x="122" y="527" on="0"/>
        <pt x="219" y="635" on="0"/>
        <pt x="368" y="695" on="0"/>
        <pt x="470" y="695" on="1"/>
        <pt x="682" y="695" on="0"/>
        <pt x="885" y="504" on="0"/>
        <pt x="885" y="318" on="1"/>
        <pt x="885" y="268" on="1"/>
        <pt x="885" y="213" on="0"/>
        <pt x="856" y="120" on="0"/>
        <pt x="801" y="53" on="0"/>
        <pt x="722" y="15" on="0"/>
        <pt x="672" y="15" on="1"/>
        <pt x="615" y="15" on="0"/>
        <pt x="552" y="64" on="0"/>
        <pt x="546" y="109" on="1"/>
        <pt x="511" y="66" on="0"/>
        <pt x="430" y="15" on="0"/>
        <pt x="392" y="15" on="1"/>
        <pt x="336" y="15" on="0"/>
        <pt x="278" y="81" on="0"/>
        <pt x="278" y="143" on="1"/>
        <pt x="278" y="149" on="0"/>
        <pt x="280" y="176" on="0"/>
        <pt x="281" y="182" on="1"/>
      </contour>
      <contour>
        <pt x="418" y="91" on="1"/>
        <pt x="447" y="91" on="0"/>
        <pt x="513" y="137" on="0"/>
        <pt x="542" y="182" on="1"/>
        <pt x="564" y="363" on="1"/>
        <pt x="546" y="385" on="0"/>
        <pt x="493" y="412" on="0"/>
        <pt x="470" y="412" on="1"/>
        <pt x="436" y="412" on="0"/>
        <pt x="389" y="363" on="0"/>
        <pt x="382" y="308" on="1"/>
        <pt x="367" y="193" on="1"/>
        <pt x="364" y="175" on="0"/>
        <pt x="364" y="161" on="1"/>
        <pt x="364" y="123" on="0"/>
        <pt x="393" y="91" on="0"/>
      </contour>
    </TTGlyph>
    <TTGlyph name="atilde" xMin="55" yMin="-12" xMax="394" yMax="685">
      <component glyphName="a" x="0" y="0" flags="0x204"/>
      <component glyphName="tilde" x="11" y="0" flags="0x4"/>
    </TTGlyph>
    <TTGlyph name="b" xMin="75" yMin="-12" xMax="421" yMax="683">
      <contour>
        <pt x="160" y="423" on="1"/>
        <pt x="186" y="460" on="0"/>
        <pt x="253" y="500" on="0"/>
        <pt x="291" y="500" on="1"/>
        <pt x="353" y="500" on="0"/>
        <pt x="421" y="415" on="0"/>
        <pt x="421" y="330" on="1"/>
        <pt x="421" y="172" on="1"/>
        <pt x="421" y="81" on="0"/>
        <pt x="337" y="-12" on="0"/>
        <pt x="245" y="-12" on="1"/>
        <pt x="155" y="-12" on="0"/>
        <pt x="75" y="79" on="0"/>
        <pt x="75" y="170" on="1"/>
        <pt x="75" y="683" on="1"/>
        <pt x="160" y="683" on="1"/>
      </contour>
      <contour>
        <pt x="271" y="424" on="1"/>
        <pt x="242" y="424" on="0"/>
        <pt x="182" y="380" on="0"/>
        <pt x="160" y="342" on="1"/>
        <pt x="160" y="160" on="1"/>
        <pt x="160" y="110" on="0"/>
        <pt x="206" y="59" on="0"/>
        <pt x="245" y="59" on="1"/>
        <pt x="336" y="59" on="0"/>
        <pt x="336" y="162" on="1"/>
        <pt x="336" y="318" on="1"/>
        <pt x="336" y="378" on="0"/>
        <pt x="300" y="424" on="0"/>
      </contour>
    </TTGlyph>
    <TTGlyph name="backslash" xMin="115" yMin="0" xMax="405" yMax="683">
      <contour>
        <pt x="320" y="0" on="1"/>
        <pt x="115" y="683" on="1"/>
        <pt x="200" y="683" on="1"/>
        <pt x="405" y="0" on="1"/>
      </contour>
    </TTGlyph>
    <TTGlyph name="bar" xMin="217" yMin="-112" xMax="302" yMax="798">
      <contour>
        <pt x="217" y="-112" on="1"/>
        <pt x="217" y="798" on="1"/>
        <pt x="302" y="798" on="1"/>
        <pt x="302" y="-112" on="1"/>
      </contour>
    </TTGlyph>
    <TTGlyph name="braceleft" xMin="118" yMin="-119" xMax="379" yMax="787">
      <contour>
        <pt x="208" y="219" on="1"/>
        <pt x="208" y="265" on="0"/>
        <pt x="179" y="299" on="0"/>
        <pt x="143" y="299" on="1"/>
        <pt x="118" y="299" on="1"/>
        <pt x="118" y="369" on="1"/>
        <pt x="143" y="369" on="1"/>
        <pt x="179" y="369" on="0"/>
        <pt x="208" y="402" on="0"/>
        <pt x="208" y="449" on="1"/>
        <pt x="208" y="630" on="1"/>
        <pt x="208" y="677" on="0"/>
        <pt x="223" y="738" on="0"/>
        <pt x="262" y="773" on="0"/>
        <pt x="328" y="787" on="0"/>
        <pt x="379" y="787" on="1"/>
        <pt x="379" y="717" on="1"/>
        <pt x="353" y="717" on="0"/>
        <pt x="320" y="711" on="0"/>
        <pt x="300" y="695" on="0"/>
        <pt x="293" y="667" on="0"/>
        <pt x="293" y="644" on="1"/>
        <pt x="293" y="449" on="1"/>
        <pt x="293" y="398" on="0"/>
        <pt x="265" y="344" on="0"/>
        <pt x="235" y="334" on="1"/>
        <pt x="266" y="323" on="0"/>
        <pt x="293" y="270" on="0"/>
        <pt x="293" y="219" on="1"/>
        <pt x="293" y="40" on="1"/>
        <pt x="293" y="12" on="0"/>
        <pt x="299" y="-23" on="0"/>
        <pt x="317" y="-42" on="0"/>
        <pt x="351" y="-49" on="0"/>
        <pt x="379" y="-49" on="1"/>
        <pt x="379" y="-119" on="1"/>
        <pt x="329" y="-119" on="0"/>
        <pt x="263" y="-104" on="0"/>
        <pt x="224" y="-67" on="0"/>
        <pt x="208" y="-5" on="0"/>
        <pt x="208" y="43" on="1"/>
      </contour>
    </TTGlyph>
    <TTGlyph name="braceright" xMin="140" yMin="-119" xMax="401" yMax="787">
      <contour>
        <pt x="311" y="43" on="1"/>
        <pt x="311" y="-5" on="0"/>
        <pt x="295" y="-67" on="0"/>
        <pt x="256" y="-104" on="0"/>
        <pt x="190" y="-119" on="0"/>
        <pt x="140" y="-119" on="1"/>
        <pt x="140" y="-49" on="1"/>
        <pt x="168" y="-49" on="0"/>
        <pt x="202" y="-42" on="0"/>
        <pt x="220" y="-23" on="0"/>
        <pt x="226" y="12" on="0"/>
        <pt x="226" y="40" on="1"/>
        <pt x="226" y="219" on="1"/>
        <pt x="226" y="270" on="0"/>
        <pt x="253" y="323" on="0"/>
        <pt x="284" y="334" on="1"/>
        <pt x="254" y="344" on="0"/>
        <pt x="226" y="398" on="0"/>
        <pt x="226" y="449" on="1"/>
        <pt x="226" y="644" on="1"/>
        <pt x="226" y="667" on="0"/>
        <pt x="219" y="695" on="0"/>
        <pt x="199" y="711" on="0"/>
        <pt x="166" y="717" on="0"/>
        <pt x="140" y="717" on="1"/>
        <pt x="140" y="787" on="1"/>
        <pt x="191" y="787" on="0"/>
        <pt x="257" y="773" on="0"/>
        <pt x="296" y="738" on="0"/>
        <pt x="311" y="677" on="0"/>
        <pt x="311" y="630" on="1"/>
        <pt x="311" y="449" on="1"/>
        <pt x="311" y="402" on="0"/>
        <pt x="340" y="369" on="0"/>
        <pt x="376" y="369" on="1"/>
        <pt x="401" y="369" on="1"/>
        <pt x="401" y="299" on="1"/>
        <pt x="376" y="299" on="1"/>
        <pt x="340" y="299" on="0"/>
        <pt x="311" y="265" on="0"/>
        <pt x="311" y="219" on="1"/>
      </contour>
    </TTGlyph>
    <TTGlyph name="bracketleft" xMin="157" yMin="-116" xMax="362" yMax="784">
      <contour>
        <pt x="157" y="-116" on="1"/>
        <pt x="157" y="784" on="1"/>
        <pt x="362" y="784" on="1"/>
        <pt x="362" y="714" on="1"/>
        <pt x="242" y="714" on="1"/>
        <pt x="242" y="-46" on="1"/>
        <pt x="362" y="-46" on="1"/>
        <pt x="362" y="-116" on="1"/>
      </contour>
    </TTGlyph>
    <TTGlyph name="bracketright" xMin="157" yMin="-116" xMax="362" yMax="784">
      <contour>
        <pt x="157" y="-116" on="1"/>
        <pt x="157" y="-46" on="1"/>
        <pt x="277" y="-46" on="1"/>
        <pt x="277" y="714" on="1"/>
        <pt x="157" y="714" on="1"/>
        <pt x="157" y="784" on="1"/>
        <pt x="362" y="784" on="1"/>
        <pt x="362" y="-116" on="1"/>
      </contour>
    </TTGlyph>
    <TTGlyph name="brokenbar" xMin="217" yMin="-115" xMax="302" yMax="801">
      <contour>
        <pt x="217" y="408" on="1"/>
        <pt x="217" y="801" on="1"/>
        <pt x="302" y="801" on="1"/>
        <pt x="302" y="408" on="1"/>
      </contour>
      <contour>
        <pt x="217" y="-115" on="1"/>
        <pt x="217" y="278" on="1"/>
        <pt x="302" y="278" on="1"/>
        <pt x="302" y="-115" on="1"/>
      </contour>
    </TTGlyph>
    <TTGlyph name="bullet" xMin="55" yMin="200" xMax="180" yMax="335">
      <contour>
        <pt x="180" y="251" on="1"/>
        <pt x="180" y="226" on="0"/>
        <pt x="147" y="200" on="0"/>
        <pt x="117" y="200" on="1"/>
        <pt x="88" y="200" on="0"/>
        <pt x="55" y="226" on="0"/>
        <pt x="55" y="251" on="1"/>
        <pt x="55" y="284" on="1"/>
        <pt x="55" y="309" on="0"/>
        <pt x="88" y="335" on="0"/>
        <pt x="117" y="335" on="1"/>
        <pt x="147" y="335" on="0"/>
        <pt x="180" y="309" on="0"/>
        <pt x="180" y="284" on="1"/>
      </contour>
    </TTGlyph>
    <TTGlyph name="c" xMin="70" yMin="-12" xMax="349" yMax="500">
      <contour>
        <pt x="251" y="-12" on="1"/>
        <pt x="157" y="-12" on="0"/>
        <pt x="70" y="81" on="0"/>
        <pt x="70" y="170" on="1"/>
        <pt x="70" y="318" on="1"/>
        <pt x="70" y="406" on="0"/>
        <pt x="157" y="500" on="0"/>
        <pt x="251" y="500" on="1"/>
        <pt x="277" y="500" on="0"/>
        <pt x="316" y="495" on="0"/>
        <pt x="349" y="490" on="1"/>
        <pt x="347" y="415" on="1"/>
        <pt x="321" y="420" on="0"/>
        <pt x="280" y="425" on="0"/>
        <pt x="251" y="425" on="1"/>
        <pt x="203" y="425" on="0"/>
        <pt x="155" y="373" on="0"/>
        <pt x="155" y="325" on="1"/>
        <pt x="155" y="164" on="1"/>
        <pt x="155" y="113" on="0"/>
        <pt x="206" y="63" on="0"/>
        <pt x="251" y="63" on="1"/>
        <pt x="280" y="63" on="0"/>
        <pt x="321" y="68" on="0"/>
        <pt x="347" y="73" on="1"/>
        <pt x="349" y="-2" on="1"/>
        <pt x="316" y="-7" on="0"/>
        <pt x="277" y="-12" on="0"/>
      </contour>
    </TTGlyph>
    <TTGlyph name="caron" xMin="100" yMin="546" xMax="360" yMax="690">
      <contour>
        <pt x="230" y="625" on="1"/>
        <pt x="360" y="690" on="1"/>
        <pt x="360" y="620" on="1"/>
        <pt x="230" y="546" on="1"/>
        <pt x="100" y="620" on="1"/>
        <pt x="100" y="690" on="1"/>
      </contour>
    </TTGlyph>
    <TTGlyph name="caron.cap" xMin="90" yMin="712" xMax="370" yMax="841">
      <contour>
        <pt x="230" y="792" on="1"/>
        <pt x="370" y="841" on="1"/>
        <pt x="370" y="773" on="1"/>
        <pt x="230" y="712" on="1"/>
        <pt x="90" y="773" on="1"/>
        <pt x="90" y="841" on="1"/>
      </contour>
    </TTGlyph>
    <TTGlyph name="ccedilla" xMin="70" yMin="-197" xMax="349" yMax="500">
      <contour>
        <pt x="304" y="-120" on="1"/>
        <pt x="304" y="-197" on="0"/>
        <pt x="209" y="-197" on="1"/>
        <pt x="197" y="-197" on="0"/>
        <pt x="174" y="-194" on="0"/>
        <pt x="160" y="-192" on="1"/>
        <pt x="160" y="-139" on="1"/>
        <pt x="171" y="-141" on="0"/>
        <pt x="188" y="-143" on="0"/>
        <pt x="196" y="-143" on="1"/>
        <pt x="218" y="-143" on="0"/>
        <pt x="237" y="-130" on="0"/>
        <pt x="237" y="-119" on="1"/>
        <pt x="237" y="-106" on="1"/>
        <pt x="236" y="-91" on="0"/>
        <pt x="220" y="-80" on="0"/>
        <pt x="203" y="-80" on="1"/>
        <pt x="173" y="-80" on="1"/>
        <pt x="173" y="-59" on="1"/>
        <pt x="189" y="-5" on="1"/>
        <pt x="128" y="9" on="0"/>
        <pt x="70" y="97" on="0"/>
        <pt x="70" y="170" on="1"/>
        <pt x="70" y="318" on="1"/>
        <pt x="70" y="406" on="0"/>
        <pt x="157" y="500" on="0"/>
        <pt x="251" y="500" on="1"/>
        <pt x="277" y="500" on="0"/>
        <pt x="316" y="495" on="0"/>
        <pt x="349" y="490" on="1"/>
        <pt x="347" y="415" on="1"/>
        <pt x="321" y="420" on="0"/>
        <pt x="280" y="425" on="0"/>
        <pt x="251" y="425" on="1"/>
        <pt x="203" y="425" on="0"/>
        <pt x="155" y="373" on="0"/>
        <pt x="155" y="325" on="1"/>
        <pt x="155" y="164" on="1"/>
        <pt x="155" y="113" on="0"/>
        <pt x="206" y="63" on="0"/>
        <pt x="251" y="63" on="1"/>
        <pt x="280" y="63" on="0"/>
        <pt x="321" y="68" on="0"/>
        <pt x="347" y="73" on="1"/>
        <pt x="349" y="-2" on="1"/>
        <pt x="316" y="-7" on="0"/>
        <pt x="277" y="-12" on="0"/>
        <pt x="251" y="-12" on="1"/>
        <pt x="242" y="-41" on="1"/>
        <pt x="252" y="-41" on="1"/>
        <pt x="273" y="-41" on="0"/>
        <pt x="304" y="-76" on="0"/>
        <pt x="304" y="-105" on="1"/>
      </contour>
    </TTGlyph>
    <TTGlyph name="cedilla" xMin="46" yMin="-197" xMax="190" yMax="28">
      <contour>
        <pt x="190" y="-120" on="1"/>
        <pt x="190" y="-197" on="0"/>
        <pt x="95" y="-197" on="1"/>
        <pt x="83" y="-197" on="0"/>
        <pt x="60" y="-194" on="0"/>
        <pt x="46" y="-192" on="1"/>
        <pt x="46" y="-139" on="1"/>
        <pt x="57" y="-141" on="0"/>
        <pt x="74" y="-143" on="0"/>
        <pt x="82" y="-143" on="1"/>
        <pt x="104" y="-143" on="0"/>
        <pt x="123" y="-130" on="0"/>
        <pt x="123" y="-119" on="1"/>
        <pt x="123" y="-106" on="1"/>
        <pt x="122" y="-91" on="0"/>
        <pt x="106" y="-80" on="0"/>
        <pt x="89" y="-80" on="1"/>
        <pt x="59" y="-80" on="1"/>
        <pt x="59" y="-59" on="1"/>
        <pt x="86" y="28" on="1"/>
        <pt x="149" y="28" on="1"/>
        <pt x="128" y="-41" on="1"/>
        <pt x="138" y="-41" on="1"/>
        <pt x="159" y="-41" on="0"/>
        <pt x="190" y="-76" on="0"/>
        <pt x="190" y="-105" on="1"/>
      </contour>
    </TTGlyph>
    <TTGlyph name="cent" xMin="120" yMin="-88" xMax="399" yMax="576">
      <contour>
        <pt x="250" y="-88" on="1"/>
        <pt x="250" y="-7" on="1"/>
        <pt x="183" y="4" on="0"/>
        <pt x="120" y="94" on="0"/>
        <pt x="120" y="170" on="1"/>
        <pt x="120" y="318" on="1"/>
        <pt x="120" y="393" on="0"/>
        <pt x="183" y="483" on="0"/>
        <pt x="250" y="495" on="1"/>
        <pt x="250" y="576" on="1"/>
        <pt x="325" y="576" on="1"/>
        <pt x="325" y="499" on="1"/>
        <pt x="342" y="498" on="0"/>
        <pt x="374" y="494" on="0"/>
        <pt x="399" y="490" on="1"/>
        <pt x="397" y="415" on="1"/>
        <pt x="371" y="420" on="0"/>
        <pt x="330" y="425" on="0"/>
        <pt x="301" y="425" on="1"/>
        <pt x="253" y="425" on="0"/>
        <pt x="205" y="373" on="0"/>
        <pt x="205" y="325" on="1"/>
        <pt x="205" y="164" on="1"/>
        <pt x="205" y="113" on="0"/>
        <pt x="256" y="63" on="0"/>
        <pt x="301" y="63" on="1"/>
        <pt x="330" y="63" on="0"/>
        <pt x="371" y="68" on="0"/>
        <pt x="397" y="73" on="1"/>
        <pt x="399" y="-2" on="1"/>
        <pt x="374" y="-6" on="0"/>
        <pt x="342" y="-10" on="0"/>
        <pt x="325" y="-11" on="1"/>
        <pt x="325" y="-88" on="1"/>
      </contour>
    </TTGlyph>
    <TTGlyph name="circumflex" xMin="100" yMin="546" xMax="360" yMax="690">
      <contour>
        <pt x="100" y="546" on="1"/>
        <pt x="100" y="616" on="1"/>
        <pt x="230" y="690" on="1"/>
        <pt x="360" y="616" on="1"/>
        <pt x="360" y="546" on="1"/>
        <pt x="230" y="611" on="1"/>
      </contour>
    </TTGlyph>
    <TTGlyph name="circumflex.cap" xMin="90" yMin="711" xMax="370" yMax="840">
      <contour>
        <pt x="90" y="711" on="1"/>
        <pt x="90" y="779" on="1"/>
        <pt x="230" y="840" on="1"/>
        <pt x="370" y="779" on="1"/>
        <pt x="370" y="711" on="1"/>
        <pt x="230" y="760" on="1"/>
      </contour>
    </TTGlyph>
    <TTGlyph name="colon" xMin="55" yMin="-12" xMax="166" yMax="500">
      <component glyphName="period" x="0" y="0" flags="0x204"/>
      <component glyphName="period" x="0" y="392" flags="0x4"/>
    </TTGlyph>
    <TTGlyph name="comma" xMin="55" yMin="-161" xMax="165" yMax="108">
      <contour>
        <pt x="165" y="32" on="1"/>
        <pt x="165" y="3" on="0"/>
        <pt x="158" y="-19" on="1"/>
        <pt x="115" y="-161" on="1"/>
        <pt x="55" y="-161" on="1"/>
        <pt x="91" y="-9" on="1"/>
        <pt x="56" y="-1" on="0"/>
        <pt x="56" y="34" on="1"/>
        <pt x="56" y="63" on="1"/>
        <pt x="56" y="108" on="0"/>
        <pt x="110" y="108" on="1"/>
        <pt x="165" y="108" on="0"/>
        <pt x="165" y="63" on="1"/>
      </contour>
    </TTGlyph>
    <TTGlyph name="commaaccent" xMin="88" yMin="-88" xMax="181" yMax="87">
      <contour>
        <pt x="181" y="25" on="1"/>
        <pt x="181" y="11" on="0"/>
        <pt x="177" y="-10" on="0"/>
        <pt x="173" y="-22" on="1"/>
        <pt x="151" y="-88" on="1"/>
        <pt x="100" y="-88" on="1"/>
        <pt x="117" y="-12" on="1"/>
        <pt x="101" y="-7" on="0"/>
        <pt x="88" y="10" on="0"/>
        <pt x="88" y="26" on="1"/>
        <pt x="88" y="51" on="1"/>
        <pt x="88" y="67" on="0"/>
        <pt x="112" y="87" on="0"/>
        <pt x="132" y="87" on="1"/>
        <pt x="158" y="87" on="0"/>
        <pt x="181" y="67" on="0"/>
        <pt x="181" y="51" on="1"/>
      </contour>
    </TTGlyph>
    <TTGlyph name="copyright" xMin="70" yMin="-15" xMax="576" yMax="616">
      <contour>
        <pt x="505" y="416" on="1"/>
        <pt x="505" y="476" on="0"/>
        <pt x="411" y="550" on="0"/>
        <pt x="323" y="550" on="1"/>
        <pt x="235" y="550" on="0"/>
        <pt x="141" y="475" on="0"/>
        <pt x="141" y="415" on="1"/>
        <pt x="141" y="186" on="1"/>
        <pt x="141" y="126" on="0"/>
        <pt x="235" y="51" on="0"/>
        <pt x="323" y="51" on="1"/>
        <pt x="411" y="51" on="0"/>
        <pt x="505" y="126" on="0"/>
        <pt x="505" y="186" on="1"/>
      </contour>
      <contour>
        <pt x="576" y="197" on="1"/>
        <pt x="576" y="151" on="0"/>
        <pt x="548" y="74" on="0"/>
        <pt x="486" y="17" on="0"/>
        <pt x="390" y="-15" on="0"/>
        <pt x="323" y="-15" on="1"/>
        <pt x="255" y="-15" on="0"/>
        <pt x="160" y="17" on="0"/>
        <pt x="98" y="74" on="0"/>
        <pt x="70" y="151" on="0"/>
        <pt x="70" y="197" on="1"/>
        <pt x="70" y="404" on="1"/>
        <pt x="70" y="450" on="0"/>
        <pt x="98" y="527" on="0"/>
        <pt x="160" y="584" on="0"/>
        <pt x="255" y="616" on="0"/>
        <pt x="323" y="616" on="1"/>
        <pt x="390" y="616" on="0"/>
        <pt x="486" y="584" on="0"/>
        <pt x="548" y="527" on="0"/>
        <pt x="576" y="450" on="0"/>
        <pt x="576" y="404" on="1"/>
      </contour>
      <contour>
        <pt x="337" y="129" on="1"/>
        <pt x="199" y="129" on="0"/>
        <pt x="199" y="277" on="1"/>
        <pt x="199" y="333" on="1"/>
        <pt x="199" y="405" on="0"/>
        <pt x="268" y="480" on="0"/>
        <pt x="337" y="480" on="1"/>
        <pt x="356" y="480" on="0"/>
        <pt x="397" y="476" on="0"/>
        <pt x="415" y="473" on="1"/>
        <pt x="413" y="407" on="1"/>
        <pt x="394" y="409" on="0"/>
        <pt x="359" y="412" on="0"/>
        <pt x="337" y="412" on="1"/>
        <pt x="311" y="412" on="0"/>
        <pt x="280" y="375" on="0"/>
        <pt x="280" y="333" on="1"/>
        <pt x="280" y="278" on="1"/>
        <pt x="280" y="237" on="0"/>
        <pt x="311" y="197" on="0"/>
        <pt x="337" y="197" on="1"/>
        <pt x="359" y="197" on="0"/>
        <pt x="394" y="200" on="0"/>
        <pt x="413" y="202" on="1"/>
        <pt x="415" y="136" on="1"/>
        <pt x="389" y="132" on="0"/>
        <pt x="356" y="129" on="0"/>
      </contour>
    </TTGlyph>
    <TTGlyph name="currency" xMin="45" yMin="93" xMax="475" yMax="523">
      <contour>
        <pt x="419" y="93" on="1"/>
        <pt x="357" y="156" on="1"/>
        <pt x="316" y="132" on="0"/>
        <pt x="258" y="132" on="1"/>
        <pt x="201" y="132" on="0"/>
        <pt x="161" y="154" on="1"/>
        <pt x="101" y="93" on="1"/>
        <pt x="45" y="149" on="1"/>
        <pt x="107" y="210" on="1"/>
        <pt x="96" y="230" on="0"/>
        <pt x="84" y="274" on="0"/>
        <pt x="84" y="303" on="1"/>
        <pt x="84" y="323" on="1"/>
        <pt x="84" y="349" on="0"/>
        <pt x="93" y="390" on="0"/>
        <pt x="103" y="410" on="1"/>
        <pt x="45" y="467" on="1"/>
        <pt x="101" y="523" on="1"/>
        <pt x="155" y="468" on="1"/>
        <pt x="198" y="494" on="0"/>
        <pt x="258" y="494" on="1"/>
        <pt x="319" y="494" on="0"/>
        <pt x="363" y="466" on="1"/>
        <pt x="419" y="523" on="1"/>
        <pt x="475" y="467" on="1"/>
        <pt x="414" y="407" on="1"/>
        <pt x="431" y="372" on="0"/>
        <pt x="431" y="323" on="1"/>
        <pt x="431" y="303" on="1"/>
        <pt x="431" y="275" on="0"/>
        <pt x="421" y="233" on="0"/>
        <pt x="410" y="213" on="1"/>
        <pt x="475" y="149" on="1"/>
      </contour>
      <contour>
        <pt x="349" y="323" on="1"/>
        <pt x="349" y="364" on="0"/>
        <pt x="308" y="421" on="0"/>
        <pt x="258" y="421" on="1"/>
        <pt x="208" y="421" on="0"/>
        <pt x="166" y="365" on="0"/>
        <pt x="166" y="323" on="1"/>
        <pt x="166" y="303" on="1"/>
        <pt x="166" y="261" on="0"/>
        <pt x="208" y="204" on="0"/>
        <pt x="258" y="204" on="1"/>
        <pt x="308" y="204" on="0"/>
        <pt x="349" y="261" on="0"/>
        <pt x="349" y="303" on="1"/>
      </contour>
    </TTGlyph>
    <TTGlyph name="d" xMin="70" yMin="-12" xMax="416" yMax="683">
      <contour>
        <pt x="70" y="333" on="1"/>
        <pt x="70" y="411" on="0"/>
        <pt x="142" y="500" on="0"/>
        <pt x="211" y="500" on="1"/>
        <pt x="243" y="500" on="0"/>
        <pt x="308" y="467" on="0"/>
        <pt x="331" y="450" on="1"/>
        <pt x="331" y="683" on="1"/>
        <pt x="416" y="683" on="1"/>
        <pt x="416" y="0" on="1"/>
        <pt x="335" y="0" on="1"/>
        <pt x="335" y="79" on="1"/>
        <pt x="306" y="34" on="0"/>
        <pt x="237" y="-12" on="0"/>
        <pt x="198" y="-12" on="1"/>
        <pt x="136" y="-12" on="0"/>
        <pt x="70" y="72" on="0"/>
        <pt x="70" y="155" on="1"/>
      </contour>
      <contour>
        <pt x="218" y="64" on="1"/>
        <pt x="247" y="64" on="0"/>
        <pt x="307" y="110" on="0"/>
        <pt x="331" y="154" on="1"/>
        <pt x="331" y="374" on="1"/>
        <pt x="310" y="396" on="0"/>
        <pt x="253" y="424" on="0"/>
        <pt x="230" y="424" on="1"/>
        <pt x="195" y="424" on="0"/>
        <pt x="155" y="375" on="0"/>
        <pt x="155" y="321" on="1"/>
        <pt x="155" y="166" on="1"/>
        <pt x="155" y="109" on="0"/>
        <pt x="190" y="64" on="0"/>
      </contour>
    </TTGlyph>
    <TTGlyph name="degree" xMin="77" yMin="327" xMax="408" yMax="695">
      <contour>
        <pt x="408" y="500" on="1"/>
        <pt x="408" y="415" on="0"/>
        <pt x="326" y="327" on="0"/>
        <pt x="243" y="327" on="1"/>
        <pt x="160" y="327" on="0"/>
        <pt x="77" y="415" on="0"/>
        <pt x="77" y="500" on="1"/>
        <pt x="77" y="522" on="1"/>
        <pt x="77" y="607" on="0"/>
        <pt x="160" y="695" on="0"/>
        <pt x="243" y="695" on="1"/>
        <pt x="326" y="695" on="0"/>
        <pt x="408" y="607" on="0"/>
        <pt x="408" y="522" on="1"/>
      </contour>
      <contour>
        <pt x="327" y="522" on="1"/>
        <pt x="327" y="575" on="0"/>
        <pt x="284" y="624" on="0"/>
        <pt x="243" y="624" on="1"/>
        <pt x="202" y="624" on="0"/>
        <pt x="158" y="575" on="0"/>
        <pt x="158" y="522" on="1"/>
        <pt x="158" y="500" on="1"/>
        <pt x="158" y="447" on="0"/>
        <pt x="202" y="398" on="0"/>
        <pt x="243" y="398" on="1"/>
        <pt x="283" y="398" on="0"/>
        <pt x="327" y="447" on="0"/>
        <pt x="327" y="500" on="1"/>
      </contour>
    </TTGlyph>
    <TTGlyph name="dieresis" xMin="75" yMin="577" xMax="356" yMax="695">
      <contour>
        <pt x="184" y="621" on="1"/>
        <pt x="184" y="577" on="0"/>
        <pt x="129" y="577" on="1"/>
        <pt x="103" y="577" on="0"/>
        <pt x="75" y="600" on="0"/>
        <pt x="75" y="621" on="1"/>
        <pt x="75" y="650" on="1"/>
        <pt x="75" y="673" on="0"/>
        <pt x="103" y="695" on="0"/>
        <pt x="129" y="695" on="1"/>
        <pt x="184" y="695" on="0"/>
        <pt x="184" y="650" on="1"/>
      </contour>
      <contour>
        <pt x="356" y="621" on="1"/>
        <pt x="356" y="577" on="0"/>
        <pt x="301" y="577" on="1"/>
        <pt x="247" y="577" on="0"/>
        <pt x="247" y="621" on="1"/>
        <pt x="247" y="650" on="1"/>
        <pt x="247" y="695" on="0"/>
        <pt x="301" y="695" on="1"/>
        <pt x="356" y="695" on="0"/>
        <pt x="356" y="650" on="1"/>
      </contour>
    </TTGlyph>
    <TTGlyph name="dieresis.cap" xMin="75" yMin="710" xMax="356" yMax="828">
      <contour>
        <pt x="184" y="754" on="1"/>
        <pt x="184" y="710" on="0"/>
        <pt x="129" y="710" on="1"/>
        <pt x="103" y="710" on="0"/>
        <pt x="75" y="733" on="0"/>
        <pt x="75" y="754" on="1"/>
        <pt x="75" y="783" on="1"/>
        <pt x="75" y="806" on="0"/>
        <pt x="103" y="828" on="0"/>
        <pt x="129" y="828" on="1"/>
        <pt x="184" y="828" on="0"/>
        <pt x="184" y="783" on="1"/>
      </contour>
      <contour>
        <pt x="356" y="754" on="1"/>
        <pt x="356" y="710" on="0"/>
        <pt x="301" y="710" on="1"/>
        <pt x="247" y="710" on="0"/>
        <pt x="247" y="754" on="1"/>
        <pt x="247" y="783" on="1"/>
        <pt x="247" y="828" on="0"/>
        <pt x="301" y="828" on="1"/>
        <pt x="356" y="828" on="0"/>
        <pt x="356" y="783" on="1"/>
      </contour>
    </TTGlyph>
    <TTGlyph name="divide" xMin="83" yMin="111" xMax="437" yMax="489">
      <contour>
        <pt x="83" y="265" on="1"/>
        <pt x="83" y="335" on="1"/>
        <pt x="437" y="335" on="1"/>
        <pt x="437" y="265" on="1"/>
      </contour>
      <contour>
        <pt x="309" y="154" on="1"/>
        <pt x="309" y="134" on="0"/>
        <pt x="285" y="111" on="0"/>
        <pt x="260" y="111" on="1"/>
        <pt x="236" y="111" on="0"/>
        <pt x="212" y="134" on="0"/>
        <pt x="212" y="154" on="1"/>
        <pt x="212" y="171" on="1"/>
        <pt x="212" y="191" on="0"/>
        <pt x="236" y="215" on="0"/>
        <pt x="260" y="215" on="1"/>
        <pt x="285" y="215" on="0"/>
        <pt x="309" y="191" on="0"/>
        <pt x="309" y="171" on="1"/>
      </contour>
      <contour>
        <pt x="309" y="428" on="1"/>
        <pt x="309" y="408" on="0"/>
        <pt x="285" y="385" on="0"/>
        <pt x="260" y="385" on="1"/>
        <pt x="236" y="385" on="0"/>
        <pt x="212" y="408" on="0"/>
        <pt x="212" y="428" on="1"/>
        <pt x="212" y="445" on="1"/>
        <pt x="212" y="465" on="0"/>
        <pt x="236" y="489" on="0"/>
        <pt x="260" y="489" on="1"/>
        <pt x="285" y="489" on="0"/>
        <pt x="309" y="465" on="0"/>
        <pt x="309" y="445" on="1"/>
      </contour>
    </TTGlyph>
    <TTGlyph name="dollar" xMin="74" yMin="-94" xMax="445" yMax="695">
      <contour>
        <pt x="226" y="-94" on="1"/>
        <pt x="226" y="-12" on="1"/>
        <pt x="194" y="-11" on="0"/>
        <pt x="131" y="-1" on="0"/>
        <pt x="99" y="5" on="1"/>
        <pt x="101" y="78" on="1"/>
        <pt x="138" y="70" on="0"/>
        <pt x="200" y="61" on="0"/>
        <pt x="232" y="61" on="1"/>
        <pt x="304" y="61" on="0"/>
        <pt x="360" y="105" on="0"/>
        <pt x="360" y="147" on="1"/>
        <pt x="360" y="167" on="1"/>
        <pt x="360" y="183" on="0"/>
        <pt x="353" y="207" on="0"/>
        <pt x="334" y="225" on="0"/>
        <pt x="300" y="241" on="0"/>
        <pt x="273" y="249" on="1"/>
        <pt x="211" y="268" on="1"/>
        <pt x="171" y="280" on="0"/>
        <pt x="118" y="307" on="0"/>
        <pt x="87" y="346" on="0"/>
        <pt x="74" y="401" on="0"/>
        <pt x="74" y="441" on="1"/>
        <pt x="74" y="446" on="1"/>
        <pt x="74" y="519" on="0"/>
        <pt x="144" y="601" on="0"/>
        <pt x="226" y="610" on="1"/>
        <pt x="226" y="695" on="1"/>
        <pt x="301" y="695" on="1"/>
        <pt x="301" y="612" on="1"/>
        <pt x="328" y="610" on="0"/>
        <pt x="383" y="603" on="0"/>
        <pt x="410" y="599" on="1"/>
        <pt x="408" y="526" on="1"/>
        <pt x="380" y="531" on="0"/>
        <pt x="312" y="540" on="0"/>
        <pt x="277" y="540" on="1"/>
        <pt x="211" y="540" on="0"/>
        <pt x="159" y="496" on="0"/>
        <pt x="159" y="454" on="1"/>
        <pt x="159" y="434" on="1"/>
        <pt x="159" y="416" on="0"/>
        <pt x="164" y="391" on="0"/>
        <pt x="180" y="371" on="0"/>
        <pt x="210" y="356" on="0"/>
        <pt x="235" y="349" on="1"/>
        <pt x="298" y="330" on="1"/>
        <pt x="341" y="317" on="0"/>
        <pt x="397" y="288" on="0"/>
        <pt x="431" y="249" on="0"/>
        <pt x="445" y="197" on="0"/>
        <pt x="445" y="160" on="1"/>
        <pt x="445" y="155" on="1"/>
        <pt x="445" y="88" on="0"/>
        <pt x="381" y="4" on="0"/>
        <pt x="301" y="-7" on="1"/>
        <pt x="301" y="-94" on="1"/>
      </contour>
    </TTGlyph>
    <TTGlyph name="dotaccentcmb" xMin="70" yMin="709" xMax="181" yMax="829">
      <contour>
        <pt x="181" y="754" on="1"/>
        <pt x="181" y="709" on="0"/>
        <pt x="125" y="709" on="1"/>
        <pt x="70" y="709" on="0"/>
        <pt x="70" y="754" on="1"/>
        <pt x="70" y="783" on="1"/>
        <pt x="70" y="829" on="0"/>
        <pt x="125" y="829" on="1"/>
        <pt x="181" y="829" on="0"/>
        <pt x="181" y="783" on="1"/>
      </contour>
    </TTGlyph>
    <TTGlyph name="dotaccentcmb.cap" xMin="70" yMin="709" xMax="181" yMax="829">
      <contour>
        <pt x="181" y="754" on="1"/>
        <pt x="181" y="709" on="0"/>
        <pt x="125" y="709" on="1"/>
        <pt x="70" y="709" on="0"/>
        <pt x="70" y="754" on="1"/>
        <pt x="70" y="783" on="1"/>
        <pt x="70" y="829" on="0"/>
        <pt x="125" y="829" on="1"/>
        <pt x="181" y="829" on="0"/>
        <pt x="181" y="783" on="1"/>
      </contour>
    </TTGlyph>
    <TTGlyph name="dotlessi" xMin="80" yMin="0" xMax="165" yMax="488">
      <contour>
        <pt x="80" y="0" on="1"/>
        <pt x="80" y="488" on="1"/>
        <pt x="165" y="488" on="1"/>
        <pt x="165" y="0" on="1"/>
      </contour>
    </TTGlyph>
    <TTGlyph name="dotlessj" xMin="-53" yMin="-197" xMax="160" yMax="488">
      <contour>
        <pt x="75" y="488" on="1"/>
        <pt x="160" y="488" on="1"/>
        <pt x="160" y="-48" on="1"/>
        <pt x="160" y="-123" on="0"/>
        <pt x="87" y="-197" on="0"/>
        <pt x="7" y="-197" on="1"/>
        <pt x="-10" y="-197" on="0"/>
        <pt x="-46" y="-193" on="0"/>
        <pt x="-53" y="-191" on="1"/>
        <pt x="-53" y="-120" on="1"/>
        <pt x="-45" y="-121" on="0"/>
        <pt x="-8" y="-124" on="0"/>
        <pt x="11" y="-124" on="1"/>
        <pt x="75" y="-124" on="0"/>
        <pt x="75" y="-53" on="1"/>
      </contour>
    </TTGlyph>
    <TTGlyph name="e" xMin="70" yMin="-12" xMax="412" yMax="500">
      <contour>
        <pt x="70" y="321" on="1"/>
        <pt x="70" y="408" on="0"/>
        <pt x="153" y="500" on="0"/>
        <pt x="240" y="500" on="1"/>
        <pt x="325" y="500" on="0"/>
        <pt x="412" y="409" on="0"/>
        <pt x="412" y="321" on="1"/>
        <pt x="412" y="218" on="1"/>
        <pt x="155" y="218" on="1"/>
        <pt x="155" y="159" on="1"/>
        <pt x="155" y="108" on="0"/>
        <pt x="203" y="63" on="0"/>
        <pt x="256" y="63" on="1"/>
        <pt x="272" y="63" on="0"/>
        <pt x="310" y="67" on="0"/>
        <pt x="349" y="72" on="0"/>
        <pt x="384" y="78" on="0"/>
        <pt x="397" y="81" on="1"/>
        <pt x="393" y="6" on="1"/>
        <pt x="360" y="0" on="0"/>
        <pt x="285" y="-12" on="0"/>
        <pt x="256" y="-12" on="1"/>
        <pt x="155" y="-12" on="0"/>
        <pt x="70" y="75" on="0"/>
        <pt x="70" y="164" on="1"/>
      </contour>
      <contour>
        <pt x="155" y="286" on="1"/>
        <pt x="327" y="286" on="1"/>
        <pt x="327" y="331" on="1"/>
        <pt x="327" y="381" on="0"/>
        <pt x="279" y="429" on="0"/>
        <pt x="240" y="429" on="1"/>
        <pt x="202" y="429" on="0"/>
        <pt x="155" y="381" on="0"/>
        <pt x="155" y="334" on="1"/>
      </contour>
    </TTGlyph>
    <TTGlyph name="eacute" xMin="70" yMin="-12" xMax="412" yMax="685">
      <component glyphName="e" x="0" y="0" flags="0x204"/>
      <component glyphName="acute" x="92" y="0" flags="0x4"/>
    </TTGlyph>
    <TTGlyph name="ecircumflex" xMin="70" yMin="-12" xMax="412" yMax="690">
      <component glyphName="e" x="0" y="0" flags="0x204"/>
      <component glyphName="circumflex" x="13" y="0" flags="0x4"/>
    </TTGlyph>
    <TTGlyph name="edieresis" xMin="70" yMin="-12" xMax="412" yMax="695">
      <component glyphName="e" x="0" y="0" flags="0x204"/>
      <component glyphName="dieresis" x="29" y="0" flags="0x4"/>
    </TTGlyph>
    <TTGlyph name="egrave" xMin="70" yMin="-12" xMax="412" yMax="685">
      <component glyphName="e" x="0" y="0" flags="0x204"/>
      <component glyphName="grave" x="48" y="0" flags="0x4"/>
    </TTGlyph>
    <TTGlyph name="eight" xMin="65" yMin="-12" xMax="455" yMax="613">
      <contour>
        <pt x="455" y="163" on="1"/>
        <pt x="455" y="81" on="0"/>
        <pt x="356" y="-12" on="0"/>
        <pt x="260" y="-12" on="1"/>
        <pt x="165" y="-12" on="0"/>
        <pt x="65" y="80" on="0"/>
        <pt x="65" y="163" on="1"/>
        <pt x="65" y="178" on="1"/>
        <pt x="65" y="282" on="0"/>
        <pt x="154" y="321" on="1"/>
        <pt x="122" y="340" on="0"/>
        <pt x="91" y="406" on="0"/>
        <pt x="91" y="450" on="1"/>
        <pt x="91" y="455" on="1"/>
        <pt x="91" y="531" on="0"/>
        <pt x="182" y="613" on="0"/>
        <pt x="260" y="613" on="1"/>
        <pt x="338" y="613" on="0"/>
        <pt x="429" y="532" on="0"/>
        <pt x="429" y="455" on="1"/>
        <pt x="429" y="450" on="1"/>
        <pt x="429" y="406" on="0"/>
        <pt x="398" y="340" on="0"/>
        <pt x="366" y="321" on="1"/>
        <pt x="409" y="301" on="0"/>
        <pt x="455" y="230" on="0"/>
        <pt x="455" y="178" on="1"/>
      </contour>
      <contour>
        <pt x="346" y="460" on="1"/>
        <pt x="346" y="505" on="0"/>
        <pt x="303" y="547" on="0"/>
        <pt x="260" y="547" on="1"/>
        <pt x="174" y="547" on="0"/>
        <pt x="174" y="460" on="1"/>
        <pt x="174" y="441" on="1"/>
        <pt x="174" y="394" on="0"/>
        <pt x="213" y="353" on="0"/>
        <pt x="260" y="353" on="1"/>
        <pt x="308" y="353" on="0"/>
        <pt x="346" y="394" on="0"/>
        <pt x="346" y="441" on="1"/>
      </contour>
      <contour>
        <pt x="370" y="180" on="1"/>
        <pt x="370" y="232" on="0"/>
        <pt x="311" y="287" on="0"/>
        <pt x="260" y="287" on="1"/>
        <pt x="208" y="287" on="0"/>
        <pt x="150" y="231" on="0"/>
        <pt x="150" y="180" on="1"/>
        <pt x="150" y="155" on="1"/>
        <pt x="150" y="112" on="0"/>
        <pt x="206" y="59" on="0"/>
        <pt x="260" y="59" on="1"/>
        <pt x="314" y="59" on="0"/>
        <pt x="370" y="112" on="0"/>
        <pt x="370" y="155" on="1"/>
      </contour>
    </TTGlyph>
    <TTGlyph name="emdash" xMin="65" yMin="263" xMax="645" yMax="328">
      <contour>
        <pt x="65" y="263" on="1"/>
        <pt x="65" y="328" on="1"/>
        <pt x="645" y="328" on="1"/>
        <pt x="645" y="263" on="1"/>
      </contour>
    </TTGlyph>
    <TTGlyph name="endash" xMin="65" yMin="263" xMax="545" yMax="328">
      <contour>
        <pt x="65" y="263" on="1"/>
        <pt x="65" y="328" on="1"/>
        <pt x="545" y="328" on="1"/>
        <pt x="545" y="263" on="1"/>
      </contour>
    </TTGlyph>
    <TTGlyph name="equal" xMin="83" yMin="180" xMax="437" yMax="421">
      <contour>
        <pt x="83" y="180" on="1"/>
        <pt x="83" y="250" on="1"/>
        <pt x="437" y="250" on="1"/>
        <pt x="437" y="180" on="1"/>
      </contour>
      <contour>
        <pt x="83" y="351" on="1"/>
        <pt x="83" y="421" on="1"/>
        <pt x="437" y="421" on="1"/>
        <pt x="437" y="351" on="1"/>
      </contour>
    </TTGlyph>
    <TTGlyph name="eth" xMin="75" yMin="-12" xMax="432" yMax="695">
      <contour>
        <pt x="115" y="695" on="1"/>
        <pt x="255" y="695" on="0"/>
        <pt x="333" y="616" on="1"/>
        <pt x="432" y="645" on="1"/>
        <pt x="432" y="579" on="1"/>
        <pt x="373" y="562" on="1"/>
        <pt x="396" y="520" on="0"/>
        <pt x="421" y="409" on="0"/>
        <pt x="421" y="340" on="1"/>
        <pt x="421" y="170" on="1"/>
        <pt x="421" y="82" on="0"/>
        <pt x="334" y="-12" on="0"/>
        <pt x="248" y="-12" on="1"/>
        <pt x="157" y="-12" on="0"/>
        <pt x="75" y="69" on="0"/>
        <pt x="75" y="157" on="1"/>
        <pt x="75" y="272" on="1"/>
        <pt x="75" y="356" on="0"/>
        <pt x="146" y="439" on="0"/>
        <pt x="208" y="439" on="1"/>
        <pt x="242" y="439" on="0"/>
        <pt x="307" y="402" on="0"/>
        <pt x="336" y="361" on="1"/>
        <pt x="336" y="386" on="1"/>
        <pt x="336" y="433" on="0"/>
        <pt x="314" y="509" on="0"/>
        <pt x="294" y="539" on="1"/>
        <pt x="177" y="505" on="1"/>
        <pt x="177" y="571" on="1"/>
        <pt x="245" y="591" on="1"/>
        <pt x="190" y="631" on="0"/>
        <pt x="115" y="631" on="1"/>
      </contour>
      <contour>
        <pt x="225" y="363" on="1"/>
        <pt x="196" y="363" on="0"/>
        <pt x="160" y="315" on="0"/>
        <pt x="160" y="260" on="1"/>
        <pt x="160" y="148" on="1"/>
        <pt x="160" y="59" on="0"/>
        <pt x="248" y="59" on="1"/>
        <pt x="336" y="59" on="0"/>
        <pt x="336" y="148" on="1"/>
        <pt x="336" y="281" on="1"/>
        <pt x="311" y="323" on="0"/>
        <pt x="252" y="363" on="0"/>
      </contour>
    </TTGlyph>
    <TTGlyph name="exclam" xMin="50" yMin="-12" xMax="161" yMax="695">
      <contour>
        <pt x="65" y="200" on="1"/>
        <pt x="58" y="695" on="1"/>
        <pt x="153" y="695" on="1"/>
        <pt x="146" y="200" on="1"/>
      </contour>
      <contour>
        <pt x="161" y="33" on="1"/>
        <pt x="161" y="-12" on="0"/>
        <pt x="105" y="-12" on="1"/>
        <pt x="50" y="-12" on="0"/>
        <pt x="50" y="33" on="1"/>
        <pt x="50" y="62" on="1"/>
        <pt x="50" y="108" on="0"/>
        <pt x="105" y="108" on="1"/>
        <pt x="161" y="108" on="0"/>
        <pt x="161" y="62" on="1"/>
      </contour>
    </TTGlyph>
    <TTGlyph name="exclamdown" xMin="50" yMin="-185" xMax="161" yMax="522">
      <component glyphName="exclam" x="0" y="510" scalex="1.0" scaley="-0.999938964844" flags="0x4"/>
    </TTGlyph>
    <TTGlyph name="f" xMin="35" yMin="0" xMax="318" yMax="695">
      <contour>
        <pt x="105" y="539" on="1"/>
        <pt x="106" y="618" on="0"/>
        <pt x="183" y="695" on="0"/>
        <pt x="255" y="695" on="1"/>
        <pt x="273" y="695" on="0"/>
        <pt x="308" y="690" on="0"/>
        <pt x="318" y="688" on="1"/>
        <pt x="318" y="620" on="1"/>
        <pt x="304" y="622" on="0"/>
        <pt x="274" y="625" on="0"/>
        <pt x="256" y="625" on="1"/>
        <pt x="227" y="625" on="0"/>
        <pt x="190" y="588" on="0"/>
        <pt x="190" y="552" on="1"/>
        <pt x="190" y="488" on="1"/>
        <pt x="280" y="488" on="1"/>
        <pt x="280" y="418" on="1"/>
        <pt x="190" y="418" on="1"/>
        <pt x="190" y="0" on="1"/>
        <pt x="105" y="0" on="1"/>
        <pt x="105" y="418" on="1"/>
        <pt x="35" y="418" on="1"/>
        <pt x="35" y="488" on="1"/>
        <pt x="105" y="488" on="1"/>
      </contour>
    </TTGlyph>
    <TTGlyph name="five" xMin="82" yMin="-12" xMax="438" yMax="604">
      <contour>
        <pt x="438" y="176" on="1"/>
        <pt x="438" y="83" on="0"/>
        <pt x="342" y="-12" on="0"/>
        <pt x="243" y="-12" on="1"/>
        <pt x="224" y="-12" on="0"/>
        <pt x="183" y="-8" on="0"/>
        <pt x="143" y="-2" on="0"/>
        <pt x="107" y="6" on="0"/>
        <pt x="92" y="10" on="1"/>
        <pt x="92" y="79" on="1"/>
        <pt x="105" y="76" on="0"/>
        <pt x="146" y="69" on="0"/>
        <pt x="189" y="64" on="0"/>
        <pt x="228" y="60" on="0"/>
        <pt x="241" y="60" on="1"/>
        <pt x="297" y="60" on="0"/>
        <pt x="353" y="119" on="0"/>
        <pt x="353" y="176" on="1"/>
        <pt x="353" y="215" on="1"/>
        <pt x="353" y="266" on="0"/>
        <pt x="314" y="311" on="0"/>
        <pt x="279" y="311" on="1"/>
        <pt x="239" y="311" on="0"/>
        <pt x="178" y="281" on="0"/>
        <pt x="147" y="246" on="1"/>
        <pt x="82" y="246" on="1"/>
        <pt x="82" y="604" on="1"/>
        <pt x="390" y="604" on="1"/>
        <pt x="390" y="531" on="1"/>
        <pt x="167" y="531" on="1"/>
        <pt x="167" y="338" on="1"/>
        <pt x="223" y="382" on="0"/>
        <pt x="300" y="382" on="1"/>
        <pt x="367" y="382" on="0"/>
        <pt x="438" y="304" on="0"/>
        <pt x="438" y="212" on="1"/>
      </contour>
    </TTGlyph>
    <TTGlyph name="foundryicon" xMin="144" yMin="0" xMax="720" yMax="576">
      <contour>
        <pt x="144" y="0" on="1"/>
        <pt x="144" y="576" on="1"/>
        <pt x="432" y="576" on="1"/>
        <pt x="432" y="288" on="1"/>
        <pt x="720" y="288" on="1"/>
        <pt x="720" y="0" on="1"/>
      </contour>
      <contour>
        <pt x="576" y="432" on="1"/>
        <pt x="576" y="576" on="1"/>
        <pt x="720" y="576" on="1"/>
        <pt x="720" y="432" on="1"/>
      </contour>
    </TTGlyph>
    <TTGlyph name="four" xMin="51" yMin="0" xMax="469" yMax="601">
      <contour>
        <pt x="265" y="601" on="1"/>
        <pt x="139" y="199" on="1"/>
        <pt x="313" y="199" on="1"/>
        <pt x="313" y="401" on="1"/>
        <pt x="395" y="401" on="1"/>
        <pt x="395" y="199" on="1"/>
        <pt x="469" y="199" on="1"/>
        <pt x="469" y="129" on="1"/>
        <pt x="395" y="129" on="1"/>
        <pt x="395" y="0" on="1"/>
        <pt x="312" y="0" on="1"/>
        <pt x="312" y="129" on="1"/>
        <pt x="73" y="129" on="1"/>
        <pt x="51" y="174" on="1"/>
        <pt x="188" y="601" on="1"/>
      </contour>
    </TTGlyph>
    <TTGlyph name="g" xMin="40" yMin="-197" xMax="461" yMax="500">
      <contour>
        <pt x="66" y="-102" on="1"/>
        <pt x="98" y="-113" on="0"/>
        <pt x="181" y="-126" on="0"/>
        <pt x="215" y="-126" on="1"/>
        <pt x="254" y="-126" on="0"/>
        <pt x="302" y="-119" on="0"/>
        <pt x="328" y="-104" on="0"/>
        <pt x="336" y="-79" on="0"/>
        <pt x="336" y="-60" on="1"/>
        <pt x="336" y="-51" on="1"/>
        <pt x="336" y="-4" on="0"/>
        <pt x="288" y="-1" on="1"/>
        <pt x="138" y="9" on="1"/>
        <pt x="90" y="12" on="0"/>
        <pt x="40" y="61" on="0"/>
        <pt x="40" y="101" on="1"/>
        <pt x="40" y="121" on="1"/>
        <pt x="40" y="167" on="0"/>
        <pt x="85" y="201" on="1"/>
        <pt x="68" y="221" on="0"/>
        <pt x="53" y="280" on="0"/>
        <pt x="53" y="322" on="1"/>
        <pt x="53" y="344" on="1"/>
        <pt x="53" y="413" on="0"/>
        <pt x="138" y="500" on="0"/>
        <pt x="225" y="500" on="1"/>
        <pt x="248" y="500" on="0"/>
        <pt x="288" y="493" on="0"/>
        <pt x="305" y="487" on="1"/>
        <pt x="461" y="489" on="1"/>
        <pt x="461" y="414" on="1"/>
        <pt x="376" y="417" on="1"/>
        <pt x="387" y="401" on="0"/>
        <pt x="396" y="361" on="0"/>
        <pt x="396" y="341" on="1"/>
        <pt x="396" y="319" on="1"/>
        <pt x="396" y="284" on="0"/>
        <pt x="374" y="224" on="0"/>
        <pt x="330" y="181" on="0"/>
        <pt x="267" y="157" on="0"/>
        <pt x="225" y="157" on="1"/>
        <pt x="173" y="157" on="0"/>
        <pt x="140" y="167" on="1"/>
        <pt x="118" y="148" on="0"/>
        <pt x="118" y="127" on="1"/>
        <pt x="118" y="121" on="1"/>
        <pt x="118" y="107" on="0"/>
        <pt x="138" y="89" on="0"/>
        <pt x="167" y="87" on="1"/>
        <pt x="316" y="76" on="1"/>
        <pt x="362" y="72" on="0"/>
        <pt x="419" y="12" on="0"/>
        <pt x="419" y="-35" on="1"/>
        <pt x="419" y="-72" on="1"/>
        <pt x="419" y="-102" on="0"/>
        <pt x="402" y="-149" on="0"/>
        <pt x="357" y="-180" on="0"/>
        <pt x="278" y="-197" on="0"/>
        <pt x="215" y="-197" on="1"/>
        <pt x="186" y="-197" on="0"/>
        <pt x="105" y="-187" on="0"/>
        <pt x="69" y="-179" on="1"/>
      </contour>
      <contour>
        <pt x="138" y="313" on="1"/>
        <pt x="138" y="286" on="0"/>
        <pt x="145" y="253" on="0"/>
        <pt x="163" y="235" on="0"/>
        <pt x="194" y="228" on="0"/>
        <pt x="219" y="228" on="1"/>
        <pt x="266" y="228" on="0"/>
        <pt x="311" y="272" on="0"/>
        <pt x="311" y="313" on="1"/>
        <pt x="311" y="343" on="1"/>
        <pt x="311" y="366" on="0"/>
        <pt x="304" y="402" on="0"/>
        <pt x="299" y="416" on="1"/>
        <pt x="288" y="421" on="0"/>
        <pt x="247" y="429" on="0"/>
        <pt x="225" y="429" on="1"/>
        <pt x="183" y="429" on="0"/>
        <pt x="138" y="387" on="0"/>
        <pt x="138" y="346" on="1"/>
      </contour>
    </TTGlyph>
    <TTGlyph name="germandbls" xMin="75" yMin="-12" xMax="461" yMax="695">
      <contour>
        <pt x="75" y="0" on="1"/>
        <pt x="75" y="534" on="1"/>
        <pt x="75" y="618" on="0"/>
        <pt x="149" y="695" on="0"/>
        <pt x="237" y="695" on="1"/>
        <pt x="309" y="695" on="0"/>
        <pt x="391" y="623" on="0"/>
        <pt x="391" y="566" on="1"/>
        <pt x="391" y="539" on="1"/>
        <pt x="391" y="507" on="0"/>
        <pt x="364" y="464" on="0"/>
        <pt x="332" y="429" on="0"/>
        <pt x="305" y="398" on="0"/>
        <pt x="305" y="379" on="1"/>
        <pt x="305" y="364" on="1"/>
        <pt x="305" y="349" on="0"/>
        <pt x="314" y="331" on="0"/>
        <pt x="327" y="323" on="1"/>
        <pt x="374" y="295" on="1"/>
        <pt x="421" y="272" on="0"/>
        <pt x="461" y="212" on="0"/>
        <pt x="461" y="170" on="1"/>
        <pt x="461" y="137" on="1"/>
        <pt x="461" y="56" on="0"/>
        <pt x="399" y="-12" on="0"/>
        <pt x="321" y="-12" on="1"/>
        <pt x="305" y="-12" on="0"/>
        <pt x="256" y="-4" on="0"/>
        <pt x="223" y="3" on="1"/>
        <pt x="225" y="78" on="1"/>
        <pt x="251" y="72" on="0"/>
        <pt x="302" y="63" on="0"/>
        <pt x="321" y="63" on="1"/>
        <pt x="347" y="63" on="0"/>
        <pt x="374" y="94" on="0"/>
        <pt x="374" y="129" on="1"/>
        <pt x="374" y="160" on="1"/>
        <pt x="374" y="183" on="0"/>
        <pt x="357" y="210" on="0"/>
        <pt x="336" y="222" on="1"/>
        <pt x="288" y="249" on="1"/>
        <pt x="250" y="270" on="0"/>
        <pt x="223" y="317" on="0"/>
        <pt x="223" y="357" on="1"/>
        <pt x="223" y="376" on="1"/>
        <pt x="223" y="408" on="0"/>
        <pt x="249" y="447" on="0"/>
        <pt x="280" y="478" on="0"/>
        <pt x="306" y="512" on="0"/>
        <pt x="306" y="538" on="1"/>
        <pt x="306" y="566" on="1"/>
        <pt x="306" y="592" on="0"/>
        <pt x="269" y="623" on="0"/>
        <pt x="231" y="623" on="1"/>
        <pt x="193" y="623" on="0"/>
        <pt x="160" y="588" on="0"/>
        <pt x="160" y="544" on="1"/>
        <pt x="160" y="0" on="1"/>
      </contour>
    </TTGlyph>
    <TTGlyph name="grave" xMin="107" yMin="546" xMax="268" yMax="685">
      <contour>
        <pt x="107" y="685" on="1"/>
        <pt x="192" y="685" on="1"/>
        <pt x="268" y="546" on="1"/>
        <pt x="202" y="546" on="1"/>
      </contour>
    </TTGlyph>
    <TTGlyph name="grave.cap" xMin="115" yMin="710" xMax="270" yMax="829">
      <contour>
        <pt x="115" y="829" on="1"/>
        <pt x="204" y="829" on="1"/>
        <pt x="270" y="710" on="1"/>
        <pt x="200" y="710" on="1"/>
      </contour>
    </TTGlyph>
    <TTGlyph name="greater" xMin="80" yMin="99" xMax="440" yMax="494">
      <contour>
        <pt x="80" y="99" on="1"/>
        <pt x="80" y="182" on="1"/>
        <pt x="356" y="297" on="1"/>
        <pt x="80" y="411" on="1"/>
        <pt x="80" y="494" on="1"/>
        <pt x="440" y="334" on="1"/>
        <pt x="440" y="259" on="1"/>
      </contour>
    </TTGlyph>
    <TTGlyph name="guillemotleft" xMin="65" yMin="148" xMax="423" yMax="488">
      <contour>
        <pt x="253" y="488" on="1"/>
        <pt x="160" y="318" on="1"/>
        <pt x="253" y="148" on="1"/>
        <pt x="165" y="148" on="1"/>
        <pt x="65" y="318" on="1"/>
        <pt x="165" y="488" on="1"/>
      </contour>
      <contour>
        <pt x="423" y="488" on="1"/>
        <pt x="330" y="318" on="1"/>
        <pt x="423" y="148" on="1"/>
        <pt x="335" y="148" on="1"/>
        <pt x="235" y="318" on="1"/>
        <pt x="335" y="488" on="1"/>
      </contour>
    </TTGlyph>
    <TTGlyph name="guillemotright" xMin="65" yMin="148" xMax="423" yMax="488">
      <contour>
        <pt x="323" y="488" on="1"/>
        <pt x="423" y="318" on="1"/>
        <pt x="323" y="148" on="1"/>
        <pt x="235" y="148" on="1"/>
        <pt x="328" y="318" on="1"/>
        <pt x="235" y="488" on="1"/>
      </contour>
      <contour>
        <pt x="153" y="488" on="1"/>
        <pt x="253" y="318" on="1"/>
        <pt x="153" y="148" on="1"/>
        <pt x="65" y="148" on="1"/>
        <pt x="158" y="318" on="1"/>
        <pt x="65" y="488" on="1"/>
      </contour>
    </TTGlyph>
    <TTGlyph name="guilsinglleft" xMin="65" yMin="148" xMax="253" yMax="488">
      <contour>
        <pt x="253" y="488" on="1"/>
        <pt x="160" y="318" on="1"/>
        <pt x="253" y="148" on="1"/>
        <pt x="165" y="148" on="1"/>
        <pt x="65" y="318" on="1"/>
        <pt x="165" y="488" on="1"/>
      </contour>
    </TTGlyph>
    <TTGlyph name="guilsinglright" xMin="65" yMin="148" xMax="253" yMax="488">
      <contour>
        <pt x="153" y="488" on="1"/>
        <pt x="253" y="318" on="1"/>
        <pt x="153" y="148" on="1"/>
        <pt x="65" y="148" on="1"/>
        <pt x="158" y="318" on="1"/>
        <pt x="65" y="488" on="1"/>
      </contour>
    </TTGlyph>
    <TTGlyph name="h" xMin="75" yMin="0" xMax="421" yMax="683">
      <contour>
        <pt x="75" y="0" on="1"/>
        <pt x="75" y="683" on="1"/>
        <pt x="160" y="683" on="1"/>
        <pt x="160" y="423" on="1"/>
        <pt x="186" y="460" on="0"/>
        <pt x="250" y="500" on="0"/>
        <pt x="288" y="500" on="1"/>
        <pt x="352" y="500" on="0"/>
        <pt x="421" y="414" on="0"/>
        <pt x="421" y="333" on="1"/>
        <pt x="421" y="0" on="1"/>
        <pt x="336" y="0" on="1"/>
        <pt x="336" y="321" on="1"/>
        <pt x="336" y="376" on="0"/>
        <pt x="300" y="421" on="0"/>
        <pt x="271" y="421" on="1"/>
        <pt x="242" y="421" on="0"/>
        <pt x="182" y="377" on="0"/>
        <pt x="160" y="339" on="1"/>
        <pt x="160" y="0" on="1"/>
      </contour>
    </TTGlyph>
    <TTGlyph name="hbar" xMin="5" yMin="0" xMax="421" yMax="683">
      <contour>
        <pt x="75" y="0" on="1"/>
        <pt x="75" y="553" on="1"/>
        <pt x="5" y="553" on="1"/>
        <pt x="5" y="623" on="1"/>
        <pt x="75" y="623" on="1"/>
        <pt x="75" y="683" on="1"/>
        <pt x="160" y="683" on="1"/>
        <pt x="160" y="623" on="1"/>
        <pt x="280" y="623" on="1"/>
        <pt x="280" y="553" on="1"/>
        <pt x="160" y="553" on="1"/>
        <pt x="160" y="423" on="1"/>
        <pt x="186" y="460" on="0"/>
        <pt x="250" y="500" on="0"/>
        <pt x="288" y="500" on="1"/>
        <pt x="352" y="500" on="0"/>
        <pt x="421" y="414" on="0"/>
        <pt x="421" y="333" on="1"/>
        <pt x="421" y="0" on="1"/>
        <pt x="336" y="0" on="1"/>
        <pt x="336" y="321" on="1"/>
        <pt x="336" y="376" on="0"/>
        <pt x="300" y="421" on="0"/>
        <pt x="271" y="421" on="1"/>
        <pt x="242" y="421" on="0"/>
        <pt x="182" y="377" on="0"/>
        <pt x="160" y="339" on="1"/>
        <pt x="160" y="0" on="1"/>
      </contour>
    </TTGlyph>
    <TTGlyph name="hyphen" xMin="65" yMin="263" xMax="285" yMax="328">
      <contour>
        <pt x="65" y="263" on="1"/>
        <pt x="65" y="328" on="1"/>
        <pt x="285" y="328" on="1"/>
        <pt x="285" y="263" on="1"/>
      </contour>
    </TTGlyph>
    <TTGlyph name="i" xMin="67" yMin="0" xMax="178" yMax="695">
      <contour>
        <pt x="80" y="0" on="1"/>
        <pt x="80" y="488" on="1"/>
        <pt x="165" y="488" on="1"/>
        <pt x="165" y="0" on="1"/>
      </contour>
      <contour>
        <pt x="178" y="620" on="1"/>
        <pt x="178" y="575" on="0"/>
        <pt x="122" y="575" on="1"/>
        <pt x="67" y="575" on="0"/>
        <pt x="67" y="620" on="1"/>
        <pt x="67" y="649" on="1"/>
        <pt x="67" y="695" on="0"/>
        <pt x="122" y="695" on="1"/>
        <pt x="178" y="695" on="0"/>
        <pt x="178" y="649" on="1"/>
      </contour>
    </TTGlyph>
    <TTGlyph name="iacute" xMin="49" yMin="0" xMax="210" yMax="685">
      <component glyphName="dotlessi" x="0" y="0" flags="0x204"/>
      <component glyphName="acute" x="-26" y="0" flags="0x4"/>
    </TTGlyph>
    <TTGlyph name="icircumflex" xMin="-6" yMin="0" xMax="254" yMax="690">
      <component glyphName="dotlessi" x="0" y="0" flags="0x204"/>
      <component glyphName="circumflex" x="-106" y="0" flags="0x4"/>
    </TTGlyph>
    <TTGlyph name="idieresis" xMin="-19" yMin="0" xMax="262" yMax="695">
      <component glyphName="dotlessi" x="0" y="0" flags="0x204"/>
      <component glyphName="dieresis" x="-94" y="0" flags="0x4"/>
    </TTGlyph>
    <TTGlyph name="igrave" xMin="39" yMin="0" xMax="200" yMax="685">
      <component glyphName="dotlessi" x="0" y="0" flags="0x204"/>
      <component glyphName="grave" x="-68" y="0" flags="0x4"/>
    </TTGlyph>
    <TTGlyph name="ij" xMin="67" yMin="-197" xMax="418" yMax="695">
      <component glyphName="i" x="0" y="0" flags="0x4"/>
      <component glyphName="j" x="245" y="0" flags="0x4"/>
    </TTGlyph>
    <TTGlyph name="itilde" xMin="-5" yMin="0" xMax="255" yMax="685">
      <component glyphName="dotlessi" x="0" y="0" flags="0x204"/>
      <component glyphName="tilde" x="-105" y="0" flags="0x4"/>
    </TTGlyph>
    <TTGlyph name="j" xMin="-53" yMin="-197" xMax="173" yMax="695">
      <contour>
        <pt x="75" y="488" on="1"/>
        <pt x="160" y="488" on="1"/>
        <pt x="160" y="-48" on="1"/>
        <pt x="160" y="-123" on="0"/>
        <pt x="87" y="-197" on="0"/>
        <pt x="7" y="-197" on="1"/>
        <pt x="-10" y="-197" on="0"/>
        <pt x="-46" y="-193" on="0"/>
        <pt x="-53" y="-191" on="1"/>
        <pt x="-53" y="-120" on="1"/>
        <pt x="-45" y="-121" on="0"/>
        <pt x="-8" y="-124" on="0"/>
        <pt x="11" y="-124" on="1"/>
        <pt x="75" y="-124" on="0"/>
        <pt x="75" y="-53" on="1"/>
      </contour>
      <contour>
        <pt x="173" y="620" on="1"/>
        <pt x="173" y="575" on="0"/>
        <pt x="117" y="575" on="1"/>
        <pt x="62" y="575" on="0"/>
        <pt x="62" y="620" on="1"/>
        <pt x="62" y="649" on="1"/>
        <pt x="62" y="695" on="0"/>
        <pt x="117" y="695" on="1"/>
        <pt x="173" y="695" on="0"/>
        <pt x="173" y="649" on="1"/>
      </contour>
    </TTGlyph>
    <TTGlyph name="jcircumflex" xMin="-53" yMin="-197" xMax="249" yMax="690">
      <contour>
        <pt x="75" y="488" on="1"/>
        <pt x="160" y="488" on="1"/>
        <pt x="160" y="-48" on="1"/>
        <pt x="160" y="-123" on="0"/>
        <pt x="87" y="-197" on="0"/>
        <pt x="7" y="-197" on="1"/>
        <pt x="-10" y="-197" on="0"/>
        <pt x="-46" y="-193" on="0"/>
        <pt x="-53" y="-191" on="1"/>
        <pt x="-53" y="-120" on="1"/>
        <pt x="-45" y="-121" on="0"/>
        <pt x="-8" y="-124" on="0"/>
        <pt x="11" y="-124" on="1"/>
        <pt x="75" y="-124" on="0"/>
        <pt x="75" y="-53" on="1"/>
      </contour>
      <contour>
        <pt x="-11" y="546" on="1"/>
        <pt x="-11" y="616" on="1"/>
        <pt x="119" y="690" on="1"/>
        <pt x="249" y="616" on="1"/>
        <pt x="249" y="546" on="1"/>
        <pt x="119" y="611" on="1"/>
      </contour>
    </TTGlyph>
    <TTGlyph name="k" xMin="75" yMin="0" xMax="427" yMax="683">
      <contour>
        <pt x="75" y="0" on="1"/>
        <pt x="75" y="683" on="1"/>
        <pt x="160" y="683" on="1"/>
        <pt x="160" y="274" on="1"/>
        <pt x="320" y="488" on="1"/>
        <pt x="415" y="488" on="1"/>
        <pt x="249" y="274" on="1"/>
        <pt x="427" y="0" on="1"/>
        <pt x="325" y="0" on="1"/>
        <pt x="160" y="262" on="1"/>
        <pt x="160" y="0" on="1"/>
      </contour>
    </TTGlyph>
    <TTGlyph name="kcommaaccent" xMin="75" yMin="-231" xMax="427" yMax="683">
      <contour>
        <pt x="281" y="-118" on="1"/>
        <pt x="281" y="-132" on="0"/>
        <pt x="277" y="-153" on="0"/>
        <pt x="273" y="-165" on="1"/>
        <pt x="251" y="-231" on="1"/>
        <pt x="200" y="-231" on="1"/>
        <pt x="217" y="-155" on="1"/>
        <pt x="201" y="-150" on="0"/>
        <pt x="188" y="-133" on="0"/>
        <pt x="188" y="-117" on="1"/>
        <pt x="188" y="-92" on="1"/>
        <pt x="188" y="-76" on="0"/>
        <pt x="212" y="-56" on="0"/>
        <pt x="232" y="-56" on="1"/>
        <pt x="258" y="-56" on="0"/>
        <pt x="281" y="-76" on="0"/>
        <pt x="281" y="-92" on="1"/>
      </contour>
      <contour>
        <pt x="75" y="0" on="1"/>
        <pt x="75" y="683" on="1"/>
        <pt x="160" y="683" on="1"/>
        <pt x="160" y="274" on="1"/>
        <pt x="320" y="488" on="1"/>
        <pt x="415" y="488" on="1"/>
        <pt x="249" y="274" on="1"/>
        <pt x="427" y="0" on="1"/>
        <pt x="325" y="0" on="1"/>
        <pt x="160" y="262" on="1"/>
        <pt x="160" y="0" on="1"/>
      </contour>
    </TTGlyph>
    <TTGlyph name="kgreenlandic" xMin="75" yMin="0" xMax="427" yMax="488">
      <contour>
        <pt x="75" y="0" on="1"/>
        <pt x="75" y="488" on="1"/>
        <pt x="160" y="488" on="1"/>
        <pt x="160" y="256" on="1"/>
        <pt x="320" y="488" on="1"/>
        <pt x="415" y="488" on="1"/>
        <pt x="249" y="255" on="1"/>
        <pt x="427" y="0" on="1"/>
        <pt x="325" y="0" on="1"/>
        <pt x="160" y="244" on="1"/>
        <pt x="160" y="0" on="1"/>
      </contour>
    </TTGlyph>
    <TTGlyph name="l" xMin="75" yMin="0" xMax="160" yMax="683">
      <contour>
        <pt x="75" y="0" on="1"/>
        <pt x="75" y="683" on="1"/>
        <pt x="160" y="683" on="1"/>
        <pt x="160" y="0" on="1"/>
      </contour>
    </TTGlyph>
    <TTGlyph name="ldot" xMin="75" yMin="0" xMax="319" yMax="683">
      <component glyphName="l" x="0" y="0" flags="0x4"/>
      <component glyphName="period" x="153" y="415" flags="0x4"/>
    </TTGlyph>
    <TTGlyph name="less" xMin="80" yMin="99" xMax="440" yMax="494">
      <contour>
        <pt x="80" y="259" on="1"/>
        <pt x="80" y="334" on="1"/>
        <pt x="440" y="494" on="1"/>
        <pt x="440" y="411" on="1"/>
        <pt x="164" y="297" on="1"/>
        <pt x="440" y="182" on="1"/>
        <pt x="440" y="99" on="1"/>
      </contour>
    </TTGlyph>
    <TTGlyph name="logicalnot" xMin="79" yMin="113" xMax="440" yMax="335">
      <contour>
        <pt x="364" y="113" on="1"/>
        <pt x="364" y="265" on="1"/>
        <pt x="79" y="265" on="1"/>
        <pt x="79" y="335" on="1"/>
        <pt x="440" y="335" on="1"/>
        <pt x="440" y="113" on="1"/>
      </contour>
    </TTGlyph>
    <TTGlyph name="lslash" xMin="-15" yMin="0" xMax="250" yMax="683">
      <contour>
        <pt x="75" y="0" on="1"/>
        <pt x="75" y="355" on="1"/>
        <pt x="-15" y="328" on="1"/>
        <pt x="-15" y="398" on="1"/>
        <pt x="75" y="425" on="1"/>
        <pt x="75" y="683" on="1"/>
        <pt x="160" y="683" on="1"/>
        <pt x="160" y="450" on="1"/>
        <pt x="250" y="478" on="1"/>
        <pt x="250" y="408" on="1"/>
        <pt x="160" y="380" on="1"/>
        <pt x="160" y="0" on="1"/>
      </contour>
    </TTGlyph>
    <TTGlyph name="m" xMin="75" yMin="0" xMax="672" yMax="500">
      <contour>
        <pt x="75" y="0" on="1"/>
        <pt x="75" y="488" on="1"/>
        <pt x="155" y="488" on="1"/>
        <pt x="155" y="415" on="1"/>
        <pt x="181" y="456" on="0"/>
        <pt x="248" y="500" on="0"/>
        <pt x="286" y="500" on="1"/>
        <pt x="378" y="500" on="0"/>
        <pt x="406" y="408" on="1"/>
        <pt x="433" y="453" on="0"/>
        <pt x="502" y="500" on="0"/>
        <pt x="542" y="500" on="1"/>
        <pt x="605" y="500" on="0"/>
        <pt x="672" y="414" on="0"/>
        <pt x="672" y="333" on="1"/>
        <pt x="672" y="0" on="1"/>
        <pt x="587" y="0" on="1"/>
        <pt x="587" y="321" on="1"/>
        <pt x="587" y="375" on="0"/>
        <pt x="553" y="421" on="0"/>
        <pt x="525" y="421" on="1"/>
        <pt x="497" y="421" on="0"/>
        <pt x="438" y="377" on="0"/>
        <pt x="416" y="339" on="1"/>
        <pt x="416" y="0" on="1"/>
        <pt x="331" y="0" on="1"/>
        <pt x="331" y="321" on="1"/>
        <pt x="331" y="375" on="0"/>
        <pt x="297" y="421" on="0"/>
        <pt x="269" y="421" on="1"/>
        <pt x="241" y="421" on="0"/>
        <pt x="182" y="377" on="0"/>
        <pt x="160" y="339" on="1"/>
        <pt x="160" y="0" on="1"/>
      </contour>
    </TTGlyph>
    <TTGlyph name="macron" xMin="85" yMin="606" xMax="300" yMax="681">
      <contour>
        <pt x="85" y="606" on="1"/>
        <pt x="85" y="681" on="1"/>
        <pt x="300" y="681" on="1"/>
        <pt x="300" y="606" on="1"/>
      </contour>
    </TTGlyph>
    <TTGlyph name="mu" xMin="87" yMin="-185" xMax="433" yMax="488">
      <contour>
        <pt x="87" y="-185" on="1"/>
        <pt x="87" y="488" on="1"/>
        <pt x="172" y="488" on="1"/>
        <pt x="172" y="170" on="1"/>
        <pt x="172" y="115" on="0"/>
        <pt x="208" y="67" on="0"/>
        <pt x="237" y="67" on="1"/>
        <pt x="266" y="67" on="0"/>
        <pt x="325" y="110" on="0"/>
        <pt x="348" y="148" on="1"/>
        <pt x="348" y="488" on="1"/>
        <pt x="433" y="488" on="1"/>
        <pt x="433" y="0" on="1"/>
        <pt x="353" y="0" on="1"/>
        <pt x="353" y="70" on="1"/>
        <pt x="326" y="30" on="0"/>
        <pt x="262" y="-12" on="0"/>
        <pt x="230" y="-12" on="1"/>
        <pt x="194" y="-12" on="0"/>
        <pt x="172" y="2" on="1"/>
        <pt x="172" y="-185" on="1"/>
      </contour>
    </TTGlyph>
    <TTGlyph name="multiply" xMin="100" yMin="141" xMax="419" yMax="460">
      <contour>
        <pt x="311" y="302" on="1"/>
        <pt x="419" y="194" on="1"/>
        <pt x="365" y="141" on="1"/>
        <pt x="257" y="248" on="1"/>
        <pt x="152" y="143" on="1"/>
        <pt x="102" y="193" on="1"/>
        <pt x="207" y="298" on="1"/>
        <pt x="100" y="406" on="1"/>
        <pt x="153" y="460" on="1"/>
        <pt x="261" y="352" on="1"/>
        <pt x="367" y="458" on="1"/>
        <pt x="417" y="408" on="1"/>
      </contour>
    </TTGlyph>
    <TTGlyph name="n" xMin="75" yMin="0" xMax="421" yMax="500">
      <contour>
        <pt x="75" y="0" on="1"/>
        <pt x="75" y="488" on="1"/>
        <pt x="155" y="488" on="1"/>
        <pt x="155" y="415" on="1"/>
        <pt x="181" y="456" on="0"/>
        <pt x="249" y="500" on="0"/>
        <pt x="288" y="500" on="1"/>
        <pt x="352" y="500" on="0"/>
        <pt x="421" y="414" on="0"/>
        <pt x="421" y="333" on="1"/>
        <pt x="421" y="0" on="1"/>
        <pt x="336" y="0" on="1"/>
        <pt x="336" y="321" on="1"/>
        <pt x="336" y="375" on="0"/>
        <pt x="300" y="421" on="0"/>
        <pt x="271" y="421" on="1"/>
        <pt x="242" y="421" on="0"/>
        <pt x="182" y="377" on="0"/>
        <pt x="160" y="339" on="1"/>
        <pt x="160" y="0" on="1"/>
      </contour>
    </TTGlyph>
    <TTGlyph name="nacute" xMin="75" yMin="0" xMax="421" yMax="685">
      <component glyphName="n" x="0" y="0" flags="0x204"/>
      <component glyphName="acute" x="97" y="0" flags="0x4"/>
    </TTGlyph>
    <TTGlyph name="nine" xMin="75" yMin="-12" xMax="445" yMax="612">
      <contour>
        <pt x="445" y="208" on="1"/>
        <pt x="445" y="92" on="0"/>
        <pt x="343" y="-12" on="0"/>
        <pt x="241" y="-12" on="1"/>
        <pt x="224" y="-12" on="0"/>
        <pt x="186" y="-8" on="0"/>
        <pt x="150" y="-3" on="0"/>
        <pt x="120" y="2" on="0"/>
        <pt x="112" y="4" on="1"/>
        <pt x="112" y="75" on="1"/>
        <pt x="124" y="73" on="0"/>
        <pt x="159" y="67" on="0"/>
        <pt x="197" y="62" on="0"/>
        <pt x="230" y="59" on="0"/>
        <pt x="241" y="59" on="1"/>
        <pt x="301" y="59" on="0"/>
        <pt x="360" y="124" on="0"/>
        <pt x="360" y="202" on="1"/>
        <pt x="360" y="278" on="1"/>
        <pt x="290" y="211" on="0"/>
        <pt x="224" y="211" on="1"/>
        <pt x="154" y="211" on="0"/>
        <pt x="75" y="299" on="0"/>
        <pt x="75" y="388" on="1"/>
        <pt x="75" y="427" on="1"/>
        <pt x="75" y="517" on="0"/>
        <pt x="168" y="612" on="0"/>
        <pt x="261" y="612" on="1"/>
        <pt x="352" y="612" on="0"/>
        <pt x="445" y="516" on="0"/>
        <pt x="445" y="422" on="1"/>
      </contour>
      <contour>
        <pt x="360" y="427" on="1"/>
        <pt x="360" y="540" on="0"/>
        <pt x="261" y="540" on="1"/>
        <pt x="160" y="540" on="0"/>
        <pt x="160" y="432" on="1"/>
        <pt x="160" y="385" on="1"/>
        <pt x="160" y="335" on="0"/>
        <pt x="203" y="285" on="0"/>
        <pt x="241" y="285" on="1"/>
        <pt x="270" y="285" on="0"/>
        <pt x="331" y="324" on="0"/>
        <pt x="360" y="350" on="1"/>
      </contour>
    </TTGlyph>
    <TTGlyph name="ntilde" xMin="75" yMin="0" xMax="421" yMax="685">
      <component glyphName="n" x="0" y="0" flags="0x204"/>
      <component glyphName="tilde" x="18" y="0" flags="0x4"/>
    </TTGlyph>
    <TTGlyph name="numbersign" xMin="17" yMin="0" xMax="503" yMax="613">
      <contour>
        <pt x="423" y="125" on="1"/>
        <pt x="423" y="0" on="1"/>
        <pt x="338" y="0" on="1"/>
        <pt x="338" y="125" on="1"/>
        <pt x="182" y="125" on="1"/>
        <pt x="182" y="0" on="1"/>
        <pt x="97" y="0" on="1"/>
        <pt x="97" y="125" on="1"/>
        <pt x="17" y="125" on="1"/>
        <pt x="17" y="195" on="1"/>
        <pt x="97" y="195" on="1"/>
        <pt x="97" y="418" on="1"/>
        <pt x="17" y="418" on="1"/>
        <pt x="17" y="488" on="1"/>
        <pt x="97" y="488" on="1"/>
        <pt x="97" y="613" on="1"/>
        <pt x="182" y="613" on="1"/>
        <pt x="182" y="488" on="1"/>
        <pt x="338" y="488" on="1"/>
        <pt x="338" y="613" on="1"/>
        <pt x="423" y="613" on="1"/>
        <pt x="423" y="488" on="1"/>
        <pt x="503" y="488" on="1"/>
        <pt x="503" y="418" on="1"/>
        <pt x="423" y="418" on="1"/>
        <pt x="423" y="195" on="1"/>
        <pt x="503" y="195" on="1"/>
        <pt x="503" y="125" on="1"/>
      </contour>
      <contour>
        <pt x="338" y="418" on="1"/>
        <pt x="182" y="418" on="1"/>
        <pt x="182" y="195" on="1"/>
        <pt x="338" y="195" on="1"/>
      </contour>
    </TTGlyph>
    <TTGlyph name="o" xMin="70" yMin="-12" xMax="422" yMax="500">
      <contour>
        <pt x="337" y="326" on="1"/>
        <pt x="337" y="377" on="0"/>
        <pt x="289" y="429" on="0"/>
        <pt x="246" y="429" on="1"/>
        <pt x="203" y="429" on="0"/>
        <pt x="155" y="376" on="0"/>
        <pt x="155" y="325" on="1"/>
        <pt x="155" y="163" on="1"/>
        <pt x="155" y="112" on="0"/>
        <pt x="203" y="59" on="0"/>
        <pt x="246" y="59" on="1"/>
        <pt x="289" y="59" on="0"/>
        <pt x="337" y="112" on="0"/>
        <pt x="337" y="163" on="1"/>
      </contour>
      <contour>
        <pt x="422" y="170" on="1"/>
        <pt x="422" y="85" on="0"/>
        <pt x="338" y="-12" on="0"/>
        <pt x="246" y="-12" on="1"/>
        <pt x="154" y="-12" on="0"/>
        <pt x="70" y="85" on="0"/>
        <pt x="70" y="170" on="1"/>
        <pt x="70" y="318" on="1"/>
        <pt x="70" y="403" on="0"/>
        <pt x="154" y="500" on="0"/>
        <pt x="246" y="500" on="1"/>
        <pt x="338" y="500" on="0"/>
        <pt x="422" y="403" on="0"/>
        <pt x="422" y="318" on="1"/>
      </contour>
    </TTGlyph>
    <TTGlyph name="oacute" xMin="70" yMin="-12" xMax="422" yMax="685">
      <component glyphName="o" x="0" y="0" flags="0x204"/>
      <component glyphName="acute" x="92" y="0" flags="0x4"/>
    </TTGlyph>
    <TTGlyph name="ocircumflex" xMin="70" yMin="-12" xMax="422" yMax="690">
      <component glyphName="o" x="0" y="0" flags="0x204"/>
      <component glyphName="circumflex" x="13" y="0" flags="0x4"/>
    </TTGlyph>
    <TTGlyph name="odieresis" xMin="70" yMin="-12" xMax="422" yMax="695">
      <component glyphName="o" x="0" y="0" flags="0x204"/>
      <component glyphName="dieresis" x="33" y="0" flags="0x4"/>
    </TTGlyph>
    <TTGlyph name="oe" xMin="70" yMin="-12" xMax="683" yMax="500">
      <contour>
        <pt x="422" y="218" on="1"/>
        <pt x="422" y="159" on="1"/>
        <pt x="422" y="108" on="0"/>
        <pt x="472" y="63" on="0"/>
        <pt x="526" y="63" on="1"/>
        <pt x="542" y="63" on="0"/>
        <pt x="581" y="67" on="0"/>
        <pt x="619" y="72" on="0"/>
        <pt x="655" y="78" on="0"/>
        <pt x="668" y="81" on="1"/>
        <pt x="664" y="6" on="1"/>
        <pt x="631" y="0" on="0"/>
        <pt x="555" y="-12" on="0"/>
        <pt x="526" y="-12" on="1"/>
        <pt x="472" y="-12" on="0"/>
        <pt x="401" y="19" on="0"/>
        <pt x="378" y="48" on="1"/>
        <pt x="357" y="20" on="0"/>
        <pt x="292" y="-12" on="0"/>
        <pt x="246" y="-12" on="1"/>
        <pt x="154" y="-12" on="0"/>
        <pt x="70" y="86" on="0"/>
        <pt x="70" y="170" on="1"/>
        <pt x="70" y="318" on="1"/>
        <pt x="70" y="402" on="0"/>
        <pt x="152" y="500" on="0"/>
        <pt x="244" y="500" on="1"/>
        <pt x="290" y="500" on="0"/>
        <pt x="356" y="468" on="0"/>
        <pt x="378" y="440" on="1"/>
        <pt x="399" y="468" on="0"/>
        <pt x="466" y="500" on="0"/>
        <pt x="512" y="500" on="1"/>
        <pt x="597" y="500" on="0"/>
        <pt x="683" y="406" on="0"/>
        <pt x="683" y="321" on="1"/>
        <pt x="683" y="218" on="1"/>
      </contour>
      <contour>
        <pt x="337" y="327" on="1"/>
        <pt x="337" y="378" on="0"/>
        <pt x="288" y="429" on="0"/>
        <pt x="246" y="429" on="1"/>
        <pt x="203" y="429" on="0"/>
        <pt x="155" y="376" on="0"/>
        <pt x="155" y="325" on="1"/>
        <pt x="155" y="163" on="1"/>
        <pt x="155" y="112" on="0"/>
        <pt x="203" y="59" on="0"/>
        <pt x="246" y="59" on="1"/>
        <pt x="288" y="59" on="0"/>
        <pt x="335" y="109" on="0"/>
        <pt x="337" y="158" on="1"/>
      </contour>
      <contour>
        <pt x="422" y="288" on="1"/>
        <pt x="598" y="288" on="1"/>
        <pt x="598" y="331" on="1"/>
        <pt x="598" y="379" on="0"/>
        <pt x="551" y="429" on="0"/>
        <pt x="510" y="429" on="1"/>
        <pt x="469" y="429" on="0"/>
        <pt x="422" y="380" on="0"/>
        <pt x="422" y="332" on="1"/>
      </contour>
    </TTGlyph>
    <TTGlyph name="ograve" xMin="70" yMin="-12" xMax="422" yMax="685">
      <component glyphName="o" x="0" y="0" flags="0x204"/>
      <component glyphName="grave" x="50" y="0" flags="0x4"/>
    </TTGlyph>
    <TTGlyph name="one" xMin="85" yMin="0" xMax="434" yMax="601">
      <contour>
        <pt x="109" y="0" on="1"/>
        <pt x="109" y="73" on="1"/>
        <pt x="237" y="73" on="1"/>
        <pt x="237" y="519" on="1"/>
        <pt x="235" y="519" on="1"/>
        <pt x="102" y="462" on="1"/>
        <pt x="85" y="535" on="1"/>
        <pt x="247" y="601" on="1"/>
        <pt x="322" y="601" on="1"/>
        <pt x="322" y="73" on="1"/>
        <pt x="434" y="73" on="1"/>
        <pt x="434" y="0" on="1"/>
      </contour>
    </TTGlyph>
    <TTGlyph name="onehalf" xMin="58" yMin="0" xMax="944" yMax="602">
      <contour>
        <pt x="311" y="0" on="1"/>
        <pt x="616" y="601" on="1"/>
        <pt x="699" y="601" on="1"/>
        <pt x="394" y="0" on="1"/>
      </contour>
      <contour>
        <pt x="795" y="365" on="1"/>
        <pt x="772" y="365" on="0"/>
        <pt x="717" y="355" on="0"/>
        <pt x="697" y="348" on="1"/>
        <pt x="697" y="413" on="1"/>
        <pt x="722" y="420" on="0"/>
        <pt x="775" y="429" on="0"/>
        <pt x="795" y="429" on="1"/>
        <pt x="874" y="429" on="0"/>
        <pt x="943" y="373" on="0"/>
        <pt x="943" y="321" on="1"/>
        <pt x="943" y="303" on="1"/>
        <pt x="943" y="269" on="0"/>
        <pt x="917" y="210" on="0"/>
        <pt x="880" y="170" on="1"/>
        <pt x="783" y="66" on="1"/>
        <pt x="944" y="66" on="1"/>
        <pt x="944" y="0" on="1"/>
        <pt x="688" y="0" on="1"/>
        <pt x="688" y="60" on="1"/>
        <pt x="836" y="230" on="1"/>
        <pt x="846" y="241" on="0"/>
        <pt x="858" y="258" on="0"/>
        <pt x="865" y="274" on="0"/>
        <pt x="867" y="291" on="0"/>
        <pt x="867" y="302" on="1"/>
        <pt x="867" y="318" on="1"/>
        <pt x="867" y="342" on="0"/>
        <pt x="835" y="365" on="0"/>
      </contour>
      <contour>
        <pt x="79" y="181" on="1"/>
        <pt x="79" y="247" on="1"/>
        <pt x="171" y="247" on="1"/>
        <pt x="171" y="526" on="1"/>
        <pt x="73" y="487" on="1"/>
        <pt x="58" y="554" on="1"/>
        <pt x="186" y="602" on="1"/>
        <pt x="251" y="602" on="1"/>
        <pt x="251" y="247" on="1"/>
        <pt x="331" y="247" on="1"/>
        <pt x="331" y="181" on="1"/>
      </contour>
    </TTGlyph>
    <TTGlyph name="onequarter" xMin="58" yMin="0" xMax="986" yMax="602">
      <contour>
        <pt x="311" y="0" on="1"/>
        <pt x="616" y="601" on="1"/>
        <pt x="699" y="601" on="1"/>
        <pt x="394" y="0" on="1"/>
      </contour>
      <contour>
        <pt x="838" y="421" on="1"/>
        <pt x="745" y="154" on="1"/>
        <pt x="854" y="154" on="1"/>
        <pt x="854" y="286" on="1"/>
        <pt x="930" y="286" on="1"/>
        <pt x="930" y="154" on="1"/>
        <pt x="986" y="154" on="1"/>
        <pt x="986" y="90" on="1"/>
        <pt x="930" y="90" on="1"/>
        <pt x="930" y="0" on="1"/>
        <pt x="853" y="0" on="1"/>
        <pt x="853" y="90" on="1"/>
        <pt x="682" y="90" on="1"/>
        <pt x="662" y="132" on="1"/>
        <pt x="766" y="421" on="1"/>
      </contour>
      <contour>
        <pt x="79" y="181" on="1"/>
        <pt x="79" y="247" on="1"/>
        <pt x="171" y="247" on="1"/>
        <pt x="171" y="526" on="1"/>
        <pt x="73" y="487" on="1"/>
        <pt x="58" y="554" on="1"/>
        <pt x="186" y="602" on="1"/>
        <pt x="251" y="602" on="1"/>
        <pt x="251" y="247" on="1"/>
        <pt x="331" y="247" on="1"/>
        <pt x="331" y="181" on="1"/>
      </contour>
    </TTGlyph>
    <TTGlyph name="onesuperior" xMin="58" yMin="181" xMax="331" yMax="602">
      <contour>
        <pt x="79" y="181" on="1"/>
        <pt x="79" y="247" on="1"/>
        <pt x="171" y="247" on="1"/>
        <pt x="171" y="526" on="1"/>
        <pt x="73" y="487" on="1"/>
        <pt x="58" y="554" on="1"/>
        <pt x="186" y="602" on="1"/>
        <pt x="251" y="602" on="1"/>
        <pt x="251" y="247" on="1"/>
        <pt x="331" y="247" on="1"/>
        <pt x="331" y="181" on="1"/>
      </contour>
    </TTGlyph>
    <TTGlyph name="ordfeminine" xMin="90" yMin="0" xMax="429" yMax="667">
      <contour>
        <pt x="429" y="226" on="1"/>
        <pt x="348" y="226" on="1"/>
        <pt x="348" y="304" on="1"/>
        <pt x="289" y="214" on="0"/>
        <pt x="217" y="214" on="1"/>
        <pt x="159" y="214" on="0"/>
        <pt x="90" y="286" on="0"/>
        <pt x="90" y="348" on="1"/>
        <pt x="90" y="376" on="1"/>
        <pt x="90" y="402" on="0"/>
        <pt x="110" y="448" on="0"/>
        <pt x="149" y="483" on="0"/>
        <pt x="205" y="503" on="0"/>
        <pt x="241" y="503" on="1"/>
        <pt x="263" y="503" on="0"/>
        <pt x="321" y="495" on="0"/>
        <pt x="344" y="490" on="1"/>
        <pt x="344" y="516" on="1"/>
        <pt x="344" y="561" on="0"/>
        <pt x="305" y="597" on="0"/>
        <pt x="264" y="597" on="1"/>
        <pt x="249" y="597" on="0"/>
        <pt x="213" y="594" on="0"/>
        <pt x="177" y="589" on="0"/>
        <pt x="142" y="584" on="0"/>
        <pt x="129" y="582" on="1"/>
        <pt x="129" y="652" on="1"/>
        <pt x="162" y="657" on="0"/>
        <pt x="238" y="667" on="0"/>
        <pt x="264" y="667" on="1"/>
        <pt x="350" y="667" on="0"/>
        <pt x="429" y="591" on="0"/>
        <pt x="429" y="506" on="1"/>
      </contour>
      <contour>
        <pt x="90" y="0" on="1"/>
        <pt x="90" y="73" on="1"/>
        <pt x="429" y="73" on="1"/>
        <pt x="429" y="0" on="1"/>
      </contour>
      <contour>
        <pt x="236" y="290" on="1"/>
        <pt x="262" y="290" on="0"/>
        <pt x="320" y="324" on="0"/>
        <pt x="344" y="366" on="1"/>
        <pt x="344" y="428" on="1"/>
        <pt x="324" y="432" on="0"/>
        <pt x="278" y="435" on="0"/>
        <pt x="262" y="435" on="1"/>
        <pt x="220" y="435" on="0"/>
        <pt x="176" y="397" on="0"/>
        <pt x="176" y="365" on="1"/>
        <pt x="176" y="354" on="1"/>
        <pt x="176" y="324" on="0"/>
        <pt x="210" y="290" on="0"/>
      </contour>
    </TTGlyph>
    <TTGlyph name="ordmasculine" xMin="84" yMin="0" xMax="436" yMax="667">
      <contour>
        <pt x="89" y="0" on="1"/>
        <pt x="89" y="73" on="1"/>
        <pt x="431" y="73" on="1"/>
        <pt x="431" y="0" on="1"/>
      </contour>
      <contour>
        <pt x="351" y="493" on="1"/>
        <pt x="351" y="544" on="0"/>
        <pt x="303" y="596" on="0"/>
        <pt x="260" y="596" on="1"/>
        <pt x="217" y="596" on="0"/>
        <pt x="169" y="543" on="0"/>
        <pt x="169" y="492" on="1"/>
        <pt x="169" y="390" on="1"/>
        <pt x="169" y="339" on="0"/>
        <pt x="217" y="286" on="0"/>
        <pt x="260" y="286" on="1"/>
        <pt x="303" y="286" on="0"/>
        <pt x="351" y="339" on="0"/>
        <pt x="351" y="390" on="1"/>
      </contour>
      <contour>
        <pt x="436" y="397" on="1"/>
        <pt x="436" y="306" on="0"/>
        <pt x="347" y="215" on="0"/>
        <pt x="260" y="215" on="1"/>
        <pt x="174" y="215" on="0"/>
        <pt x="84" y="306" on="0"/>
        <pt x="84" y="397" on="1"/>
        <pt x="84" y="485" on="1"/>
        <pt x="84" y="572" on="0"/>
        <pt x="169" y="667" on="0"/>
        <pt x="260" y="667" on="1"/>
        <pt x="351" y="667" on="0"/>
        <pt x="436" y="572" on="0"/>
        <pt x="436" y="485" on="1"/>
      </contour>
    </TTGlyph>
    <TTGlyph name="oslash" xMin="6" yMin="-51" xMax="486" yMax="538">
      <contour>
        <pt x="6" y="-51" on="1"/>
        <pt x="88" y="72" on="1"/>
        <pt x="70" y="112" on="0"/>
        <pt x="70" y="170" on="1"/>
        <pt x="70" y="318" on="1"/>
        <pt x="70" y="403" on="0"/>
        <pt x="154" y="500" on="0"/>
        <pt x="246" y="500" on="1"/>
        <pt x="312" y="500" on="0"/>
        <pt x="354" y="472" on="1"/>
        <pt x="398" y="538" on="1"/>
        <pt x="486" y="538" on="1"/>
        <pt x="404" y="414" on="1"/>
        <pt x="422" y="373" on="0"/>
        <pt x="422" y="318" on="1"/>
        <pt x="422" y="170" on="1"/>
        <pt x="422" y="85" on="0"/>
        <pt x="338" y="-12" on="0"/>
        <pt x="246" y="-12" on="1"/>
        <pt x="212" y="-12" on="0"/>
        <pt x="158" y="2" on="0"/>
        <pt x="138" y="15" on="1"/>
        <pt x="94" y="-51" on="1"/>
      </contour>
      <contour>
        <pt x="155" y="158" on="1"/>
        <pt x="315" y="400" on="1"/>
        <pt x="292" y="429" on="0"/>
        <pt x="246" y="429" on="1"/>
        <pt x="203" y="429" on="0"/>
        <pt x="155" y="376" on="0"/>
        <pt x="155" y="325" on="1"/>
      </contour>
      <contour>
        <pt x="337" y="326" on="1"/>
        <pt x="177" y="87" on="1"/>
        <pt x="201" y="59" on="0"/>
        <pt x="246" y="59" on="1"/>
        <pt x="289" y="59" on="0"/>
        <pt x="337" y="112" on="0"/>
        <pt x="337" y="163" on="1"/>
      </contour>
    </TTGlyph>
    <TTGlyph name="otilde" xMin="70" yMin="-12" xMax="422" yMax="685">
      <component glyphName="o" x="0" y="0" flags="0x204"/>
      <component glyphName="tilde" x="13" y="0" flags="0x4"/>
    </TTGlyph>
    <TTGlyph name="p" xMin="75" yMin="-185" xMax="420" yMax="500">
      <contour>
        <pt x="75" y="-185" on="1"/>
        <pt x="75" y="488" on="1"/>
        <pt x="155" y="488" on="1"/>
        <pt x="155" y="417" on="1"/>
        <pt x="181" y="457" on="0"/>
        <pt x="248" y="500" on="0"/>
        <pt x="287" y="500" on="1"/>
        <pt x="350" y="500" on="0"/>
        <pt x="420" y="416" on="0"/>
        <pt x="420" y="333" on="1"/>
        <pt x="420" y="155" on="1"/>
        <pt x="420" y="76" on="0"/>
        <pt x="339" y="-12" on="0"/>
        <pt x="270" y="-12" on="1"/>
        <pt x="242" y="-12" on="0"/>
        <pt x="182" y="10" on="0"/>
        <pt x="160" y="23" on="1"/>
        <pt x="160" y="-185" on="1"/>
      </contour>
      <contour>
        <pt x="270" y="424" on="1"/>
        <pt x="241" y="424" on="0"/>
        <pt x="182" y="382" on="0"/>
        <pt x="160" y="344" on="1"/>
        <pt x="160" y="99" on="1"/>
        <pt x="182" y="82" on="0"/>
        <pt x="232" y="63" on="0"/>
        <pt x="253" y="63" on="1"/>
        <pt x="335" y="63" on="0"/>
        <pt x="335" y="167" on="1"/>
        <pt x="335" y="321" on="1"/>
        <pt x="335" y="378" on="0"/>
        <pt x="299" y="424" on="0"/>
      </contour>
    </TTGlyph>
    <TTGlyph name="paragraph" xMin="20" yMin="-185" xMax="471" yMax="683">
      <contour>
        <pt x="280" y="683" on="1"/>
        <pt x="280" y="-185" on="1"/>
        <pt x="194" y="-185" on="1"/>
        <pt x="194" y="313" on="1"/>
        <pt x="144" y="313" on="1"/>
        <pt x="84" y="313" on="0"/>
        <pt x="20" y="373" on="0"/>
        <pt x="20" y="433" on="1"/>
        <pt x="20" y="560" on="1"/>
        <pt x="20" y="617" on="0"/>
        <pt x="81" y="683" on="0"/>
        <pt x="144" y="683" on="1"/>
      </contour>
      <contour>
        <pt x="471" y="683" on="1"/>
        <pt x="471" y="-185" on="1"/>
        <pt x="385" y="-185" on="1"/>
        <pt x="385" y="683" on="1"/>
      </contour>
      <contour>
        <pt x="102" y="458" on="1"/>
        <pt x="102" y="418" on="0"/>
        <pt x="126" y="388" on="0"/>
        <pt x="154" y="388" on="1"/>
        <pt x="194" y="388" on="1"/>
        <pt x="194" y="610" on="1"/>
        <pt x="154" y="610" on="1"/>
        <pt x="126" y="610" on="0"/>
        <pt x="102" y="581" on="0"/>
        <pt x="102" y="540" on="1"/>
      </contour>
    </TTGlyph>
    <TTGlyph name="parenleft" xMin="163" yMin="-119" xMax="334" yMax="787">
      <contour>
        <pt x="163" y="603" on="1"/>
        <pt x="163" y="658" on="0"/>
        <pt x="176" y="729" on="0"/>
        <pt x="214" y="771" on="0"/>
        <pt x="281" y="787" on="0"/>
        <pt x="334" y="787" on="1"/>
        <pt x="334" y="715" on="1"/>
        <pt x="307" y="713" on="0"/>
        <pt x="273" y="706" on="0"/>
        <pt x="255" y="689" on="0"/>
        <pt x="248" y="662" on="0"/>
        <pt x="248" y="640" on="1"/>
        <pt x="248" y="43" on="1"/>
        <pt x="248" y="16" on="0"/>
        <pt x="253" y="-17" on="0"/>
        <pt x="271" y="-37" on="0"/>
        <pt x="305" y="-46" on="0"/>
        <pt x="334" y="-47" on="1"/>
        <pt x="334" y="-119" on="1"/>
        <pt x="281" y="-119" on="0"/>
        <pt x="214" y="-103" on="0"/>
        <pt x="176" y="-61" on="0"/>
        <pt x="163" y="10" on="0"/>
        <pt x="163" y="65" on="1"/>
      </contour>
    </TTGlyph>
    <TTGlyph name="parenright" xMin="185" yMin="-119" xMax="356" yMax="787">
      <contour>
        <pt x="356" y="65" on="1"/>
        <pt x="356" y="10" on="0"/>
        <pt x="342" y="-61" on="0"/>
        <pt x="305" y="-103" on="0"/>
        <pt x="238" y="-119" on="0"/>
        <pt x="185" y="-119" on="1"/>
        <pt x="185" y="-47" on="1"/>
        <pt x="214" y="-46" on="0"/>
        <pt x="248" y="-37" on="0"/>
        <pt x="266" y="-17" on="0"/>
        <pt x="271" y="16" on="0"/>
        <pt x="271" y="43" on="1"/>
        <pt x="271" y="640" on="1"/>
        <pt x="271" y="662" on="0"/>
        <pt x="264" y="689" on="0"/>
        <pt x="246" y="706" on="0"/>
        <pt x="212" y="713" on="0"/>
        <pt x="185" y="715" on="1"/>
        <pt x="185" y="787" on="1"/>
        <pt x="238" y="787" on="0"/>
        <pt x="305" y="771" on="0"/>
        <pt x="342" y="729" on="0"/>
        <pt x="356" y="658" on="0"/>
        <pt x="356" y="603" on="1"/>
      </contour>
    </TTGlyph>
    <TTGlyph name="percent" xMin="65" yMin="-12" xMax="857" yMax="613">
      <contour>
        <pt x="341" y="0" on="1"/>
        <pt x="254" y="0" on="1"/>
        <pt x="589" y="613" on="1"/>
        <pt x="676" y="613" on="1"/>
      </contour>
      <contour>
        <pt x="380" y="423" on="1"/>
        <pt x="380" y="346" on="0"/>
        <pt x="302" y="263" on="0"/>
        <pt x="223" y="263" on="1"/>
        <pt x="144" y="263" on="0"/>
        <pt x="65" y="346" on="0"/>
        <pt x="65" y="423" on="1"/>
        <pt x="65" y="453" on="1"/>
        <pt x="65" y="530" on="0"/>
        <pt x="144" y="613" on="0"/>
        <pt x="223" y="613" on="1"/>
        <pt x="302" y="613" on="0"/>
        <pt x="380" y="530" on="0"/>
        <pt x="380" y="453" on="1"/>
      </contour>
      <contour>
        <pt x="295" y="453" on="1"/>
        <pt x="295" y="499" on="0"/>
        <pt x="259" y="538" on="0"/>
        <pt x="223" y="538" on="1"/>
        <pt x="187" y="538" on="0"/>
        <pt x="150" y="498" on="0"/>
        <pt x="150" y="453" on="1"/>
        <pt x="150" y="423" on="1"/>
        <pt x="150" y="378" on="0"/>
        <pt x="186" y="338" on="0"/>
        <pt x="223" y="338" on="1"/>
        <pt x="259" y="338" on="0"/>
        <pt x="295" y="378" on="0"/>
        <pt x="295" y="423" on="1"/>
      </contour>
      <contour>
        <pt x="857" y="148" on="1"/>
        <pt x="857" y="71" on="0"/>
        <pt x="779" y="-12" on="0"/>
        <pt x="700" y="-12" on="1"/>
        <pt x="621" y="-12" on="0"/>
        <pt x="542" y="71" on="0"/>
        <pt x="542" y="148" on="1"/>
        <pt x="542" y="178" on="1"/>
        <pt x="542" y="255" on="0"/>
        <pt x="621" y="338" on="0"/>
        <pt x="700" y="338" on="1"/>
        <pt x="779" y="338" on="0"/>
        <pt x="857" y="255" on="0"/>
        <pt x="857" y="178" on="1"/>
      </contour>
      <contour>
        <pt x="772" y="178" on="1"/>
        <pt x="772" y="224" on="0"/>
        <pt x="736" y="263" on="0"/>
        <pt x="700" y="263" on="1"/>
        <pt x="664" y="263" on="0"/>
        <pt x="627" y="223" on="0"/>
        <pt x="627" y="178" on="1"/>
        <pt x="627" y="148" on="1"/>
        <pt x="627" y="103" on="0"/>
        <pt x="663" y="63" on="0"/>
        <pt x="700" y="63" on="1"/>
        <pt x="736" y="63" on="0"/>
        <pt x="772" y="103" on="0"/>
        <pt x="772" y="148" on="1"/>
      </contour>
    </TTGlyph>
    <TTGlyph name="period" xMin="55" yMin="-12" xMax="166" yMax="108">
      <contour>
        <pt x="166" y="33" on="1"/>
        <pt x="166" y="-12" on="0"/>
        <pt x="110" y="-12" on="1"/>
        <pt x="55" y="-12" on="0"/>
        <pt x="55" y="33" on="1"/>
        <pt x="55" y="62" on="1"/>
        <pt x="55" y="108" on="0"/>
        <pt x="110" y="108" on="1"/>
        <pt x="166" y="108" on="0"/>
        <pt x="166" y="62" on="1"/>
      </contour>
    </TTGlyph>
    <TTGlyph name="periodcentered" xMin="55" yMin="189" xMax="166" yMax="309">
      <component glyphName="period" x="0" y="201" flags="0x204"/>
    </TTGlyph>
    <TTGlyph name="plus" xMin="82" yMin="113" xMax="438" yMax="488">
      <contour>
        <pt x="298" y="265" on="1"/>
        <pt x="298" y="113" on="1"/>
        <pt x="222" y="113" on="1"/>
        <pt x="222" y="265" on="1"/>
        <pt x="82" y="265" on="1"/>
        <pt x="82" y="336" on="1"/>
        <pt x="222" y="336" on="1"/>
        <pt x="222" y="488" on="1"/>
        <pt x="298" y="488" on="1"/>
        <pt x="298" y="336" on="1"/>
        <pt x="438" y="336" on="1"/>
        <pt x="438" y="265" on="1"/>
      </contour>
    </TTGlyph>
    <TTGlyph name="plusminus" xMin="81" yMin="0" xMax="438" yMax="488">
      <contour>
        <pt x="81" y="0" on="1"/>
        <pt x="81" y="70" on="1"/>
        <pt x="437" y="70" on="1"/>
        <pt x="437" y="0" on="1"/>
      </contour>
      <contour>
        <pt x="298" y="265" on="1"/>
        <pt x="298" y="113" on="1"/>
        <pt x="222" y="113" on="1"/>
        <pt x="222" y="265" on="1"/>
        <pt x="82" y="265" on="1"/>
        <pt x="82" y="336" on="1"/>
        <pt x="222" y="336" on="1"/>
        <pt x="222" y="488" on="1"/>
        <pt x="298" y="488" on="1"/>
        <pt x="298" y="336" on="1"/>
        <pt x="438" y="336" on="1"/>
        <pt x="438" y="265" on="1"/>
      </contour>
    </TTGlyph>
    <TTGlyph name="q" xMin="70" yMin="-185" xMax="416" yMax="500">
      <contour>
        <pt x="70" y="333" on="1"/>
        <pt x="70" y="411" on="0"/>
        <pt x="142" y="500" on="0"/>
        <pt x="211" y="500" on="1"/>
        <pt x="245" y="500" on="0"/>
        <pt x="312" y="464" on="0"/>
        <pt x="335" y="447" on="1"/>
        <pt x="335" y="488" on="1"/>
        <pt x="416" y="488" on="1"/>
        <pt x="416" y="-185" on="1"/>
        <pt x="331" y="-185" on="1"/>
        <pt x="331" y="73" on="1"/>
        <pt x="302" y="31" on="0"/>
        <pt x="236" y="-12" on="0"/>
        <pt x="198" y="-12" on="1"/>
        <pt x="136" y="-12" on="0"/>
        <pt x="70" y="72" on="0"/>
        <pt x="70" y="155" on="1"/>
      </contour>
      <contour>
        <pt x="218" y="64" on="1"/>
        <pt x="247" y="64" on="0"/>
        <pt x="307" y="110" on="0"/>
        <pt x="331" y="154" on="1"/>
        <pt x="331" y="374" on="1"/>
        <pt x="310" y="396" on="0"/>
        <pt x="253" y="424" on="0"/>
        <pt x="230" y="424" on="1"/>
        <pt x="195" y="424" on="0"/>
        <pt x="155" y="375" on="0"/>
        <pt x="155" y="321" on="1"/>
        <pt x="155" y="166" on="1"/>
        <pt x="155" y="109" on="0"/>
        <pt x="190" y="64" on="0"/>
      </contour>
    </TTGlyph>
    <TTGlyph name="question" xMin="25" yMin="-12" xMax="340" yMax="695">
      <contour>
        <pt x="151" y="627" on="1"/>
        <pt x="122" y="627" on="0"/>
        <pt x="51" y="615" on="0"/>
        <pt x="25" y="609" on="1"/>
        <pt x="25" y="679" on="1"/>
        <pt x="58" y="686" on="0"/>
        <pt x="130" y="695" on="0"/>
        <pt x="156" y="695" on="1"/>
        <pt x="256" y="695" on="0"/>
        <pt x="340" y="622" on="0"/>
        <pt x="340" y="557" on="1"/>
        <pt x="340" y="532" on="1"/>
        <pt x="340" y="487" on="0"/>
        <pt x="300" y="406" on="0"/>
        <pt x="253" y="357" on="1"/>
        <pt x="220" y="321" on="1"/>
        <pt x="212" y="313" on="0"/>
        <pt x="202" y="298" on="0"/>
        <pt x="196" y="282" on="0"/>
        <pt x="193" y="260" on="0"/>
        <pt x="193" y="245" on="1"/>
        <pt x="193" y="200" on="1"/>
        <pt x="112" y="200" on="1"/>
        <pt x="112" y="232" on="1"/>
        <pt x="112" y="256" on="0"/>
        <pt x="115" y="289" on="0"/>
        <pt x="123" y="315" on="0"/>
        <pt x="139" y="339" on="0"/>
        <pt x="152" y="354" on="1"/>
        <pt x="210" y="422" on="1"/>
        <pt x="224" y="438" on="0"/>
        <pt x="241" y="465" on="0"/>
        <pt x="251" y="490" on="0"/>
        <pt x="255" y="517" on="0"/>
        <pt x="255" y="534" on="1"/>
        <pt x="255" y="556" on="1"/>
        <pt x="255" y="592" on="0"/>
        <pt x="212" y="627" on="0"/>
      </contour>
      <contour>
        <pt x="210" y="33" on="1"/>
        <pt x="210" y="-12" on="0"/>
        <pt x="154" y="-12" on="1"/>
        <pt x="99" y="-12" on="0"/>
        <pt x="99" y="33" on="1"/>
        <pt x="99" y="62" on="1"/>
        <pt x="99" y="108" on="0"/>
        <pt x="154" y="108" on="1"/>
        <pt x="210" y="108" on="0"/>
        <pt x="210" y="62" on="1"/>
      </contour>
    </TTGlyph>
    <TTGlyph name="questiondown" xMin="55" yMin="-197" xMax="370" yMax="510">
      <component glyphName="question" x="395" y="498" scale="-0.999938964844" flags="0x4"/>
    </TTGlyph>
    <TTGlyph name="quotedbl" xMin="75" yMin="429" xMax="300" yMax="683">
      <contour>
        <pt x="75" y="683" on="1"/>
        <pt x="160" y="683" on="1"/>
        <pt x="160" y="429" on="1"/>
        <pt x="75" y="429" on="1"/>
      </contour>
      <contour>
        <pt x="215" y="683" on="1"/>
        <pt x="300" y="683" on="1"/>
        <pt x="300" y="429" on="1"/>
        <pt x="215" y="429" on="1"/>
      </contour>
    </TTGlyph>
    <TTGlyph name="quotedblbase" xMin="55" yMin="-108" xMax="302" yMax="105">
      <component glyphName="quotesinglbase" x="0" y="0" flags="0x4"/>
      <component glyphName="quotesinglbase" x="140" y="0" flags="0x4"/>
    </TTGlyph>
    <TTGlyph name="quotedblleft" xMin="59" yMin="482" xMax="306" yMax="695">
      <component glyphName="quotesinglbase" x="221" y="587" scale="-0.999938964844" flags="0x4"/>
      <component glyphName="quotesinglbase" x="361" y="587" scale="-0.999938964844" flags="0x4"/>
    </TTGlyph>
    <TTGlyph name="quotedblright" xMin="55" yMin="482" xMax="302" yMax="695">
      <component glyphName="quotesinglbase" x="0" y="590" flags="0x4"/>
      <component glyphName="quotesinglbase" x="140" y="590" flags="0x4"/>
    </TTGlyph>
    <TTGlyph name="quoteleft" xMin="59" yMin="483" xMax="166" yMax="696">
      <component glyphName="quotesinglbase" x="221" y="588" scale="-0.999938964844" flags="0x4"/>
    </TTGlyph>
    <TTGlyph name="quoteright" xMin="55" yMin="482" xMax="162" yMax="695">
      <component glyphName="quotesinglbase" x="0" y="590" flags="0x204"/>
    </TTGlyph>
    <TTGlyph name="quotesinglbase" xMin="55" yMin="-108" xMax="162" yMax="105">
      <contour>
        <pt x="162" y="31" on="1"/>
        <pt x="162" y="3" on="0"/>
        <pt x="155" y="-19" on="1"/>
        <pt x="125" y="-108" on="1"/>
        <pt x="66" y="-108" on="1"/>
        <pt x="89" y="-9" on="1"/>
        <pt x="55" y="-1" on="0"/>
        <pt x="55" y="33" on="1"/>
        <pt x="55" y="61" on="1"/>
        <pt x="55" y="105" on="0"/>
        <pt x="108" y="105" on="1"/>
        <pt x="162" y="105" on="0"/>
        <pt x="162" y="61" on="1"/>
      </contour>
    </TTGlyph>
    <TTGlyph name="quotesingle" xMin="75" yMin="429" xMax="160" yMax="683">
      <contour>
        <pt x="75" y="683" on="1"/>
        <pt x="160" y="683" on="1"/>
        <pt x="160" y="429" on="1"/>
        <pt x="75" y="429" on="1"/>
      </contour>
    </TTGlyph>
    <TTGlyph name="r" xMin="75" yMin="0" xMax="310" yMax="500">
      <contour>
        <pt x="75" y="0" on="1"/>
        <pt x="75" y="488" on="1"/>
        <pt x="155" y="488" on="1"/>
        <pt x="155" y="415" on="1"/>
        <pt x="181" y="456" on="0"/>
        <pt x="249" y="500" on="0"/>
        <pt x="288" y="500" on="1"/>
        <pt x="302" y="500" on="0"/>
        <pt x="310" y="498" on="1"/>
        <pt x="310" y="402" on="1"/>
        <pt x="302" y="404" on="0"/>
        <pt x="285" y="405" on="0"/>
        <pt x="271" y="405" on="1"/>
        <pt x="239" y="405" on="0"/>
        <pt x="182" y="372" on="0"/>
        <pt x="160" y="335" on="1"/>
        <pt x="160" y="0" on="1"/>
      </contour>
    </TTGlyph>
    <TTGlyph name="rcaron" xMin="43" yMin="0" xMax="310" yMax="690">
      <component glyphName="r" x="0" y="0" flags="0x204"/>
      <component glyphName="caron" x="-57" y="0" flags="0x4"/>
    </TTGlyph>
    <TTGlyph name="rcommaaccent" xMin="73" yMin="-231" xMax="310" yMax="500">
      <contour>
        <pt x="166" y="-118" on="1"/>
        <pt x="166" y="-132" on="0"/>
        <pt x="162" y="-153" on="0"/>
        <pt x="158" y="-165" on="1"/>
        <pt x="136" y="-231" on="1"/>
        <pt x="85" y="-231" on="1"/>
        <pt x="102" y="-155" on="1"/>
        <pt x="86" y="-150" on="0"/>
        <pt x="73" y="-133" on="0"/>
        <pt x="73" y="-117" on="1"/>
        <pt x="73" y="-92" on="1"/>
        <pt x="73" y="-76" on="0"/>
        <pt x="97" y="-56" on="0"/>
        <pt x="117" y="-56" on="1"/>
        <pt x="143" y="-56" on="0"/>
        <pt x="166" y="-76" on="0"/>
        <pt x="166" y="-92" on="1"/>
      </contour>
      <contour>
        <pt x="75" y="0" on="1"/>
        <pt x="75" y="488" on="1"/>
        <pt x="155" y="488" on="1"/>
        <pt x="155" y="415" on="1"/>
        <pt x="181" y="456" on="0"/>
        <pt x="249" y="500" on="0"/>
        <pt x="288" y="500" on="1"/>
        <pt x="302" y="500" on="0"/>
        <pt x="310" y="498" on="1"/>
        <pt x="310" y="402" on="1"/>
        <pt x="302" y="404" on="0"/>
        <pt x="285" y="405" on="0"/>
        <pt x="271" y="405" on="1"/>
        <pt x="239" y="405" on="0"/>
        <pt x="182" y="372" on="0"/>
        <pt x="160" y="335" on="1"/>
        <pt x="160" y="0" on="1"/>
      </contour>
    </TTGlyph>
    <TTGlyph name="registered" xMin="75" yMin="297" xMax="461" yMax="695">
      <contour>
        <pt x="461" y="479" on="1"/>
        <pt x="461" y="395" on="0"/>
        <pt x="373" y="297" on="0"/>
        <pt x="268" y="297" on="1"/>
        <pt x="163" y="297" on="0"/>
        <pt x="75" y="395" on="0"/>
        <pt x="75" y="479" on="1"/>
        <pt x="75" y="513" on="1"/>
        <pt x="75" y="597" on="0"/>
        <pt x="163" y="695" on="0"/>
        <pt x="268" y="695" on="1"/>
        <pt x="373" y="695" on="0"/>
        <pt x="461" y="597" on="0"/>
        <pt x="461" y="513" on="1"/>
      </contour>
      <contour>
        <pt x="410" y="523" on="1"/>
        <pt x="410" y="586" on="0"/>
        <pt x="345" y="648" on="0"/>
        <pt x="268" y="648" on="1"/>
        <pt x="191" y="648" on="0"/>
        <pt x="126" y="584" on="0"/>
        <pt x="126" y="522" on="1"/>
        <pt x="126" y="470" on="1"/>
        <pt x="126" y="408" on="0"/>
        <pt x="191" y="344" on="0"/>
        <pt x="268" y="344" on="1"/>
        <pt x="345" y="344" on="0"/>
        <pt x="410" y="408" on="0"/>
        <pt x="410" y="470" on="1"/>
      </contour>
      <contour>
        <pt x="195" y="381" on="1"/>
        <pt x="195" y="614" on="1"/>
        <pt x="215" y="615" on="0"/>
        <pt x="256" y="616" on="0"/>
        <pt x="269" y="616" on="1"/>
        <pt x="320" y="616" on="0"/>
        <pt x="360" y="577" on="0"/>
        <pt x="360" y="546" on="1"/>
        <pt x="360" y="535" on="1"/>
        <pt x="360" y="514" on="0"/>
        <pt x="335" y="481" on="0"/>
        <pt x="314" y="472" on="1"/>
        <pt x="368" y="381" on="1"/>
        <pt x="318" y="381" on="1"/>
        <pt x="270" y="465" on="1"/>
        <pt x="238" y="465" on="1"/>
        <pt x="238" y="381" on="1"/>
      </contour>
      <contour>
        <pt x="272" y="576" on="1"/>
        <pt x="267" y="576" on="0"/>
        <pt x="244" y="575" on="0"/>
        <pt x="238" y="574" on="1"/>
        <pt x="238" y="506" on="1"/>
        <pt x="249" y="505" on="0"/>
        <pt x="258" y="505" on="1"/>
        <pt x="274" y="505" on="1"/>
        <pt x="297" y="505" on="0"/>
        <pt x="316" y="522" on="0"/>
        <pt x="316" y="536" on="1"/>
        <pt x="316" y="545" on="1"/>
        <pt x="316" y="561" on="0"/>
        <pt x="296" y="576" on="0"/>
      </contour>
    </TTGlyph>
    <TTGlyph name="ring" xMin="75" yMin="525" xMax="305" yMax="725">
      <contour>
        <pt x="305" y="625" on="1"/>
        <pt x="305" y="574" on="0"/>
        <pt x="243" y="525" on="0"/>
        <pt x="190" y="525" on="1"/>
        <pt x="138" y="525" on="0"/>
        <pt x="75" y="574" on="0"/>
        <pt x="75" y="625" on="1"/>
        <pt x="75" y="676" on="0"/>
        <pt x="137" y="725" on="0"/>
        <pt x="190" y="725" on="1"/>
        <pt x="242" y="725" on="0"/>
        <pt x="305" y="676" on="0"/>
      </contour>
      <contour>
        <pt x="240" y="625" on="1"/>
        <pt x="240" y="645" on="0"/>
        <pt x="218" y="670" on="0"/>
        <pt x="190" y="670" on="1"/>
        <pt x="162" y="670" on="0"/>
        <pt x="140" y="645" on="0"/>
        <pt x="140" y="625" on="1"/>
        <pt x="140" y="605" on="0"/>
        <pt x="162" y="580" on="0"/>
        <pt x="190" y="580" on="1"/>
        <pt x="218" y="580" on="0"/>
        <pt x="240" y="605" on="0"/>
      </contour>
    </TTGlyph>
    <TTGlyph name="ring.cap" xMin="75" yMin="600" xMax="305" yMax="800">
      <contour>
        <pt x="305" y="700" on="1"/>
        <pt x="305" y="649" on="0"/>
        <pt x="243" y="600" on="0"/>
        <pt x="190" y="600" on="1"/>
        <pt x="138" y="600" on="0"/>
        <pt x="75" y="649" on="0"/>
        <pt x="75" y="700" on="1"/>
        <pt x="75" y="751" on="0"/>
        <pt x="137" y="800" on="0"/>
        <pt x="190" y="800" on="1"/>
        <pt x="242" y="800" on="0"/>
        <pt x="305" y="751" on="0"/>
      </contour>
      <contour>
        <pt x="240" y="700" on="1"/>
        <pt x="240" y="720" on="0"/>
        <pt x="218" y="745" on="0"/>
        <pt x="190" y="745" on="1"/>
        <pt x="162" y="745" on="0"/>
        <pt x="140" y="720" on="0"/>
        <pt x="140" y="700" on="1"/>
        <pt x="140" y="680" on="0"/>
        <pt x="162" y="655" on="0"/>
        <pt x="190" y="655" on="1"/>
        <pt x="218" y="655" on="0"/>
        <pt x="240" y="680" on="0"/>
      </contour>
    </TTGlyph>
    <TTGlyph name="s" xMin="45" yMin="-12" xMax="359" yMax="500">
      <contour>
        <pt x="135" y="234" on="1"/>
        <pt x="90" y="251" on="0"/>
        <pt x="45" y="310" on="0"/>
        <pt x="45" y="348" on="1"/>
        <pt x="45" y="361" on="1"/>
        <pt x="45" y="430" on="0"/>
        <pt x="122" y="500" on="0"/>
        <pt x="214" y="500" on="1"/>
        <pt x="237" y="500" on="0"/>
        <pt x="286" y="495" on="0"/>
        <pt x="319" y="488" on="1"/>
        <pt x="317" y="416" on="1"/>
        <pt x="264" y="428" on="0"/>
        <pt x="218" y="428" on="1"/>
        <pt x="165" y="428" on="0"/>
        <pt x="129" y="399" on="0"/>
        <pt x="129" y="369" on="1"/>
        <pt x="129" y="361" on="1"/>
        <pt x="129" y="341" on="0"/>
        <pt x="149" y="319" on="0"/>
        <pt x="175" y="308" on="1"/>
        <pt x="269" y="269" on="1"/>
        <pt x="313" y="251" on="0"/>
        <pt x="359" y="189" on="0"/>
        <pt x="359" y="152" on="1"/>
        <pt x="359" y="128" on="1"/>
        <pt x="359" y="59" on="0"/>
        <pt x="280" y="-12" on="0"/>
        <pt x="185" y="-12" on="1"/>
        <pt x="128" y="-12" on="0"/>
        <pt x="58" y="4" on="1"/>
        <pt x="60" y="79" on="1"/>
        <pt x="124" y="63" on="0"/>
        <pt x="185" y="63" on="1"/>
        <pt x="239" y="63" on="0"/>
        <pt x="275" y="90" on="0"/>
        <pt x="275" y="120" on="1"/>
        <pt x="275" y="134" on="1"/>
        <pt x="275" y="157" on="0"/>
        <pt x="255" y="187" on="0"/>
        <pt x="232" y="196" on="1"/>
      </contour>
    </TTGlyph>
    <TTGlyph name="section" xMin="15" yMin="-119" xMax="388" yMax="695">
      <contour>
        <pt x="271" y="46" on="1"/>
        <pt x="271" y="72" on="0"/>
        <pt x="253" y="102" on="0"/>
        <pt x="230" y="110" on="1"/>
        <pt x="123" y="147" on="1"/>
        <pt x="64" y="167" on="0"/>
        <pt x="15" y="223" on="0"/>
        <pt x="15" y="268" on="1"/>
        <pt x="15" y="292" on="1"/>
        <pt x="15" y="318" on="0"/>
        <pt x="30" y="363" on="0"/>
        <pt x="56" y="397" on="0"/>
        <pt x="92" y="418" on="0"/>
        <pt x="113" y="421" on="1"/>
        <pt x="83" y="432" on="0"/>
        <pt x="45" y="488" on="0"/>
        <pt x="45" y="528" on="1"/>
        <pt x="45" y="556" on="1"/>
        <pt x="45" y="625" on="0"/>
        <pt x="120" y="695" on="0"/>
        <pt x="212" y="695" on="1"/>
        <pt x="236" y="695" on="0"/>
        <pt x="283" y="690" on="0"/>
        <pt x="316" y="683" on="1"/>
        <pt x="314" y="612" on="1"/>
        <pt x="288" y="618" on="0"/>
        <pt x="240" y="624" on="0"/>
        <pt x="216" y="624" on="1"/>
        <pt x="167" y="624" on="0"/>
        <pt x="132" y="595" on="0"/>
        <pt x="132" y="564" on="1"/>
        <pt x="132" y="531" on="1"/>
        <pt x="132" y="510" on="0"/>
        <pt x="150" y="485" on="0"/>
        <pt x="173" y="476" on="1"/>
        <pt x="280" y="435" on="1"/>
        <pt x="338" y="413" on="0"/>
        <pt x="388" y="353" on="0"/>
        <pt x="388" y="315" on="1"/>
        <pt x="388" y="284" on="1"/>
        <pt x="388" y="239" on="0"/>
        <pt x="339" y="172" on="0"/>
        <pt x="294" y="163" on="1"/>
        <pt x="323" y="152" on="0"/>
        <pt x="358" y="97" on="0"/>
        <pt x="358" y="59" on="1"/>
        <pt x="358" y="21" on="1"/>
        <pt x="358" y="-49" on="0"/>
        <pt x="278" y="-119" on="0"/>
        <pt x="183" y="-119" on="1"/>
        <pt x="149" y="-119" on="0"/>
        <pt x="93" y="-111" on="0"/>
        <pt x="60" y="-104" on="1"/>
        <pt x="62" y="-29" on="1"/>
        <pt x="88" y="-35" on="0"/>
        <pt x="146" y="-44" on="0"/>
        <pt x="183" y="-44" on="1"/>
        <pt x="235" y="-44" on="0"/>
        <pt x="271" y="-18" on="0"/>
        <pt x="271" y="13" on="1"/>
      </contour>
      <contour>
        <pt x="203" y="378" on="1"/>
        <pt x="153" y="377" on="0"/>
        <pt x="102" y="329" on="0"/>
        <pt x="102" y="294" on="1"/>
        <pt x="102" y="269" on="1"/>
        <pt x="102" y="252" on="0"/>
        <pt x="127" y="228" on="0"/>
        <pt x="163" y="216" on="1"/>
        <pt x="209" y="201" on="1"/>
        <pt x="255" y="203" on="0"/>
        <pt x="301" y="248" on="0"/>
        <pt x="301" y="282" on="1"/>
        <pt x="301" y="305" on="1"/>
        <pt x="301" y="349" on="0"/>
        <pt x="240" y="367" on="1"/>
      </contour>
    </TTGlyph>
    <TTGlyph name="semicolon" xMin="55" yMin="-161" xMax="166" yMax="500">
      <component glyphName="period" x="0" y="392" flags="0x204"/>
      <component glyphName="comma" x="0" y="0" flags="0x4"/>
    </TTGlyph>
    <TTGlyph name="seven" xMin="79" yMin="0" xMax="440" yMax="600">
      <contour>
        <pt x="440" y="600" on="1"/>
        <pt x="440" y="542" on="1"/>
        <pt x="216" y="0" on="1"/>
        <pt x="125" y="0" on="1"/>
        <pt x="349" y="525" on="1"/>
        <pt x="349" y="527" on="1"/>
        <pt x="79" y="527" on="1"/>
        <pt x="79" y="600" on="1"/>
      </contour>
    </TTGlyph>
    <TTGlyph name="six" xMin="75" yMin="-12" xMax="445" yMax="606">
      <contour>
        <pt x="75" y="362" on="1"/>
        <pt x="75" y="480" on="0"/>
        <pt x="233" y="604" on="0"/>
        <pt x="392" y="606" on="1"/>
        <pt x="392" y="533" on="1"/>
        <pt x="266" y="531" on="0"/>
        <pt x="160" y="452" on="0"/>
        <pt x="160" y="378" on="1"/>
        <pt x="160" y="322" on="1"/>
        <pt x="198" y="358" on="0"/>
        <pt x="264" y="389" on="0"/>
        <pt x="294" y="389" on="1"/>
        <pt x="364" y="389" on="0"/>
        <pt x="445" y="303" on="0"/>
        <pt x="445" y="212" on="1"/>
        <pt x="445" y="173" on="1"/>
        <pt x="445" y="82" on="0"/>
        <pt x="350" y="-12" on="0"/>
        <pt x="259" y="-12" on="1"/>
        <pt x="168" y="-12" on="0"/>
        <pt x="75" y="87" on="0"/>
        <pt x="75" y="178" on="1"/>
      </contour>
      <contour>
        <pt x="160" y="173" on="1"/>
        <pt x="160" y="60" on="0"/>
        <pt x="259" y="60" on="1"/>
        <pt x="360" y="60" on="0"/>
        <pt x="360" y="168" on="1"/>
        <pt x="360" y="215" on="1"/>
        <pt x="360" y="266" on="0"/>
        <pt x="317" y="315" on="0"/>
        <pt x="279" y="315" on="1"/>
        <pt x="250" y="315" on="0"/>
        <pt x="189" y="276" on="0"/>
        <pt x="160" y="250" on="1"/>
      </contour>
    </TTGlyph>
    <TTGlyph name="slash" xMin="115" yMin="0" xMax="405" yMax="683">
      <contour>
        <pt x="115" y="0" on="1"/>
        <pt x="320" y="683" on="1"/>
        <pt x="405" y="683" on="1"/>
        <pt x="200" y="0" on="1"/>
      </contour>
    </TTGlyph>
    <TTGlyph name="sterling" xMin="71" yMin="0" xMax="448" yMax="613">
      <contour>
        <pt x="226" y="375" on="1"/>
        <pt x="321" y="375" on="1"/>
        <pt x="321" y="305" on="1"/>
        <pt x="226" y="305" on="1"/>
        <pt x="226" y="184" on="1"/>
        <pt x="226" y="141" on="0"/>
        <pt x="205" y="90" on="0"/>
        <pt x="185" y="74" on="1"/>
        <pt x="448" y="74" on="1"/>
        <pt x="448" y="0" on="1"/>
        <pt x="101" y="0" on="1"/>
        <pt x="101" y="60" on="1"/>
        <pt x="122" y="86" on="0"/>
        <pt x="141" y="137" on="0"/>
        <pt x="141" y="166" on="1"/>
        <pt x="141" y="305" on="1"/>
        <pt x="71" y="305" on="1"/>
        <pt x="71" y="375" on="1"/>
        <pt x="141" y="375" on="1"/>
        <pt x="141" y="457" on="1"/>
        <pt x="141" y="537" on="0"/>
        <pt x="222" y="613" on="0"/>
        <pt x="308" y="613" on="1"/>
        <pt x="331" y="613" on="0"/>
        <pt x="383" y="604" on="0"/>
        <pt x="403" y="598" on="1"/>
        <pt x="403" y="530" on="1"/>
        <pt x="388" y="535" on="0"/>
        <pt x="342" y="543" on="0"/>
        <pt x="321" y="543" on="1"/>
        <pt x="267" y="543" on="0"/>
        <pt x="226" y="504" on="0"/>
        <pt x="226" y="462" on="1"/>
      </contour>
    </TTGlyph>
    <TTGlyph name="t" xMin="15" yMin="-12" xMax="318" yMax="618">
      <contour>
        <pt x="85" y="418" on="1"/>
        <pt x="15" y="418" on="1"/>
        <pt x="15" y="488" on="1"/>
        <pt x="85" y="488" on="1"/>
        <pt x="101" y="618" on="1"/>
        <pt x="170" y="618" on="1"/>
        <pt x="170" y="488" on="1"/>
        <pt x="300" y="488" on="1"/>
        <pt x="300" y="418" on="1"/>
        <pt x="170" y="418" on="1"/>
        <pt x="170" y="132" on="1"/>
        <pt x="170" y="94" on="0"/>
        <pt x="202" y="61" on="0"/>
        <pt x="234" y="61" on="1"/>
        <pt x="256" y="61" on="0"/>
        <pt x="303" y="66" on="0"/>
        <pt x="318" y="69" on="1"/>
        <pt x="318" y="-2" on="1"/>
        <pt x="301" y="-6" on="0"/>
        <pt x="261" y="-12" on="0"/>
        <pt x="238" y="-12" on="1"/>
        <pt x="159" y="-12" on="0"/>
        <pt x="85" y="58" on="0"/>
        <pt x="85" y="139" on="1"/>
      </contour>
    </TTGlyph>
    <TTGlyph name="thorn" xMin="75" yMin="-185" xMax="420" yMax="683">
      <contour>
        <pt x="75" y="-185" on="1"/>
        <pt x="75" y="683" on="1"/>
        <pt x="160" y="683" on="1"/>
        <pt x="160" y="424" on="1"/>
        <pt x="186" y="461" on="0"/>
        <pt x="249" y="500" on="0"/>
        <pt x="287" y="500" on="1"/>
        <pt x="350" y="500" on="0"/>
        <pt x="420" y="416" on="0"/>
        <pt x="420" y="333" on="1"/>
        <pt x="420" y="155" on="1"/>
        <pt x="420" y="76" on="0"/>
        <pt x="339" y="-12" on="0"/>
        <pt x="270" y="-12" on="1"/>
        <pt x="242" y="-12" on="0"/>
        <pt x="182" y="10" on="0"/>
        <pt x="160" y="23" on="1"/>
        <pt x="160" y="-185" on="1"/>
      </contour>
      <contour>
        <pt x="270" y="424" on="1"/>
        <pt x="241" y="424" on="0"/>
        <pt x="182" y="382" on="0"/>
        <pt x="160" y="344" on="1"/>
        <pt x="160" y="99" on="1"/>
        <pt x="182" y="82" on="0"/>
        <pt x="232" y="63" on="0"/>
        <pt x="253" y="63" on="1"/>
        <pt x="335" y="63" on="0"/>
        <pt x="335" y="167" on="1"/>
        <pt x="335" y="321" on="1"/>
        <pt x="335" y="378" on="0"/>
        <pt x="299" y="424" on="0"/>
      </contour>
    </TTGlyph>
    <TTGlyph name="three" xMin="103" yMin="-12" xMax="417" yMax="613">
      <contour>
        <pt x="229" y="543" on="1"/>
        <pt x="200" y="543" on="0"/>
        <pt x="129" y="534" on="0"/>
        <pt x="103" y="529" on="1"/>
        <pt x="103" y="600" on="1"/>
        <pt x="136" y="605" on="0"/>
        <pt x="203" y="613" on="0"/>
        <pt x="229" y="613" on="1"/>
        <pt x="315" y="613" on="0"/>
        <pt x="404" y="531" on="0"/>
        <pt x="404" y="457" on="1"/>
        <pt x="404" y="447" on="1"/>
        <pt x="404" y="401" on="0"/>
        <pt x="366" y="333" on="0"/>
        <pt x="327" y="314" on="1"/>
        <pt x="369" y="297" on="0"/>
        <pt x="417" y="221" on="0"/>
        <pt x="417" y="173" on="1"/>
        <pt x="417" y="163" on="1"/>
        <pt x="417" y="125" on="0"/>
        <pt x="394" y="60" on="0"/>
        <pt x="347" y="14" on="0"/>
        <pt x="278" y="-12" on="0"/>
        <pt x="232" y="-12" on="1"/>
        <pt x="206" y="-12" on="0"/>
        <pt x="136" y="-4" on="0"/>
        <pt x="103" y="1" on="1"/>
        <pt x="103" y="72" on="1"/>
        <pt x="129" y="67" on="0"/>
        <pt x="203" y="59" on="0"/>
        <pt x="232" y="59" on="1"/>
        <pt x="280" y="59" on="0"/>
        <pt x="332" y="112" on="0"/>
        <pt x="332" y="158" on="1"/>
        <pt x="332" y="174" on="1"/>
        <pt x="332" y="276" on="0"/>
        <pt x="227" y="276" on="1"/>
        <pt x="138" y="276" on="1"/>
        <pt x="138" y="344" on="1"/>
        <pt x="227" y="344" on="1"/>
        <pt x="275" y="344" on="0"/>
        <pt x="319" y="391" on="0"/>
        <pt x="319" y="443" on="1"/>
        <pt x="319" y="462" on="1"/>
        <pt x="319" y="543" on="0"/>
      </contour>
    </TTGlyph>
    <TTGlyph name="threequarters" xMin="74" yMin="0" xMax="967" yMax="610">
      <contour>
        <pt x="292" y="0" on="1"/>
        <pt x="597" y="601" on="1"/>
        <pt x="680" y="601" on="1"/>
        <pt x="375" y="0" on="1"/>
      </contour>
      <contour>
        <pt x="819" y="421" on="1"/>
        <pt x="726" y="154" on="1"/>
        <pt x="835" y="154" on="1"/>
        <pt x="835" y="286" on="1"/>
        <pt x="911" y="286" on="1"/>
        <pt x="911" y="154" on="1"/>
        <pt x="967" y="154" on="1"/>
        <pt x="967" y="90" on="1"/>
        <pt x="911" y="90" on="1"/>
        <pt x="911" y="0" on="1"/>
        <pt x="834" y="0" on="1"/>
        <pt x="834" y="90" on="1"/>
        <pt x="663" y="90" on="1"/>
        <pt x="643" y="132" on="1"/>
        <pt x="747" y="421" on="1"/>
      </contour>
      <contour>
        <pt x="169" y="549" on="1"/>
        <pt x="147" y="549" on="0"/>
        <pt x="94" y="542" on="0"/>
        <pt x="74" y="539" on="1"/>
        <pt x="74" y="601" on="1"/>
        <pt x="99" y="605" on="0"/>
        <pt x="149" y="610" on="0"/>
        <pt x="169" y="610" on="1"/>
        <pt x="239" y="610" on="0"/>
        <pt x="306" y="552" on="0"/>
        <pt x="306" y="502" on="1"/>
        <pt x="306" y="495" on="1"/>
        <pt x="306" y="462" on="0"/>
        <pt x="278" y="418" on="0"/>
        <pt x="246" y="403" on="1"/>
        <pt x="280" y="389" on="0"/>
        <pt x="316" y="336" on="0"/>
        <pt x="316" y="302" on="1"/>
        <pt x="316" y="295" on="1"/>
        <pt x="316" y="241" on="0"/>
        <pt x="243" y="173" on="0"/>
        <pt x="171" y="173" on="1"/>
        <pt x="152" y="173" on="0"/>
        <pt x="99" y="178" on="0"/>
        <pt x="74" y="182" on="1"/>
        <pt x="74" y="243" on="1"/>
        <pt x="94" y="240" on="0"/>
        <pt x="151" y="235" on="0"/>
        <pt x="173" y="235" on="1"/>
        <pt x="206" y="235" on="0"/>
        <pt x="237" y="265" on="0"/>
        <pt x="237" y="291" on="1"/>
        <pt x="237" y="304" on="1"/>
        <pt x="237" y="336" on="0"/>
        <pt x="203" y="368" on="0"/>
        <pt x="161" y="368" on="1"/>
        <pt x="103" y="368" on="1"/>
        <pt x="103" y="427" on="1"/>
        <pt x="161" y="427" on="1"/>
        <pt x="199" y="427" on="0"/>
        <pt x="229" y="457" on="0"/>
        <pt x="229" y="489" on="1"/>
        <pt x="229" y="502" on="1"/>
        <pt x="229" y="527" on="0"/>
        <pt x="201" y="549" on="0"/>
      </contour>
    </TTGlyph>
    <TTGlyph name="threesuperior" xMin="74" yMin="173" xMax="316" yMax="610">
      <contour>
        <pt x="169" y="549" on="1"/>
        <pt x="147" y="549" on="0"/>
        <pt x="94" y="542" on="0"/>
        <pt x="74" y="539" on="1"/>
        <pt x="74" y="601" on="1"/>
        <pt x="99" y="605" on="0"/>
        <pt x="149" y="610" on="0"/>
        <pt x="169" y="610" on="1"/>
        <pt x="239" y="610" on="0"/>
        <pt x="306" y="552" on="0"/>
        <pt x="306" y="502" on="1"/>
        <pt x="306" y="495" on="1"/>
        <pt x="306" y="462" on="0"/>
        <pt x="278" y="418" on="0"/>
        <pt x="246" y="403" on="1"/>
        <pt x="280" y="389" on="0"/>
        <pt x="316" y="336" on="0"/>
        <pt x="316" y="302" on="1"/>
        <pt x="316" y="295" on="1"/>
        <pt x="316" y="241" on="0"/>
        <pt x="243" y="173" on="0"/>
        <pt x="171" y="173" on="1"/>
        <pt x="152" y="173" on="0"/>
        <pt x="99" y="178" on="0"/>
        <pt x="74" y="182" on="1"/>
        <pt x="74" y="243" on="1"/>
        <pt x="94" y="240" on="0"/>
        <pt x="151" y="235" on="0"/>
        <pt x="173" y="235" on="1"/>
        <pt x="206" y="235" on="0"/>
        <pt x="237" y="265" on="0"/>
        <pt x="237" y="291" on="1"/>
        <pt x="237" y="304" on="1"/>
        <pt x="237" y="336" on="0"/>
        <pt x="203" y="368" on="0"/>
        <pt x="161" y="368" on="1"/>
        <pt x="103" y="368" on="1"/>
        <pt x="103" y="427" on="1"/>
        <pt x="161" y="427" on="1"/>
        <pt x="199" y="427" on="0"/>
        <pt x="229" y="457" on="0"/>
        <pt x="229" y="489" on="1"/>
        <pt x="229" y="502" on="1"/>
        <pt x="229" y="527" on="0"/>
        <pt x="201" y="549" on="0"/>
      </contour>
    </TTGlyph>
    <TTGlyph name="tilde" xMin="100" yMin="585" xMax="360" yMax="685">
      <contour>
        <pt x="360" y="615" on="1"/>
        <pt x="352" y="608" on="0"/>
        <pt x="310" y="585" on="0"/>
        <pt x="280" y="585" on="1"/>
        <pt x="265" y="585" on="0"/>
        <pt x="240" y="593" on="0"/>
        <pt x="216" y="602" on="0"/>
        <pt x="192" y="610" on="0"/>
        <pt x="178" y="610" on="1"/>
        <pt x="169" y="610" on="0"/>
        <pt x="147" y="605" on="0"/>
        <pt x="124" y="597" on="0"/>
        <pt x="105" y="588" on="0"/>
        <pt x="100" y="585" on="1"/>
        <pt x="100" y="655" on="1"/>
        <pt x="106" y="661" on="0"/>
        <pt x="151" y="685" on="0"/>
        <pt x="180" y="685" on="1"/>
        <pt x="199" y="685" on="0"/>
        <pt x="226" y="677" on="0"/>
        <pt x="248" y="668" on="0"/>
        <pt x="269" y="660" on="0"/>
        <pt x="282" y="660" on="1"/>
        <pt x="291" y="660" on="0"/>
        <pt x="315" y="666" on="0"/>
        <pt x="338" y="674" on="0"/>
        <pt x="356" y="682" on="0"/>
        <pt x="360" y="685" on="1"/>
      </contour>
    </TTGlyph>
    <TTGlyph name="tilde.cap" xMin="90" yMin="710" xMax="370" yMax="810">
      <contour>
        <pt x="370" y="740" on="1"/>
        <pt x="359" y="731" on="0"/>
        <pt x="347" y="725" on="1"/>
        <pt x="336" y="719" on="0"/>
        <pt x="307" y="710" on="0"/>
        <pt x="290" y="710" on="1"/>
        <pt x="273" y="710" on="0"/>
        <pt x="243" y="718" on="0"/>
        <pt x="213" y="727" on="0"/>
        <pt x="183" y="735" on="0"/>
        <pt x="168" y="735" on="1"/>
        <pt x="155" y="735" on="0"/>
        <pt x="128" y="727" on="0"/>
        <pt x="117" y="722" on="1"/>
        <pt x="104" y="717" on="0"/>
        <pt x="90" y="710" on="1"/>
        <pt x="90" y="780" on="1"/>
        <pt x="101" y="788" on="0"/>
        <pt x="113" y="795" on="1"/>
        <pt x="124" y="800" on="0"/>
        <pt x="153" y="810" on="0"/>
        <pt x="170" y="810" on="1"/>
        <pt x="190" y="810" on="0"/>
        <pt x="223" y="802" on="0"/>
        <pt x="251" y="793" on="0"/>
        <pt x="278" y="785" on="0"/>
        <pt x="292" y="785" on="1"/>
        <pt x="304" y="785" on="0"/>
        <pt x="332" y="792" on="0"/>
        <pt x="343" y="797" on="1"/>
        <pt x="356" y="802" on="0"/>
        <pt x="370" y="810" on="1"/>
      </contour>
    </TTGlyph>
    <TTGlyph name="two" xMin="95" yMin="0" xMax="425" yMax="613">
      <contour>
        <pt x="236" y="541" on="1"/>
        <pt x="207" y="541" on="0"/>
        <pt x="136" y="528" on="0"/>
        <pt x="110" y="520" on="1"/>
        <pt x="110" y="593" on="1"/>
        <pt x="143" y="602" on="0"/>
        <pt x="210" y="613" on="0"/>
        <pt x="236" y="613" on="1"/>
        <pt x="334" y="613" on="0"/>
        <pt x="425" y="535" on="0"/>
        <pt x="425" y="457" on="1"/>
        <pt x="425" y="435" on="1"/>
        <pt x="425" y="414" on="0"/>
        <pt x="419" y="374" on="0"/>
        <pt x="402" y="331" on="0"/>
        <pt x="369" y="280" on="0"/>
        <pt x="342" y="248" on="1"/>
        <pt x="197" y="73" on="1"/>
        <pt x="422" y="73" on="1"/>
        <pt x="422" y="0" on="1"/>
        <pt x="95" y="0" on="1"/>
        <pt x="95" y="65" on="1"/>
        <pt x="295" y="318" on="1"/>
        <pt x="309" y="336" on="0"/>
        <pt x="327" y="364" on="0"/>
        <pt x="337" y="389" on="0"/>
        <pt x="340" y="416" on="0"/>
        <pt x="340" y="434" on="1"/>
        <pt x="340" y="452" on="1"/>
        <pt x="340" y="500" on="0"/>
        <pt x="291" y="541" on="0"/>
      </contour>
    </TTGlyph>
    <TTGlyph name="twosuperior" xMin="67" yMin="181" xMax="323" yMax="610">
      <contour>
        <pt x="174" y="546" on="1"/>
        <pt x="151" y="546" on="0"/>
        <pt x="96" y="536" on="0"/>
        <pt x="76" y="529" on="1"/>
        <pt x="76" y="594" on="1"/>
        <pt x="101" y="601" on="0"/>
        <pt x="154" y="610" on="0"/>
        <pt x="174" y="610" on="1"/>
        <pt x="253" y="610" on="0"/>
        <pt x="322" y="554" on="0"/>
        <pt x="322" y="502" on="1"/>
        <pt x="322" y="484" on="1"/>
        <pt x="322" y="450" on="0"/>
        <pt x="296" y="391" on="0"/>
        <pt x="259" y="351" on="1"/>
        <pt x="162" y="247" on="1"/>
        <pt x="323" y="247" on="1"/>
        <pt x="323" y="181" on="1"/>
        <pt x="67" y="181" on="1"/>
        <pt x="67" y="241" on="1"/>
        <pt x="215" y="411" on="1"/>
        <pt x="225" y="422" on="0"/>
        <pt x="237" y="439" on="0"/>
        <pt x="244" y="455" on="0"/>
        <pt x="246" y="472" on="0"/>
        <pt x="246" y="483" on="1"/>
        <pt x="246" y="499" on="1"/>
        <pt x="246" y="523" on="0"/>
        <pt x="214" y="546" on="0"/>
      </contour>
    </TTGlyph>
    <TTGlyph name="u" xMin="75" yMin="-12" xMax="421" yMax="488">
      <contour>
        <pt x="421" y="488" on="1"/>
        <pt x="421" y="0" on="1"/>
        <pt x="341" y="0" on="1"/>
        <pt x="341" y="70" on="1"/>
        <pt x="314" y="30" on="0"/>
        <pt x="247" y="-12" on="0"/>
        <pt x="208" y="-12" on="1"/>
        <pt x="147" y="-12" on="0"/>
        <pt x="75" y="70" on="0"/>
        <pt x="75" y="155" on="1"/>
        <pt x="75" y="488" on="1"/>
        <pt x="160" y="488" on="1"/>
        <pt x="160" y="170" on="1"/>
        <pt x="160" y="115" on="0"/>
        <pt x="196" y="67" on="0"/>
        <pt x="225" y="67" on="1"/>
        <pt x="254" y="67" on="0"/>
        <pt x="313" y="110" on="0"/>
        <pt x="336" y="148" on="1"/>
        <pt x="336" y="488" on="1"/>
      </contour>
    </TTGlyph>
    <TTGlyph name="uacute" xMin="75" yMin="-12" xMax="421" yMax="685">
      <component glyphName="u" x="0" y="0" flags="0x204"/>
      <component glyphName="acute" x="127" y="0" flags="0x4"/>
    </TTGlyph>
    <TTGlyph name="ucircumflex" xMin="75" yMin="-12" xMax="421" yMax="690">
      <component glyphName="u" x="0" y="0" flags="0x204"/>
      <component glyphName="circumflex" x="18" y="0" flags="0x4"/>
    </TTGlyph>
    <TTGlyph name="udieresis" xMin="75" yMin="-12" xMax="421" yMax="695">
      <component glyphName="u" x="0" y="0" flags="0x204"/>
      <component glyphName="dieresis" x="31" y="0" flags="0x4"/>
    </TTGlyph>
    <TTGlyph name="ugrave" xMin="75" yMin="-12" xMax="421" yMax="685">
      <component glyphName="u" x="0" y="0" flags="0x204"/>
      <component glyphName="grave" x="35" y="0" flags="0x4"/>
    </TTGlyph>
    <TTGlyph name="underscore" xMin="65" yMin="-185" xMax="545" yMax="-120">
      <contour>
        <pt x="65" y="-185" on="1"/>
        <pt x="65" y="-120" on="1"/>
        <pt x="545" y="-120" on="1"/>
        <pt x="545" y="-185" on="1"/>
      </contour>
    </TTGlyph>
    <TTGlyph name="uni00AD" xMin="65" yMin="263" xMax="285" yMax="328">
      <component glyphName="hyphen" x="0" y="0" flags="0x204"/>
    </TTGlyph>
    <TTGlyph name="v" xMin="15" yMin="0" xMax="427" yMax="488">
      <contour>
        <pt x="276" y="0" on="1"/>
        <pt x="165" y="0" on="1"/>
        <pt x="15" y="488" on="1"/>
        <pt x="105" y="488" on="1"/>
        <pt x="221" y="62" on="1"/>
        <pt x="337" y="488" on="1"/>
        <pt x="427" y="488" on="1"/>
      </contour>
    </TTGlyph>
    <TTGlyph name="w" xMin="25" yMin="0" xMax="663" yMax="488">
      <contour>
        <pt x="553" y="0" on="1"/>
        <pt x="446" y="0" on="1"/>
        <pt x="344" y="414" on="1"/>
        <pt x="241" y="0" on="1"/>
        <pt x="134" y="0" on="1"/>
        <pt x="25" y="488" on="1"/>
        <pt x="115" y="488" on="1"/>
        <pt x="191" y="75" on="1"/>
        <pt x="289" y="488" on="1"/>
        <pt x="399" y="488" on="1"/>
        <pt x="496" y="75" on="1"/>
        <pt x="573" y="488" on="1"/>
        <pt x="663" y="488" on="1"/>
      </contour>
    </TTGlyph>
    <TTGlyph name="x" xMin="25" yMin="0" xMax="436" yMax="488">
      <contour>
        <pt x="230" y="190" on="1"/>
        <pt x="122" y="0" on="1"/>
        <pt x="25" y="0" on="1"/>
        <pt x="176" y="252" on="1"/>
        <pt x="35" y="488" on="1"/>
        <pt x="132" y="488" on="1"/>
        <pt x="230" y="314" on="1"/>
        <pt x="328" y="488" on="1"/>
        <pt x="425" y="488" on="1"/>
        <pt x="284" y="252" on="1"/>
        <pt x="436" y="0" on="1"/>
        <pt x="339" y="0" on="1"/>
      </contour>
    </TTGlyph>
    <TTGlyph name="y" xMin="15" yMin="-185" xMax="431" yMax="488">
      <contour>
        <pt x="207" y="-185" on="1"/>
        <pt x="122" y="-185" on="1"/>
        <pt x="186" y="0" on="1"/>
        <pt x="154" y="0" on="1"/>
        <pt x="15" y="488" on="1"/>
        <pt x="108" y="488" on="1"/>
        <pt x="213" y="61" on="1"/>
        <pt x="343" y="488" on="1"/>
        <pt x="431" y="488" on="1"/>
      </contour>
    </TTGlyph>
    <TTGlyph name="yacute" xMin="15" yMin="-185" xMax="431" yMax="685">
      <component glyphName="y" x="0" y="0" flags="0x4"/>
      <component glyphName="acute" x="102" y="0" flags="0x4"/>
    </TTGlyph>
    <TTGlyph name="ydieresis" xMin="15" yMin="-185" xMax="431" yMax="695">
      <component glyphName="y" x="0" y="0" flags="0x4"/>
      <component glyphName="dieresis" x="21" y="0" flags="0x4"/>
    </TTGlyph>
    <TTGlyph name="yen" xMin="27" yMin="0" xMax="492" yMax="601">
      <contour>
        <pt x="302" y="78" on="1"/>
        <pt x="302" y="0" on="1"/>
        <pt x="217" y="0" on="1"/>
        <pt x="217" y="78" on="1"/>
        <pt x="122" y="78" on="1"/>
        <pt x="122" y="148" on="1"/>
        <pt x="217" y="148" on="1"/>
        <pt x="217" y="189" on="1"/>
        <pt x="122" y="189" on="1"/>
        <pt x="122" y="259" on="1"/>
        <pt x="188" y="259" on="1"/>
        <pt x="27" y="601" on="1"/>
        <pt x="122" y="601" on="1"/>
        <pt x="260" y="280" on="1"/>
        <pt x="397" y="601" on="1"/>
        <pt x="492" y="601" on="1"/>
        <pt x="331" y="259" on="1"/>
        <pt x="396" y="259" on="1"/>
        <pt x="396" y="189" on="1"/>
        <pt x="302" y="189" on="1"/>
        <pt x="302" y="148" on="1"/>
        <pt x="396" y="148" on="1"/>
        <pt x="396" y="78" on="1"/>
      </contour>
    </TTGlyph>
    <TTGlyph name="z" xMin="45" yMin="0" xMax="371" yMax="488">
      <contour>
        <pt x="45" y="0" on="1"/>
        <pt x="45" y="65" on="1"/>
        <pt x="269" y="413" on="1"/>
        <pt x="50" y="413" on="1"/>
        <pt x="50" y="488" on="1"/>
        <pt x="371" y="488" on="1"/>
        <pt x="371" y="423" on="1"/>
        <pt x="148" y="75" on="1"/>
        <pt x="371" y="75" on="1"/>
        <pt x="371" y="0" on="1"/>
      </contour>
    </TTGlyph>
    <TTGlyph name="zero" xMin="75" yMin="-12" xMax="445" yMax="613">
      <contour>
        <pt x="445" y="193" on="1"/>
        <pt x="445" y="89" on="0"/>
        <pt x="349" y="-12" on="0"/>
        <pt x="260" y="-12" on="1"/>
        <pt x="171" y="-12" on="0"/>
        <pt x="75" y="89" on="0"/>
        <pt x="75" y="193" on="1"/>
        <pt x="75" y="408" on="1"/>
        <pt x="75" y="512" on="0"/>
        <pt x="171" y="613" on="0"/>
        <pt x="260" y="613" on="1"/>
        <pt x="349" y="613" on="0"/>
        <pt x="445" y="512" on="0"/>
        <pt x="445" y="408" on="1"/>
      </contour>
      <contour>
        <pt x="360" y="416" on="1"/>
        <pt x="360" y="482" on="0"/>
        <pt x="307" y="541" on="0"/>
        <pt x="260" y="541" on="1"/>
        <pt x="212" y="541" on="0"/>
        <pt x="160" y="482" on="0"/>
        <pt x="160" y="416" on="1"/>
        <pt x="160" y="185" on="1"/>
        <pt x="160" y="119" on="0"/>
        <pt x="213" y="60" on="0"/>
        <pt x="260" y="60" on="1"/>
        <pt x="307" y="60" on="0"/>
        <pt x="360" y="119" on="0"/>
        <pt x="360" y="185" on="1"/>
      </contour>
    </TTGlyph>
</ttFont>
